<mxfile host="app.diagrams.net" agent="Mozilla/5.0 (Macintosh; Intel Mac OS X 10_15_7) AppleWebKit/537.36 (KHTML, like Gecko) Chrome/135.0.0.0 Safari/537.36" version="26.2.13" pages="5">
  <diagram name="Archtecture Diagram" id="PWB5vax6mi4m_QB_boT-">
    <mxGraphModel dx="4510" dy="1648" grid="1" gridSize="10" guides="1" tooltips="1" connect="1" arrows="1" fold="1" page="1" pageScale="1" pageWidth="827" pageHeight="1169" math="0" shadow="0">
      <root>
        <mxCell id="0" />
        <mxCell id="1" parent="0" />
        <mxCell id="wLxNe06kuUfHXLHcYYkg-1" value="" style="rounded=0;whiteSpace=wrap;html=1;shadow=0;glass=0;labelBackgroundColor=none;labelBorderColor=none;sketch=0;fontSize=36;fontColor=#FF4D0D;strokeColor=none;strokeWidth=5;fillColor=#DBDBDB;gradientColor=none;gradientDirection=radial;align=left;rotation=30;opacity=50;" vertex="1" parent="1">
          <mxGeometry x="561.28" y="138.6" width="560.22" height="310.98" as="geometry" />
        </mxCell>
        <mxCell id="wLxNe06kuUfHXLHcYYkg-2" value="" style="rounded=0;whiteSpace=wrap;html=1;shadow=0;glass=0;labelBackgroundColor=none;labelBorderColor=none;sketch=0;fontSize=36;fontColor=#FF4D0D;strokeColor=none;strokeWidth=5;fillColor=#DBDBDB;gradientColor=none;gradientDirection=radial;align=left;rotation=30;opacity=50;" vertex="1" parent="1">
          <mxGeometry x="-178.54" y="471.27" width="1172.41" height="548.18" as="geometry" />
        </mxCell>
        <mxCell id="wLxNe06kuUfHXLHcYYkg-3" value="" style="rounded=0;whiteSpace=wrap;html=1;shadow=0;glass=0;labelBackgroundColor=none;labelBorderColor=none;sketch=0;fontSize=36;fontColor=#FF4D0D;strokeColor=none;strokeWidth=5;fillColor=#DBDBDB;gradientColor=none;gradientDirection=radial;align=left;rotation=30;opacity=50;" vertex="1" parent="1">
          <mxGeometry x="-700" y="1061.5" width="897.44" height="390.72" as="geometry" />
        </mxCell>
        <mxCell id="wLxNe06kuUfHXLHcYYkg-4" value="" style="verticalLabelPosition=bottom;html=1;verticalAlign=top;strokeWidth=1;dashed=0;shape=mxgraph.aws3d.flatDoubleEdge;fillColor=#000000;aspect=fixed;rounded=1;shadow=0;comic=0;fontFamily=Verdana;fontSize=12;flipV=1;rotation=60;" vertex="1" parent="1">
          <mxGeometry x="-606.4699999999999" y="1010" width="736.57" height="420.08" as="geometry" />
        </mxCell>
        <mxCell id="wLxNe06kuUfHXLHcYYkg-5" value="&lt;span style=&quot;font-size: 30px&quot;&gt;&lt;b&gt;&lt;font color=&quot;#ffffff&quot;&gt;Auto &lt;br&gt;Scaling&lt;/font&gt;&lt;/b&gt;&lt;/span&gt;" style="text;html=1;align=center;verticalAlign=middle;resizable=0;points=[];autosize=1;strokeColor=none;fillColor=none;rotation=30;" vertex="1" parent="1">
          <mxGeometry x="-289.40000000000003" y="1204" width="120" height="50" as="geometry" />
        </mxCell>
        <mxCell id="wLxNe06kuUfHXLHcYYkg-6" value="" style="verticalLabelPosition=bottom;html=1;verticalAlign=top;strokeWidth=1;dashed=0;shape=mxgraph.aws3d.flatDoubleEdge;fillColor=#000000;aspect=fixed;rounded=1;shadow=0;comic=0;fontFamily=Verdana;fontSize=12;flipV=1;rotation=60;" vertex="1" parent="1">
          <mxGeometry x="-122.62" y="500.00000000000006" width="1002.62" height="571.81" as="geometry" />
        </mxCell>
        <mxCell id="wLxNe06kuUfHXLHcYYkg-7" value="&lt;font style=&quot;font-size: 72px&quot;&gt;AWS Architecture Diagram&lt;/font&gt;" style="text;html=1;align=center;verticalAlign=middle;resizable=0;points=[];autosize=1;fontSize=22;rounded=0;" vertex="1" parent="1">
          <mxGeometry x="-1117.2" y="70" width="870" height="50" as="geometry" />
        </mxCell>
        <mxCell id="wLxNe06kuUfHXLHcYYkg-8" value="" style="edgeStyle=isometricEdgeStyle;endArrow=none;html=1;labelBackgroundColor=none;strokeWidth=5;fontFamily=Verdana;fontSize=12" edge="1" parent="1" target="wLxNe06kuUfHXLHcYYkg-19">
          <mxGeometry width="50" height="100" relative="1" as="geometry">
            <mxPoint x="-408.76" y="1360.0000000000005" as="sourcePoint" />
            <mxPoint x="-498.76" y="1120" as="targetPoint" />
            <Array as="points">
              <mxPoint x="-458.76" y="1260" />
            </Array>
          </mxGeometry>
        </mxCell>
        <mxCell id="wLxNe06kuUfHXLHcYYkg-9" value="" style="verticalLabelPosition=bottom;html=1;verticalAlign=top;strokeWidth=1;align=center;outlineConnect=0;dashed=0;outlineConnect=0;shape=mxgraph.aws3d.route53;fillColor=#ECECEC;strokeColor=#5E5E5E;aspect=fixed;rounded=0;fontSize=32;" vertex="1" parent="1">
          <mxGeometry x="-1020" y="1330" width="114.21" height="131" as="geometry" />
        </mxCell>
        <mxCell id="wLxNe06kuUfHXLHcYYkg-10" value="&lt;font style=&quot;font-size: 30px&quot;&gt;&lt;b&gt;Route 53&lt;/b&gt;&lt;/font&gt;" style="text;html=1;align=center;verticalAlign=middle;resizable=0;points=[];autosize=1;strokeColor=none;fillColor=none;rotation=35;fontColor=#CCCC00;" vertex="1" parent="1">
          <mxGeometry x="-1070" y="1457.5" width="140" height="30" as="geometry" />
        </mxCell>
        <mxCell id="wLxNe06kuUfHXLHcYYkg-11" value="&lt;font color=&quot;#cccc00&quot;&gt;&lt;font size=&quot;1&quot;&gt;&lt;b style=&quot;font-size: 30px&quot;&gt;Users&lt;/b&gt;&lt;/font&gt;&lt;br&gt;&lt;/font&gt;" style="text;html=1;align=center;verticalAlign=middle;resizable=0;points=[];autosize=1;strokeColor=none;fillColor=none;rotation=30;" vertex="1" parent="1">
          <mxGeometry x="-745" y="1590" width="100" height="30" as="geometry" />
        </mxCell>
        <mxCell id="wLxNe06kuUfHXLHcYYkg-12" value="" style="verticalLabelPosition=bottom;html=1;verticalAlign=top;strokeWidth=1;align=center;outlineConnect=0;dashed=0;outlineConnect=0;shape=mxgraph.aws3d.end_user;strokeColor=none;fillColor=#777777;aspect=fixed;rounded=0;fontSize=42;" vertex="1" parent="1">
          <mxGeometry x="-710" y="1480" width="55.6" height="114" as="geometry" />
        </mxCell>
        <mxCell id="wLxNe06kuUfHXLHcYYkg-13" value="" style="edgeStyle=isometricEdgeStyle;endArrow=none;html=1;labelBackgroundColor=none;strokeWidth=5;fontFamily=Verdana;fontSize=12" edge="1" parent="1">
          <mxGeometry width="50" height="100" relative="1" as="geometry">
            <mxPoint x="-914.94" y="1429.77" as="sourcePoint" />
            <mxPoint x="-720.94" y="1539.77" as="targetPoint" />
            <Array as="points">
              <mxPoint x="-874.94" y="1449.77" />
              <mxPoint x="-814.94" y="1479.77" />
              <mxPoint x="-607.79" y="1991.94" />
            </Array>
          </mxGeometry>
        </mxCell>
        <mxCell id="wLxNe06kuUfHXLHcYYkg-14" value="1" style="ellipse;whiteSpace=wrap;html=1;aspect=fixed;strokeWidth=10;fontFamily=Tahoma;spacingBottom=4;spacingRight=2;strokeColor=#3819FF;rounded=0;fontSize=42;rotation=-30;" vertex="1" parent="1">
          <mxGeometry x="-1130" y="1239" width="50" height="50" as="geometry" />
        </mxCell>
        <mxCell id="wLxNe06kuUfHXLHcYYkg-15" value="&lt;font color=&quot;#3819ff&quot; size=&quot;1&quot;&gt;&lt;b style=&quot;font-size: 30px&quot;&gt;DNS Resoluation&lt;/b&gt;&lt;/font&gt;" style="text;html=1;align=center;verticalAlign=middle;resizable=0;points=[];autosize=1;strokeColor=none;fillColor=none;rotation=-30;" vertex="1" parent="1">
          <mxGeometry x="-1169" y="1280" width="260" height="30" as="geometry" />
        </mxCell>
        <mxCell id="wLxNe06kuUfHXLHcYYkg-16" value="" style="verticalLabelPosition=bottom;html=1;verticalAlign=top;strokeWidth=1;align=center;outlineConnect=0;dashed=0;outlineConnect=0;shape=mxgraph.aws3d.elasticLoadBalancing;fillColor=#ECECEC;strokeColor=#5E5E5E;aspect=fixed;rounded=0;fontSize=42;" vertex="1" parent="1">
          <mxGeometry x="-529.9999999999999" y="1340" width="117.38" height="112.5" as="geometry" />
        </mxCell>
        <mxCell id="wLxNe06kuUfHXLHcYYkg-17" value="&lt;font color=&quot;#cccc00&quot;&gt;&lt;font style=&quot;font-size: 30px&quot;&gt;&lt;b&gt;Load Balancer&lt;/b&gt;&lt;/font&gt;&lt;br&gt;&lt;/font&gt;" style="text;html=1;align=center;verticalAlign=middle;resizable=0;points=[];autosize=1;strokeColor=none;fillColor=none;rotation=30;" vertex="1" parent="1">
          <mxGeometry x="-530" y="1510" width="220" height="30" as="geometry" />
        </mxCell>
        <mxCell id="wLxNe06kuUfHXLHcYYkg-18" value="" style="edgeStyle=isometricEdgeStyle;endArrow=none;html=1;labelBackgroundColor=none;strokeWidth=5;fontFamily=Verdana;fontSize=12" edge="1" parent="1" source="wLxNe06kuUfHXLHcYYkg-16" target="wLxNe06kuUfHXLHcYYkg-25">
          <mxGeometry width="50" height="100" relative="1" as="geometry">
            <mxPoint x="-198.76000000000022" y="1384.0000000000005" as="sourcePoint" />
            <mxPoint y="1410" as="targetPoint" />
            <Array as="points">
              <mxPoint x="-250" y="1380" />
            </Array>
          </mxGeometry>
        </mxCell>
        <mxCell id="wLxNe06kuUfHXLHcYYkg-19" value="" style="verticalLabelPosition=bottom;html=1;verticalAlign=top;strokeWidth=1;align=center;outlineConnect=0;dashed=0;outlineConnect=0;shape=mxgraph.aws3d.application_server;fillColor=#ECECEC;strokeColor=#5E5E5E;aspect=fixed;rounded=0;fontSize=20;fontColor=#3819FF;opacity=30;" vertex="1" parent="1">
          <mxGeometry x="-515.6199999999999" y="1020" width="123" height="124" as="geometry" />
        </mxCell>
        <mxCell id="wLxNe06kuUfHXLHcYYkg-20" value="&lt;font color=&quot;#cccc00&quot;&gt;&lt;font style=&quot;font-size: 30px&quot;&gt;&lt;b&gt;Web Servers&lt;/b&gt;&lt;/font&gt;&lt;br&gt;&lt;/font&gt;" style="text;html=1;align=center;verticalAlign=middle;resizable=0;points=[];autosize=1;strokeColor=none;fillColor=none;rotation=30;" vertex="1" parent="1">
          <mxGeometry x="-400" y="1259" width="200" height="30" as="geometry" />
        </mxCell>
        <mxCell id="wLxNe06kuUfHXLHcYYkg-21" value="2" style="ellipse;whiteSpace=wrap;html=1;aspect=fixed;strokeWidth=10;fontFamily=Tahoma;spacingBottom=4;spacingRight=2;strokeColor=#3819FF;rounded=0;fontSize=42;rotation=-30;" vertex="1" parent="1">
          <mxGeometry x="-720" y="1290" width="50" height="50" as="geometry" />
        </mxCell>
        <mxCell id="wLxNe06kuUfHXLHcYYkg-22" value="&lt;font color=&quot;#3819ff&quot;&gt;&lt;span style=&quot;font-size: 30px&quot;&gt;&lt;b&gt;Load Balancing&lt;/b&gt;&lt;/span&gt;&lt;/font&gt;" style="text;html=1;align=center;verticalAlign=middle;resizable=0;points=[];autosize=1;strokeColor=none;fillColor=none;rotation=-30;" vertex="1" parent="1">
          <mxGeometry x="-705" y="1310" width="240" height="30" as="geometry" />
        </mxCell>
        <mxCell id="wLxNe06kuUfHXLHcYYkg-23" value="" style="verticalLabelPosition=bottom;html=1;verticalAlign=top;strokeWidth=1;align=center;outlineConnect=0;dashed=0;outlineConnect=0;shape=mxgraph.aws3d.application_server;fillColor=#ECECEC;strokeColor=#5E5E5E;aspect=fixed;rounded=0;fontSize=20;fontColor=#3819FF;" vertex="1" parent="1">
          <mxGeometry x="-421.18" y="1080" width="123" height="124" as="geometry" />
        </mxCell>
        <mxCell id="wLxNe06kuUfHXLHcYYkg-24" value="" style="verticalLabelPosition=bottom;html=1;verticalAlign=top;strokeWidth=1;align=center;outlineConnect=0;dashed=0;outlineConnect=0;shape=mxgraph.aws3d.application_server;fillColor=#ECECEC;strokeColor=#5E5E5E;aspect=fixed;rounded=0;fontSize=20;fontColor=#3819FF;" vertex="1" parent="1">
          <mxGeometry x="-160" y="1216" width="123" height="124" as="geometry" />
        </mxCell>
        <mxCell id="wLxNe06kuUfHXLHcYYkg-25" value="" style="verticalLabelPosition=bottom;html=1;verticalAlign=top;strokeWidth=1;align=center;outlineConnect=0;dashed=0;outlineConnect=0;shape=mxgraph.aws3d.application_server;fillColor=#ECECEC;strokeColor=#5E5E5E;aspect=fixed;rounded=0;fontSize=20;fontColor=#3819FF;opacity=30;" vertex="1" parent="1">
          <mxGeometry x="-70" y="1279" width="123" height="124" as="geometry" />
        </mxCell>
        <mxCell id="wLxNe06kuUfHXLHcYYkg-26" value="" style="edgeStyle=isometricEdgeStyle;endArrow=none;html=1;labelBackgroundColor=none;strokeWidth=5;fontFamily=Verdana;fontSize=12" edge="1" parent="1" target="wLxNe06kuUfHXLHcYYkg-23">
          <mxGeometry width="50" height="100" relative="1" as="geometry">
            <mxPoint x="-510" y="1230" as="sourcePoint" />
            <mxPoint x="-420" y="1160" as="targetPoint" />
            <Array as="points" />
          </mxGeometry>
        </mxCell>
        <mxCell id="wLxNe06kuUfHXLHcYYkg-27" value="" style="edgeStyle=isometricEdgeStyle;endArrow=none;html=1;labelBackgroundColor=none;strokeWidth=5;fontFamily=Verdana;fontSize=12" edge="1" parent="1">
          <mxGeometry width="50" height="100" relative="1" as="geometry">
            <mxPoint x="-240" y="1380" as="sourcePoint" />
            <mxPoint x="-140" y="1320" as="targetPoint" />
            <Array as="points" />
          </mxGeometry>
        </mxCell>
        <mxCell id="wLxNe06kuUfHXLHcYYkg-28" value="" style="edgeStyle=isometricEdgeStyle;endArrow=none;html=1;labelBackgroundColor=none;strokeWidth=5;fontFamily=Verdana;fontSize=12" edge="1" parent="1" source="wLxNe06kuUfHXLHcYYkg-25">
          <mxGeometry width="50" height="100" relative="1" as="geometry">
            <mxPoint x="-189.99999999999977" y="1028.9753127012614" as="sourcePoint" />
            <mxPoint x="60" y="1020" as="targetPoint" />
            <Array as="points">
              <mxPoint y="1200" />
              <mxPoint x="-150" y="1090" />
              <mxPoint x="-120" y="1110" />
              <mxPoint x="-110" y="1090" />
              <mxPoint x="-170" y="1080" />
              <mxPoint x="30" y="1110" />
            </Array>
          </mxGeometry>
        </mxCell>
        <mxCell id="wLxNe06kuUfHXLHcYYkg-29" value="" style="edgeStyle=isometricEdgeStyle;endArrow=none;html=1;labelBackgroundColor=none;strokeWidth=5;fontFamily=Verdana;fontSize=12" edge="1" parent="1" source="wLxNe06kuUfHXLHcYYkg-19">
          <mxGeometry width="50" height="100" relative="1" as="geometry">
            <mxPoint x="-178.17000000000021" y="1102.4900000000005" as="sourcePoint" />
            <mxPoint x="60" y="1020" as="targetPoint" />
            <Array as="points">
              <mxPoint x="-220" y="1070" />
            </Array>
          </mxGeometry>
        </mxCell>
        <mxCell id="wLxNe06kuUfHXLHcYYkg-30" value="" style="edgeStyle=isometricEdgeStyle;endArrow=none;html=1;labelBackgroundColor=none;strokeWidth=5;fontFamily=Verdana;fontSize=12" edge="1" parent="1">
          <mxGeometry width="50" height="100" relative="1" as="geometry">
            <mxPoint x="-320" y="1102.49" as="sourcePoint" />
            <mxPoint x="-250" y="1060" as="targetPoint" />
            <Array as="points" />
          </mxGeometry>
        </mxCell>
        <mxCell id="wLxNe06kuUfHXLHcYYkg-31" value="" style="edgeStyle=isometricEdgeStyle;endArrow=none;html=1;labelBackgroundColor=none;strokeWidth=5;fontFamily=Verdana;fontSize=12" edge="1" parent="1">
          <mxGeometry width="50" height="100" relative="1" as="geometry">
            <mxPoint x="-50" y="1240.4900000000002" as="sourcePoint" />
            <mxPoint y="1210" as="targetPoint" />
            <Array as="points" />
          </mxGeometry>
        </mxCell>
        <mxCell id="wLxNe06kuUfHXLHcYYkg-32" value="" style="verticalLabelPosition=bottom;html=1;verticalAlign=top;strokeWidth=1;dashed=0;shape=mxgraph.aws3d.dashedArrowlessEdge;aspect=fixed;rounded=1;shadow=0;comic=0;fontFamily=Verdana;fontSize=12" vertex="1" parent="1">
          <mxGeometry x="-1160" y="492.34" width="2026.3" height="1154.66" as="geometry" />
        </mxCell>
        <mxCell id="wLxNe06kuUfHXLHcYYkg-33" value="" style="verticalLabelPosition=bottom;html=1;verticalAlign=top;strokeWidth=1;dashed=0;shape=mxgraph.aws3d.dashedArrowlessEdge;aspect=fixed;rounded=1;shadow=0;comic=0;fontFamily=Verdana;fontSize=12" vertex="1" parent="1">
          <mxGeometry x="-1130" y="1169.25" width="831.82" height="474" as="geometry" />
        </mxCell>
        <mxCell id="wLxNe06kuUfHXLHcYYkg-34" value="" style="edgeStyle=isometricEdgeStyle;endArrow=none;html=1;labelBackgroundColor=none;strokeWidth=5;fontFamily=Verdana;fontSize=12" edge="1" parent="1">
          <mxGeometry width="50" height="100" relative="1" as="geometry">
            <mxPoint x="-650" y="1520" as="sourcePoint" />
            <mxPoint x="-510" y="1440" as="targetPoint" />
            <Array as="points" />
          </mxGeometry>
        </mxCell>
        <mxCell id="wLxNe06kuUfHXLHcYYkg-35" value="3" style="ellipse;whiteSpace=wrap;html=1;aspect=fixed;strokeWidth=10;fontFamily=Tahoma;spacingBottom=4;spacingRight=2;strokeColor=#3819FF;rounded=0;fontSize=42;rotation=-30;" vertex="1" parent="1">
          <mxGeometry x="-654.4" y="970" width="50" height="50" as="geometry" />
        </mxCell>
        <mxCell id="wLxNe06kuUfHXLHcYYkg-36" value="&lt;font color=&quot;#3819ff&quot;&gt;&lt;span style=&quot;font-size: 30px&quot;&gt;&lt;b&gt;Load Static Content&lt;br&gt;&lt;/b&gt;&lt;/span&gt;&lt;/font&gt;" style="text;html=1;align=center;verticalAlign=middle;resizable=0;points=[];autosize=1;strokeColor=none;fillColor=none;rotation=-30;" vertex="1" parent="1">
          <mxGeometry x="-680" y="1002.5" width="300" height="30" as="geometry" />
        </mxCell>
        <mxCell id="wLxNe06kuUfHXLHcYYkg-37" value="" style="edgeStyle=isometricEdgeStyle;endArrow=none;html=1;labelBackgroundColor=none;strokeWidth=5;fontFamily=Verdana;fontSize=12" edge="1" parent="1" target="wLxNe06kuUfHXLHcYYkg-40">
          <mxGeometry width="50" height="100" relative="1" as="geometry">
            <mxPoint x="141.8299999999998" y="932.4900000000005" as="sourcePoint" />
            <mxPoint x="-230" y="530" as="targetPoint" />
            <Array as="points">
              <mxPoint x="91.83000000000004" y="832.49" />
            </Array>
          </mxGeometry>
        </mxCell>
        <mxCell id="wLxNe06kuUfHXLHcYYkg-38" value="" style="verticalLabelPosition=bottom;html=1;verticalAlign=top;strokeWidth=1;dashed=0;shape=mxgraph.aws3d.dashedArrowlessEdge;aspect=fixed;rounded=1;shadow=0;comic=0;fontFamily=Verdana;fontSize=12" vertex="1" parent="1">
          <mxGeometry x="-230" width="1386.36" height="790" as="geometry" />
        </mxCell>
        <mxCell id="wLxNe06kuUfHXLHcYYkg-39" value="" style="edgeStyle=isometricEdgeStyle;endArrow=none;html=1;labelBackgroundColor=none;strokeWidth=5;fontFamily=Verdana;fontSize=12" edge="1" parent="1" target="wLxNe06kuUfHXLHcYYkg-41">
          <mxGeometry width="50" height="100" relative="1" as="geometry">
            <mxPoint x="140.0000000000001" y="934.6453127012612" as="sourcePoint" />
            <mxPoint x="870" y="1140" as="targetPoint" />
            <Array as="points">
              <mxPoint x="302.62" y="952.28" />
            </Array>
          </mxGeometry>
        </mxCell>
        <mxCell id="wLxNe06kuUfHXLHcYYkg-40" value="" style="verticalLabelPosition=bottom;html=1;verticalAlign=top;strokeWidth=1;align=center;outlineConnect=0;dashed=0;outlineConnect=0;shape=mxgraph.aws3d.application_server;fillColor=#ECECEC;strokeColor=#5E5E5E;aspect=fixed;rounded=0;fontSize=20;fontColor=#3819FF;opacity=30;" vertex="1" parent="1">
          <mxGeometry x="19.999999999999993" y="532.5" width="123" height="124" as="geometry" />
        </mxCell>
        <mxCell id="wLxNe06kuUfHXLHcYYkg-41" value="" style="verticalLabelPosition=bottom;html=1;verticalAlign=top;strokeWidth=1;align=center;outlineConnect=0;dashed=0;outlineConnect=0;shape=mxgraph.aws3d.application_server;fillColor=#ECECEC;strokeColor=#5E5E5E;aspect=fixed;rounded=0;fontSize=20;fontColor=#3819FF;opacity=30;" vertex="1" parent="1">
          <mxGeometry x="593.3" y="878.5" width="123" height="124" as="geometry" />
        </mxCell>
        <mxCell id="wLxNe06kuUfHXLHcYYkg-42" value="" style="verticalLabelPosition=bottom;html=1;verticalAlign=top;strokeWidth=1;align=center;outlineConnect=0;dashed=0;outlineConnect=0;shape=mxgraph.aws3d.application_server;fillColor=#ECECEC;strokeColor=#5E5E5E;aspect=fixed;rounded=0;fontSize=20;fontColor=#3819FF;" vertex="1" parent="1">
          <mxGeometry x="119.99999999999994" y="590" width="123" height="124" as="geometry" />
        </mxCell>
        <mxCell id="wLxNe06kuUfHXLHcYYkg-43" value="" style="verticalLabelPosition=bottom;html=1;verticalAlign=top;strokeWidth=1;align=center;outlineConnect=0;dashed=0;outlineConnect=0;shape=mxgraph.aws3d.application_server;fillColor=#ECECEC;strokeColor=#5E5E5E;aspect=fixed;rounded=0;fontSize=20;fontColor=#3819FF;" vertex="1" parent="1">
          <mxGeometry x="489.29999999999995" y="810" width="123" height="124" as="geometry" />
        </mxCell>
        <mxCell id="wLxNe06kuUfHXLHcYYkg-44" value="" style="edgeStyle=isometricEdgeStyle;endArrow=none;html=1;labelBackgroundColor=none;strokeWidth=5;fontFamily=Verdana;fontSize=12" edge="1" parent="1" target="wLxNe06kuUfHXLHcYYkg-42">
          <mxGeometry width="50" height="100" relative="1" as="geometry">
            <mxPoint x="-20" y="770" as="sourcePoint" />
            <mxPoint x="120" y="690" as="targetPoint" />
            <Array as="points" />
          </mxGeometry>
        </mxCell>
        <mxCell id="wLxNe06kuUfHXLHcYYkg-45" value="" style="edgeStyle=isometricEdgeStyle;endArrow=none;html=1;labelBackgroundColor=none;strokeWidth=5;fontFamily=Verdana;fontSize=12" edge="1" parent="1">
          <mxGeometry width="50" height="100" relative="1" as="geometry">
            <mxPoint x="349.3" y="980.5" as="sourcePoint" />
            <mxPoint x="489.3" y="900.5" as="targetPoint" />
            <Array as="points" />
          </mxGeometry>
        </mxCell>
        <mxCell id="wLxNe06kuUfHXLHcYYkg-46" value="&lt;font color=&quot;#cccc00&quot;&gt;&lt;span style=&quot;font-size: 30px&quot;&gt;&lt;b&gt;Web Application Servers&lt;/b&gt;&lt;/span&gt;&lt;br&gt;&lt;/font&gt;" style="text;html=1;align=center;verticalAlign=middle;resizable=0;points=[];autosize=1;strokeColor=none;fillColor=none;rotation=30;" vertex="1" parent="1">
          <mxGeometry x="89.99999999999997" y="800" width="370" height="30" as="geometry" />
        </mxCell>
        <mxCell id="wLxNe06kuUfHXLHcYYkg-47" value="4" style="ellipse;whiteSpace=wrap;html=1;aspect=fixed;strokeWidth=10;fontFamily=Tahoma;spacingBottom=4;spacingRight=2;strokeColor=#3819FF;rounded=0;fontSize=42;rotation=-30;" vertex="1" parent="1">
          <mxGeometry x="-254.39999999999998" y="500" width="50" height="50" as="geometry" />
        </mxCell>
        <mxCell id="wLxNe06kuUfHXLHcYYkg-48" value="&lt;font color=&quot;#3819ff&quot;&gt;&lt;span style=&quot;font-size: 30px&quot;&gt;&lt;b&gt;Execute Business Logic&lt;/b&gt;&lt;/span&gt;&lt;br&gt;&lt;/font&gt;" style="text;html=1;align=center;verticalAlign=middle;resizable=0;points=[];autosize=1;strokeColor=none;fillColor=none;rotation=-30;" vertex="1" parent="1">
          <mxGeometry x="-310" y="532.5" width="360" height="30" as="geometry" />
        </mxCell>
        <mxCell id="wLxNe06kuUfHXLHcYYkg-49" value="&lt;font color=&quot;#cccc00&quot;&gt;&lt;span style=&quot;font-size: 30px&quot;&gt;&lt;b&gt;Database Server&lt;/b&gt;&lt;/span&gt;&lt;br&gt;&lt;/font&gt;" style="text;html=1;align=center;verticalAlign=middle;resizable=0;points=[];autosize=1;strokeColor=none;fillColor=none;rotation=30;" vertex="1" parent="1">
          <mxGeometry x="880" y="240" width="250" height="30" as="geometry" />
        </mxCell>
        <mxCell id="wLxNe06kuUfHXLHcYYkg-50" value="" style="edgeStyle=isometricEdgeStyle;endArrow=none;html=1;labelBackgroundColor=none;strokeWidth=5;fontFamily=Verdana;fontSize=12;entryX=0.238;entryY=0.87;entryDx=0;entryDy=0;entryPerimeter=0;" edge="1" parent="1" source="wLxNe06kuUfHXLHcYYkg-41" target="wLxNe06kuUfHXLHcYYkg-56">
          <mxGeometry width="50" height="100" relative="1" as="geometry">
            <mxPoint x="741.18" y="637.0729584448383" as="sourcePoint" />
            <mxPoint x="820" y="460" as="targetPoint" />
            <Array as="points">
              <mxPoint x="710" y="640" />
              <mxPoint x="538.18" y="421.58000000000004" />
              <mxPoint x="568.18" y="441.58000000000004" />
              <mxPoint x="578.18" y="421.58000000000004" />
              <mxPoint x="518.18" y="411.58000000000004" />
              <mxPoint x="718.18" y="441.58000000000004" />
            </Array>
          </mxGeometry>
        </mxCell>
        <mxCell id="wLxNe06kuUfHXLHcYYkg-51" value="" style="edgeStyle=isometricEdgeStyle;endArrow=none;html=1;labelBackgroundColor=none;strokeWidth=5;fontFamily=Verdana;fontSize=12;entryX=0.223;entryY=0.871;entryDx=0;entryDy=0;entryPerimeter=0;" edge="1" parent="1" source="wLxNe06kuUfHXLHcYYkg-40" target="wLxNe06kuUfHXLHcYYkg-56">
          <mxGeometry width="50" height="100" relative="1" as="geometry">
            <mxPoint x="295.5600000000005" y="378.07295844483826" as="sourcePoint" />
            <mxPoint x="748.18" y="351.58000000000004" as="targetPoint" />
            <Array as="points">
              <mxPoint x="490" y="510" />
            </Array>
          </mxGeometry>
        </mxCell>
        <mxCell id="wLxNe06kuUfHXLHcYYkg-52" value="" style="edgeStyle=isometricEdgeStyle;endArrow=none;html=1;labelBackgroundColor=none;strokeWidth=5;fontFamily=Verdana;fontSize=12" edge="1" parent="1" source="wLxNe06kuUfHXLHcYYkg-42">
          <mxGeometry width="50" height="100" relative="1" as="geometry">
            <mxPoint x="368.17999999999995" y="434.0699999999998" as="sourcePoint" />
            <mxPoint x="460" y="490" as="targetPoint" />
            <Array as="points" />
          </mxGeometry>
        </mxCell>
        <mxCell id="wLxNe06kuUfHXLHcYYkg-53" value="" style="edgeStyle=isometricEdgeStyle;endArrow=none;html=1;labelBackgroundColor=none;strokeWidth=5;fontFamily=Verdana;fontSize=12" edge="1" parent="1" source="wLxNe06kuUfHXLHcYYkg-43">
          <mxGeometry width="50" height="100" relative="1" as="geometry">
            <mxPoint x="638.18" y="572.0700000000003" as="sourcePoint" />
            <mxPoint x="830" y="710" as="targetPoint" />
            <Array as="points" />
          </mxGeometry>
        </mxCell>
        <mxCell id="wLxNe06kuUfHXLHcYYkg-54" value="5" style="ellipse;whiteSpace=wrap;html=1;aspect=fixed;strokeWidth=10;fontFamily=Tahoma;spacingBottom=4;spacingRight=2;strokeColor=#3819FF;rounded=0;fontSize=42;rotation=-30;" vertex="1" parent="1">
          <mxGeometry x="345.6" y="160" width="50" height="50" as="geometry" />
        </mxCell>
        <mxCell id="wLxNe06kuUfHXLHcYYkg-55" value="&lt;font color=&quot;#3819ff&quot;&gt;&lt;span style=&quot;font-size: 30px&quot;&gt;&lt;b&gt;Execute Transaction&lt;/b&gt;&lt;/span&gt;&lt;br&gt;&lt;/font&gt;" style="text;html=1;align=center;verticalAlign=middle;resizable=0;points=[];autosize=1;strokeColor=none;fillColor=none;rotation=-30;" vertex="1" parent="1">
          <mxGeometry x="327.3" y="190" width="310" height="30" as="geometry" />
        </mxCell>
        <mxCell id="wLxNe06kuUfHXLHcYYkg-56" value="" style="verticalLabelPosition=bottom;html=1;verticalAlign=top;strokeWidth=1;align=center;outlineConnect=0;dashed=0;outlineConnect=0;shape=mxgraph.aws3d.application_server;fillColor=#ECECEC;strokeColor=#5E5E5E;aspect=fixed;rounded=0;fontSize=20;fontColor=#3819FF;" vertex="1" parent="1">
          <mxGeometry x="780" y="250" width="228.15" height="230" as="geometry" />
        </mxCell>
        <mxCell id="wLxNe06kuUfHXLHcYYkg-57" value="" style="strokeWidth=5;html=1;shape=mxgraph.flowchart.database;whiteSpace=wrap;rounded=0;fontSize=72;fontColor=#3819FF;" vertex="1" parent="1">
          <mxGeometry x="955" y="320" width="100" height="123" as="geometry" />
        </mxCell>
        <mxCell id="wLxNe06kuUfHXLHcYYkg-58" value="&lt;span style=&quot;font-size: 30px&quot;&gt;&lt;b&gt;&lt;font color=&quot;#ffffff&quot;&gt;Auto &lt;br&gt;Scaling&lt;/font&gt;&lt;/b&gt;&lt;/span&gt;" style="text;html=1;align=center;verticalAlign=middle;resizable=0;points=[];autosize=1;strokeColor=none;fillColor=none;rotation=30;" vertex="1" parent="1">
          <mxGeometry x="310.59999999999997" y="750" width="120" height="50" as="geometry" />
        </mxCell>
        <mxCell id="wLxNe06kuUfHXLHcYYkg-59" value="&lt;font&gt;&lt;b&gt;&lt;span style=&quot;font-size: 40px&quot;&gt;Web &lt;br&gt;Servers&lt;/span&gt;&lt;br&gt;&lt;/b&gt;&lt;/font&gt;" style="text;html=1;align=center;verticalAlign=middle;resizable=0;points=[];autosize=1;strokeColor=none;fillColor=none;rotation=30;shadow=0;sketch=0;rounded=0;glass=0;labelBorderColor=none;labelBackgroundColor=none;fontColor=#FF4D0D;" vertex="1" parent="1">
          <mxGeometry x="-88.5" y="1530" width="160" height="50" as="geometry" />
        </mxCell>
        <mxCell id="wLxNe06kuUfHXLHcYYkg-60" value="&lt;font&gt;&lt;b&gt;&lt;span style=&quot;font-size: 40px&quot;&gt;Application &lt;br&gt;Servers&lt;/span&gt;&lt;br&gt;&lt;/b&gt;&lt;/font&gt;" style="text;html=1;align=center;verticalAlign=middle;resizable=0;points=[];autosize=1;strokeColor=none;fillColor=none;rotation=30;shadow=0;sketch=0;rounded=0;glass=0;labelBorderColor=none;labelBackgroundColor=none;fontColor=#FF4D0D;" vertex="1" parent="1">
          <mxGeometry x="585.0000000000001" y="1130" width="230" height="50" as="geometry" />
        </mxCell>
        <mxCell id="wLxNe06kuUfHXLHcYYkg-61" value="&lt;font&gt;&lt;b&gt;&lt;span style=&quot;font-size: 40px&quot;&gt;Database &lt;br&gt;Servers&lt;/span&gt;&lt;br&gt;&lt;/b&gt;&lt;/font&gt;" style="text;html=1;align=center;verticalAlign=middle;resizable=0;points=[];autosize=1;strokeColor=none;fillColor=none;rotation=30;shadow=0;sketch=0;rounded=0;glass=0;labelBorderColor=none;labelBackgroundColor=none;fontColor=#FF4D0D;" vertex="1" parent="1">
          <mxGeometry x="561.2800000000001" y="260" width="190" height="50" as="geometry" />
        </mxCell>
        <mxCell id="wLxNe06kuUfHXLHcYYkg-62" value="" style="verticalLabelPosition=bottom;html=1;verticalAlign=top;strokeWidth=1;align=center;outlineConnect=0;dashed=0;outlineConnect=0;shape=mxgraph.aws3d.elasticLoadBalancing;fillColor=#ECECEC;strokeColor=#5E5E5E;aspect=fixed;rounded=0;fontSize=42;" vertex="1" parent="1">
          <mxGeometry x="2.4700000000000006" y="910" width="158.07" height="151.5" as="geometry" />
        </mxCell>
        <mxCell id="wLxNe06kuUfHXLHcYYkg-63" value="&lt;font color=&quot;#cccc00&quot;&gt;&lt;font style=&quot;font-size: 30px&quot;&gt;&lt;b&gt;Load Balancer&lt;/b&gt;&lt;/font&gt;&lt;br&gt;&lt;/font&gt;" style="text;html=1;align=center;verticalAlign=middle;resizable=0;points=[];autosize=1;strokeColor=none;fillColor=none;rotation=30;" vertex="1" parent="1">
          <mxGeometry x="71.5" y="1114" width="220" height="30" as="geometry" />
        </mxCell>
        <mxCell id="wLxNe06kuUfHXLHcYYkg-64" value="&lt;span style=&quot;font-size: 20px&quot;&gt;Copyright 2021. &lt;br&gt;rojae all rights reserved.&lt;/span&gt;" style="text;html=1;align=left;verticalAlign=middle;resizable=0;points=[];autosize=1;fontSize=22;rounded=0;" vertex="1" parent="1">
          <mxGeometry x="939" y="1590" width="230" height="60" as="geometry" />
        </mxCell>
        <mxCell id="wLxNe06kuUfHXLHcYYkg-65" value="" style="sketch=0;pointerEvents=1;shadow=0;dashed=0;html=1;strokeColor=none;fillColor=#505050;labelPosition=center;verticalLabelPosition=bottom;verticalAlign=top;outlineConnect=0;align=center;shape=mxgraph.office.devices.cell_phone_iphone_proportional;rounded=0;glass=0;labelBackgroundColor=none;labelBorderColor=none;fontSize=36;fontColor=#FF4D0D;rotation=30;opacity=70;" vertex="1" parent="1">
          <mxGeometry x="-560" y="1540" width="30" height="59.5" as="geometry" />
        </mxCell>
        <mxCell id="wLxNe06kuUfHXLHcYYkg-66" value="" style="shape=image;html=1;verticalAlign=top;verticalLabelPosition=bottom;labelBackgroundColor=#ffffff;imageAspect=0;aspect=fixed;image=https://cdn1.iconfinder.com/data/icons/technology-and-hardware-2/200/vector_66_08-128.png;rounded=0;shadow=0;glass=0;labelBorderColor=none;sketch=0;fontSize=36;fontColor=#FF4D0D;strokeColor=#3819FF;strokeWidth=5;fillColor=#DBDBDB;gradientColor=none;gradientDirection=radial;rotation=30;" vertex="1" parent="1">
          <mxGeometry x="-630" y="1521.5" width="58.5" height="58.5" as="geometry" />
        </mxCell>
      </root>
    </mxGraphModel>
  </diagram>
  <diagram id="DI4AF6yqvbDIJehBrhO9" name="Network Diagram">
    <mxGraphModel dx="2856" dy="1648" grid="1" gridSize="10" guides="1" tooltips="1" connect="1" arrows="1" fold="1" page="1" pageScale="1" pageWidth="827" pageHeight="1169" math="0" shadow="0">
      <root>
        <mxCell id="0" />
        <mxCell id="1" parent="0" />
        <mxCell id="DLxVxTOSVOhKb8zi7Rkx-123" value="" style="rounded=1;whiteSpace=wrap;html=1;shadow=0;glass=0;labelBackgroundColor=none;labelBorderColor=none;sketch=0;fontSize=20;fontColor=#333333;strokeColor=#808080;strokeWidth=2;fillColor=none;gradientColor=none;gradientDirection=radial;align=left;" vertex="1" parent="1">
          <mxGeometry x="206" y="156" width="1723" height="970" as="geometry" />
        </mxCell>
        <mxCell id="DLxVxTOSVOhKb8zi7Rkx-124" value="" style="rounded=1;whiteSpace=wrap;html=1;shadow=0;glass=0;labelBackgroundColor=none;labelBorderColor=none;sketch=0;fontSize=20;fontColor=#333333;strokeColor=#808080;strokeWidth=2;fillColor=none;gradientColor=none;gradientDirection=radial;align=left;" vertex="1" parent="1">
          <mxGeometry x="269" y="210" width="1580" height="846" as="geometry" />
        </mxCell>
        <mxCell id="DLxVxTOSVOhKb8zi7Rkx-125" value="" style="rounded=1;whiteSpace=wrap;html=1;shadow=0;glass=0;labelBackgroundColor=none;labelBorderColor=none;sketch=0;fontSize=20;fontColor=#333333;strokeColor=#808080;strokeWidth=2;fillColor=none;gradientColor=none;gradientDirection=radial;align=left;" vertex="1" parent="1">
          <mxGeometry x="1439" y="292" width="335" height="407" as="geometry" />
        </mxCell>
        <mxCell id="DLxVxTOSVOhKb8zi7Rkx-126" value="" style="rounded=1;whiteSpace=wrap;html=1;shadow=0;glass=0;labelBackgroundColor=none;labelBorderColor=none;sketch=0;fontSize=20;fontColor=#333333;strokeColor=#808080;strokeWidth=2;fillColor=none;gradientColor=none;gradientDirection=radial;align=left;" vertex="1" parent="1">
          <mxGeometry x="1049" y="292" width="335" height="407" as="geometry" />
        </mxCell>
        <mxCell id="DLxVxTOSVOhKb8zi7Rkx-127" value="" style="rounded=1;whiteSpace=wrap;html=1;shadow=0;glass=0;labelBackgroundColor=none;labelBorderColor=none;sketch=0;fontSize=20;fontColor=#333333;strokeColor=#808080;strokeWidth=2;fillColor=none;gradientColor=none;gradientDirection=radial;align=left;" vertex="1" parent="1">
          <mxGeometry x="669" y="296" width="335" height="407" as="geometry" />
        </mxCell>
        <mxCell id="DLxVxTOSVOhKb8zi7Rkx-128" style="edgeStyle=orthogonalEdgeStyle;rounded=0;orthogonalLoop=1;jettySize=auto;html=1;fontSize=20;fontColor=#333333;startArrow=none;startFill=0;endArrow=classic;endFill=1;strokeColor=default;strokeWidth=2;entryX=0;entryY=0.5;entryDx=0;entryDy=0;entryPerimeter=0;" edge="1" parent="1" source="DLxVxTOSVOhKb8zi7Rkx-146" target="DLxVxTOSVOhKb8zi7Rkx-137">
          <mxGeometry relative="1" as="geometry">
            <mxPoint x="448.9999999999998" y="554" as="targetPoint" />
          </mxGeometry>
        </mxCell>
        <mxCell id="DLxVxTOSVOhKb8zi7Rkx-129" value="" style="sketch=0;outlineConnect=0;fontColor=#232F3E;gradientColor=none;fillColor=#232F3D;strokeColor=none;dashed=0;verticalLabelPosition=bottom;verticalAlign=top;align=center;html=1;fontSize=12;fontStyle=0;aspect=fixed;pointerEvents=1;shape=mxgraph.aws4.users;rounded=0;shadow=0;glass=0;labelBackgroundColor=none;labelBorderColor=none;" vertex="1" parent="1">
          <mxGeometry x="66" y="515" width="78" height="78" as="geometry" />
        </mxCell>
        <mxCell id="DLxVxTOSVOhKb8zi7Rkx-130" style="edgeStyle=orthogonalEdgeStyle;rounded=0;orthogonalLoop=1;jettySize=auto;html=1;fontSize=20;fontColor=#333333;startArrow=none;startFill=0;endArrow=classic;endFill=1;strokeColor=default;strokeWidth=2;entryX=0;entryY=0.5;entryDx=0;entryDy=0;" edge="1" parent="1" source="DLxVxTOSVOhKb8zi7Rkx-148" target="DLxVxTOSVOhKb8zi7Rkx-142">
          <mxGeometry relative="1" as="geometry">
            <mxPoint x="438.9999999999998" y="384" as="targetPoint" />
          </mxGeometry>
        </mxCell>
        <mxCell id="DLxVxTOSVOhKb8zi7Rkx-131" value="" style="sketch=0;outlineConnect=0;fontColor=#232F3E;gradientColor=none;fillColor=#232F3D;strokeColor=none;dashed=0;verticalLabelPosition=bottom;verticalAlign=top;align=center;html=1;fontSize=12;fontStyle=0;aspect=fixed;pointerEvents=1;shape=mxgraph.aws4.user;rounded=0;shadow=0;glass=0;labelBackgroundColor=none;labelBorderColor=none;" vertex="1" parent="1">
          <mxGeometry x="66" y="345" width="78" height="78" as="geometry" />
        </mxCell>
        <mxCell id="DLxVxTOSVOhKb8zi7Rkx-132" value="&lt;font style=&quot;font-size: 20px&quot; color=&quot;#333333&quot;&gt;Users&lt;/font&gt;" style="text;html=1;align=center;verticalAlign=middle;resizable=0;points=[];autosize=1;strokeColor=none;fillColor=none;fontSize=36;fontColor=#FF4D0D;" vertex="1" parent="1">
          <mxGeometry x="70" y="585" width="70" height="50" as="geometry" />
        </mxCell>
        <mxCell id="DLxVxTOSVOhKb8zi7Rkx-133" value="&lt;font style=&quot;font-size: 20px&quot; color=&quot;#333333&quot;&gt;Administrator&lt;br&gt;&lt;/font&gt;" style="text;html=1;align=center;verticalAlign=middle;resizable=0;points=[];autosize=1;strokeColor=none;fillColor=none;fontSize=36;fontColor=#FF4D0D;" vertex="1" parent="1">
          <mxGeometry x="40" y="406" width="130" height="50" as="geometry" />
        </mxCell>
        <mxCell id="DLxVxTOSVOhKb8zi7Rkx-134" value="" style="outlineConnect=0;dashed=0;verticalLabelPosition=bottom;verticalAlign=top;align=center;html=1;shape=mxgraph.aws3.virtual_private_cloud;fillColor=#F58534;gradientColor=none;rounded=0;shadow=0;glass=0;labelBackgroundColor=none;labelBorderColor=none;sketch=0;fontSize=20;fontColor=#333333;strokeColor=#3819FF;strokeWidth=5;" vertex="1" parent="1">
          <mxGeometry x="329" y="186" width="79.5" height="54" as="geometry" />
        </mxCell>
        <mxCell id="DLxVxTOSVOhKb8zi7Rkx-135" value="" style="outlineConnect=0;dashed=0;verticalLabelPosition=bottom;verticalAlign=top;align=center;html=1;shape=mxgraph.aws3.cloud_2;fillColor=#F58534;gradientColor=none;rounded=0;shadow=0;glass=0;labelBackgroundColor=none;labelBorderColor=none;sketch=0;fontSize=20;fontColor=#333333;strokeColor=#3819FF;strokeWidth=5;" vertex="1" parent="1">
          <mxGeometry x="254" y="130" width="75" height="75" as="geometry" />
        </mxCell>
        <mxCell id="DLxVxTOSVOhKb8zi7Rkx-136" style="edgeStyle=orthogonalEdgeStyle;rounded=0;orthogonalLoop=1;jettySize=auto;html=1;entryX=0;entryY=0.5;entryDx=0;entryDy=0;fontSize=20;fontColor=#FFFFFF;startArrow=none;startFill=0;endArrow=classic;endFill=1;strokeColor=default;strokeWidth=2;" edge="1" parent="1" source="DLxVxTOSVOhKb8zi7Rkx-137" target="DLxVxTOSVOhKb8zi7Rkx-154">
          <mxGeometry relative="1" as="geometry">
            <Array as="points">
              <mxPoint x="709" y="554" />
              <mxPoint x="709" y="477" />
            </Array>
          </mxGeometry>
        </mxCell>
        <mxCell id="DLxVxTOSVOhKb8zi7Rkx-137" value="" style="outlineConnect=0;dashed=0;verticalLabelPosition=bottom;verticalAlign=top;align=center;html=1;shape=mxgraph.aws3.classic_load_balancer;fillColor=#F58534;gradientColor=none;rounded=0;shadow=0;glass=0;labelBackgroundColor=none;labelBorderColor=none;sketch=0;fontSize=20;fontColor=#333333;strokeColor=#3819FF;strokeWidth=5;" vertex="1" parent="1">
          <mxGeometry x="489" y="518" width="69" height="72" as="geometry" />
        </mxCell>
        <mxCell id="DLxVxTOSVOhKb8zi7Rkx-138" value="" style="fontStyle=0;verticalAlign=top;align=center;spacingTop=-2;fillColor=none;rounded=0;whiteSpace=wrap;html=1;strokeColor=#FF0000;strokeWidth=4;dashed=1;container=1;collapsible=0;expand=0;recursiveResize=0;shadow=0;glass=0;labelBackgroundColor=none;labelBorderColor=none;sketch=0;fontSize=20;fontColor=#333333;" vertex="1" parent="1">
          <mxGeometry x="429" y="296" width="190" height="151" as="geometry" />
        </mxCell>
        <mxCell id="DLxVxTOSVOhKb8zi7Rkx-139" value="&lt;font color=&quot;#000000&quot;&gt;InBound&lt;/font&gt;" style="text;html=1;align=center;verticalAlign=middle;resizable=0;points=[];autosize=1;strokeColor=none;fillColor=none;fontSize=20;fontColor=#FFFFFF;" vertex="1" parent="DLxVxTOSVOhKb8zi7Rkx-138">
          <mxGeometry x="49.5" y="10" width="90" height="30" as="geometry" />
        </mxCell>
        <mxCell id="DLxVxTOSVOhKb8zi7Rkx-140" value="" style="html=1;verticalLabelPosition=bottom;align=center;labelBackgroundColor=#ffffff;verticalAlign=top;strokeWidth=2;strokeColor=none;shadow=0;dashed=0;shape=mxgraph.ios7.icons.cloud;rounded=0;glass=0;labelBorderColor=none;sketch=0;fontSize=20;fontColor=#333333;fillColor=#E8E8E8;gradientDirection=radial;" vertex="1" parent="1">
          <mxGeometry x="66" y="896" width="96" height="70" as="geometry" />
        </mxCell>
        <mxCell id="DLxVxTOSVOhKb8zi7Rkx-141" value="&lt;font style=&quot;font-size: 20px&quot; color=&quot;#333333&quot;&gt;Internet&lt;/font&gt;" style="text;html=1;align=center;verticalAlign=middle;resizable=0;points=[];autosize=1;strokeColor=none;fillColor=none;fontSize=36;fontColor=#FF4D0D;" vertex="1" parent="1">
          <mxGeometry x="74" y="956" width="80" height="50" as="geometry" />
        </mxCell>
        <mxCell id="DLxVxTOSVOhKb8zi7Rkx-142" value="" style="shape=image;verticalLabelPosition=bottom;labelBackgroundColor=#ffffff;verticalAlign=top;aspect=fixed;imageAspect=0;image=https://mpng.subpng.com/20180417/ksq/kisspng-secure-shell-ssh-keygen-computer-servers-computer-shell-5ad620b8944a73.5640200315239825206074.jpg;" vertex="1" parent="1">
          <mxGeometry x="489" y="349" width="70" height="70" as="geometry" />
        </mxCell>
        <mxCell id="DLxVxTOSVOhKb8zi7Rkx-143" value="Amazon EC2&lt;br&gt;Security Group" style="text;html=1;align=center;verticalAlign=middle;resizable=0;points=[];autosize=1;strokeColor=none;fillColor=none;fontSize=20;fontColor=#333333;" vertex="1" parent="1">
          <mxGeometry x="453" y="236" width="150" height="50" as="geometry" />
        </mxCell>
        <mxCell id="DLxVxTOSVOhKb8zi7Rkx-144" value="Elastic Load&lt;br&gt;Balancing Security Group" style="text;html=1;align=center;verticalAlign=middle;resizable=0;points=[];autosize=1;strokeColor=none;fillColor=none;fontSize=20;fontColor=#333333;" vertex="1" parent="1">
          <mxGeometry x="404" y="456" width="240" height="50" as="geometry" />
        </mxCell>
        <mxCell id="DLxVxTOSVOhKb8zi7Rkx-145" value="" style="sketch=0;pointerEvents=1;shadow=0;dashed=0;html=1;strokeColor=none;labelPosition=center;verticalLabelPosition=bottom;verticalAlign=top;outlineConnect=0;align=center;shape=mxgraph.office.security.lock_protected;fillColor=#F58534;rounded=0;glass=0;labelBackgroundColor=none;labelBorderColor=none;fontSize=20;fontColor=#333333;" vertex="1" parent="1">
          <mxGeometry x="719" y="267" width="38" height="52" as="geometry" />
        </mxCell>
        <mxCell id="DLxVxTOSVOhKb8zi7Rkx-146" value="TCP : 443, 80" style="text;html=1;align=center;verticalAlign=middle;resizable=0;points=[];autosize=1;strokeColor=none;fillColor=none;fontSize=20;fontColor=#333333;" vertex="1" parent="1">
          <mxGeometry x="279" y="539" width="140" height="30" as="geometry" />
        </mxCell>
        <mxCell id="DLxVxTOSVOhKb8zi7Rkx-147" value="" style="edgeStyle=orthogonalEdgeStyle;rounded=0;orthogonalLoop=1;jettySize=auto;html=1;fontSize=20;fontColor=#333333;startArrow=none;startFill=0;endArrow=none;endFill=1;strokeColor=default;strokeWidth=2;entryX=0;entryY=0.5;entryDx=0;entryDy=0;entryPerimeter=0;" edge="1" parent="1" source="DLxVxTOSVOhKb8zi7Rkx-129" target="DLxVxTOSVOhKb8zi7Rkx-146">
          <mxGeometry relative="1" as="geometry">
            <mxPoint x="460" y="554" as="targetPoint" />
            <mxPoint x="144" y="554" as="sourcePoint" />
          </mxGeometry>
        </mxCell>
        <mxCell id="DLxVxTOSVOhKb8zi7Rkx-148" value="TCP : 22" style="text;html=1;align=center;verticalAlign=middle;resizable=0;points=[];autosize=1;strokeColor=none;fillColor=none;fontSize=20;fontColor=#333333;" vertex="1" parent="1">
          <mxGeometry x="294" y="369" width="90" height="30" as="geometry" />
        </mxCell>
        <mxCell id="DLxVxTOSVOhKb8zi7Rkx-149" value="" style="edgeStyle=orthogonalEdgeStyle;rounded=0;orthogonalLoop=1;jettySize=auto;html=1;fontSize=20;fontColor=#333333;startArrow=none;startFill=0;endArrow=none;endFill=1;strokeColor=default;strokeWidth=2;entryX=0;entryY=0.5;entryDx=0;entryDy=0;" edge="1" parent="1" source="DLxVxTOSVOhKb8zi7Rkx-131" target="DLxVxTOSVOhKb8zi7Rkx-148">
          <mxGeometry relative="1" as="geometry">
            <mxPoint x="458.9999999999998" y="384" as="targetPoint" />
            <mxPoint x="140.4545454545455" y="384" as="sourcePoint" />
          </mxGeometry>
        </mxCell>
        <mxCell id="DLxVxTOSVOhKb8zi7Rkx-150" value="" style="sketch=0;pointerEvents=1;shadow=0;dashed=0;html=1;strokeColor=none;labelPosition=center;verticalLabelPosition=bottom;verticalAlign=top;outlineConnect=0;align=center;shape=mxgraph.office.security.lock_protected;fillColor=#F58534;rounded=0;glass=0;labelBackgroundColor=none;labelBorderColor=none;fontSize=20;fontColor=#333333;" vertex="1" parent="1">
          <mxGeometry x="1099" y="263" width="38" height="52" as="geometry" />
        </mxCell>
        <mxCell id="DLxVxTOSVOhKb8zi7Rkx-151" value="" style="sketch=0;pointerEvents=1;shadow=0;dashed=0;html=1;strokeColor=none;labelPosition=center;verticalLabelPosition=bottom;verticalAlign=top;outlineConnect=0;align=center;shape=mxgraph.office.security.lock_protected;fillColor=#F58534;rounded=0;glass=0;labelBackgroundColor=none;labelBorderColor=none;fontSize=20;fontColor=#333333;" vertex="1" parent="1">
          <mxGeometry x="1489" y="263" width="38" height="52" as="geometry" />
        </mxCell>
        <mxCell id="DLxVxTOSVOhKb8zi7Rkx-152" style="edgeStyle=orthogonalEdgeStyle;rounded=0;orthogonalLoop=1;jettySize=auto;html=1;entryX=0;entryY=0.5;entryDx=0;entryDy=0;fontSize=20;fontColor=#FFFFFF;startArrow=none;startFill=0;endArrow=classic;endFill=1;strokeColor=default;strokeWidth=2;" edge="1" parent="1" source="DLxVxTOSVOhKb8zi7Rkx-154" target="DLxVxTOSVOhKb8zi7Rkx-157">
          <mxGeometry relative="1" as="geometry" />
        </mxCell>
        <mxCell id="DLxVxTOSVOhKb8zi7Rkx-153" style="edgeStyle=orthogonalEdgeStyle;rounded=0;orthogonalLoop=1;jettySize=auto;html=1;entryX=0.12;entryY=-0.02;entryDx=0;entryDy=0;entryPerimeter=0;fontSize=20;fontColor=#000000;startArrow=none;startFill=0;endArrow=classic;endFill=1;strokeColor=default;strokeWidth=2;" edge="1" parent="1" source="DLxVxTOSVOhKb8zi7Rkx-175" target="DLxVxTOSVOhKb8zi7Rkx-173">
          <mxGeometry relative="1" as="geometry" />
        </mxCell>
        <mxCell id="DLxVxTOSVOhKb8zi7Rkx-154" value="&lt;font color=&quot;#ffffff&quot;&gt;&lt;b&gt;Web Server&lt;/b&gt;&lt;/font&gt;" style="rounded=1;arcSize=10;strokeColor=none;fillColor=#F58534;gradientColor=none;shadow=0;glass=0;labelBackgroundColor=none;labelBorderColor=none;sketch=0;fontSize=20;fontColor=#333333;align=center;html=1;" vertex="1" parent="1">
          <mxGeometry x="770.37" y="419" width="132.25" height="115.5" as="geometry" />
        </mxCell>
        <mxCell id="DLxVxTOSVOhKb8zi7Rkx-155" style="edgeStyle=orthogonalEdgeStyle;rounded=0;orthogonalLoop=1;jettySize=auto;html=1;entryX=0;entryY=0.5;entryDx=0;entryDy=0;fontSize=20;fontColor=#FFFFFF;startArrow=classic;startFill=1;endArrow=classic;endFill=1;strokeColor=default;strokeWidth=2;" edge="1" parent="1" source="DLxVxTOSVOhKb8zi7Rkx-157" target="DLxVxTOSVOhKb8zi7Rkx-158">
          <mxGeometry relative="1" as="geometry" />
        </mxCell>
        <mxCell id="DLxVxTOSVOhKb8zi7Rkx-156" style="edgeStyle=orthogonalEdgeStyle;rounded=0;orthogonalLoop=1;jettySize=auto;html=1;entryX=0.5;entryY=0;entryDx=0;entryDy=0;fontSize=20;fontColor=#000000;startArrow=none;startFill=0;endArrow=classic;endFill=1;strokeColor=default;strokeWidth=2;" edge="1" parent="1" source="DLxVxTOSVOhKb8zi7Rkx-177" target="DLxVxTOSVOhKb8zi7Rkx-173">
          <mxGeometry relative="1" as="geometry" />
        </mxCell>
        <mxCell id="DLxVxTOSVOhKb8zi7Rkx-157" value="&lt;font color=&quot;#ffffff&quot;&gt;&lt;b&gt;Application Server&lt;/b&gt;&lt;/font&gt;" style="rounded=1;arcSize=10;strokeColor=none;fillColor=#F58534;gradientColor=none;shadow=0;glass=0;labelBackgroundColor=none;labelBorderColor=none;sketch=0;fontSize=20;fontColor=#333333;align=center;html=1;" vertex="1" parent="1">
          <mxGeometry x="1122.19" y="420" width="188.62" height="115.5" as="geometry" />
        </mxCell>
        <mxCell id="DLxVxTOSVOhKb8zi7Rkx-158" value="&lt;font color=&quot;#ffffff&quot;&gt;&lt;b&gt;Database Server&lt;/b&gt;&lt;/font&gt;" style="rounded=1;arcSize=10;strokeColor=none;fillColor=#2757F5;gradientColor=none;shadow=0;glass=0;labelBackgroundColor=none;labelBorderColor=none;sketch=0;fontSize=20;fontColor=#333333;align=center;html=1;" vertex="1" parent="1">
          <mxGeometry x="1504" y="421" width="188.62" height="115.5" as="geometry" />
        </mxCell>
        <mxCell id="DLxVxTOSVOhKb8zi7Rkx-159" value="" style="shape=image;html=1;verticalAlign=top;verticalLabelPosition=bottom;labelBackgroundColor=#ffffff;imageAspect=0;aspect=fixed;image=https://cdn1.iconfinder.com/data/icons/hawcons/32/699859-icon-77-document-file-css-128.png;rounded=0;shadow=0;glass=0;labelBorderColor=none;sketch=0;fontSize=20;fontColor=#FFFFFF;strokeColor=#000000;strokeWidth=2;fillColor=none;gradientColor=none;gradientDirection=radial;" vertex="1" parent="1">
          <mxGeometry x="839" y="503" width="57" height="57" as="geometry" />
        </mxCell>
        <mxCell id="DLxVxTOSVOhKb8zi7Rkx-160" value="" style="shape=image;html=1;verticalAlign=top;verticalLabelPosition=bottom;labelBackgroundColor=#ffffff;imageAspect=0;aspect=fixed;image=https://cdn4.iconfinder.com/data/icons/file-extension-names-vol-8/512/27-128.png;rounded=0;shadow=0;glass=0;labelBorderColor=none;sketch=0;fontSize=20;fontColor=#FFFFFF;strokeColor=#000000;strokeWidth=2;fillColor=none;gradientColor=none;gradientDirection=radial;" vertex="1" parent="1">
          <mxGeometry x="889" y="506" width="53" height="53" as="geometry" />
        </mxCell>
        <mxCell id="DLxVxTOSVOhKb8zi7Rkx-161" value="" style="shape=image;verticalLabelPosition=bottom;labelBackgroundColor=#ffffff;verticalAlign=top;aspect=fixed;imageAspect=0;image=data:image/png,iVBORw0KGgoAAAANSUhEUgAAAfgAAAFqCAYAAAD2hkg3AAAgAElEQVR4Ae2dPZLkOBOe5wh7jD3Gd4LZilpvTzGGzG8m+gZjK0J2u9U9a8iQMaEDyFNobclXlAw5skaR6EI3CgWSAIgE8fN0RAeriiwSeJDIF5kAWZ8+8QcBCEAAAhCAAAQgAAEIQODp7z9///fl9C/3/9vl/BT6//py/ss9Tl4/XU6/QRECEIAABCAAgYoERHxFhL/+OH8xgv16ev76cvr59fWPf769nH6V/jfnfjn9tIMDMwD4+8/fK1aZS0EAAhCAAATGIiCRuETYXy+fv4vQfns5XUsL+J7zmTLJAOPH+YsI/1j0qQ0EIAABCECgEAEj6BKZv56eWxPz2IGAifjNgOT8F6n+QobBaSAAAQhAoC8CNkLvWdC3hN8I/o/zF6lrX61DaSEAAQhAAAIJBGyUrjVnviW4R+6XOst0A2KfYDAcCgEIQAAC7RKQVLXMU88o6ksDCsS+XXulZBCAAAQgsEFAFsjd0u/FV7cvCWePnxuxlzQ+t+dtWBS7IQABCEDgMAIiUnJLGdF65i17r6dnUviHmS8XhgAEIAABn4CIEtF6pqgH7t83i/Nezn/5nHkPAQhAAAIQqELAPHTm7R510vABod47ZWDS9wh9FVvmIhCAAAQg8OnTJ4S9XLQeMwhA6Ol2EIAABCCgSgBhryvsvvi3KPRyh4Sq0XFyCEAAAhDQI8Ac+7HCHhL6Fh6Pa+zi5fSLOwD0+h5nhgAEIKBCwK6K7/XRsb4wjvZeFuMduereLqyUWyJVDJCTQgACEIBAeQLmh16UfqVtNKE9vD6X81PtKNpG76bur6fn8hbIGSEAAQhAoCgB0vFtpeNjBw8yP18zbW9+Qte5c6D2AKOo0XMyCEAAAqMTML+z3tjPssYKHMe9DUzM8+6Vn4pnpm48OyFNP7p3oH4QgECXBCRql/lcRLLP6N1vN+1o3o/ezfVJ03fZ9yk0BCAwMAHzzHgvGvMFg/d9Cr9E86VNNxS93+zjWvpanA8CEIAABDIIGEf9enpGvPsU79h2k2i+5Ep7u3I+dH3S9Bkdka9AAAIQKEnApORZIT/T43WvJcTXLMB0FtY9iDxp+pLdlHNBAAIQSCNASn7siP1BdB1B3puyX4veb9clTZ/WHTkaAhCAQBkC4uDXBIB944u/SdlnrLKXW/B8+/jP//0/PWRBSmQKylg7Z4EABCAwAQHm28cXbl98197nzMvLd9xz/sf/+h9+yZ/7mbzemyWYoDtSRQhAAAJlCIi4+87Zd8q8n3IAED0vH7ot7n/97/9hBN6P4sXWylguZ4EABCAAgUUCt0VRVwR8SgF/iK5DdrCVUg/ZkIi6/ftv//O/PFxHvrNolOyAAAQgAIF9BEKOOeTg+QzxX/vJ19ADkP7v//s/Vt/N9sGGLuenfdbLtyEAAQhAIEiAlfKI9oPoOqvpg/sCt7jdHl18F6G70btVedL0wW7IhxCAAATKEriJ+51TDjr0LYfP/vkYOiIfygDZhXVW2O2WNH3ZPszZIAABCDwQQNyJ3HcP5m4iH0rN24V1VtjdrX/dtbT/g+HyAQQgAAEILBNA3BF3X2Rz34fuugil5l2Bl+j+7npONmDZatkDAQhAAAKrBBB3xP1OXAtPryyl5l2BD6bpMx6os2ro7IQABCAwE4HQXKmms+fc8w0m/FXzrrDb13KMbxsy8JypL1JXCEAAAsUIIO7zia0votrvJTKP/SNNX6xrcyIIQGBmAiu/y/0QSWmLAOcfc6CxNe/uC7+fpuepdjN7KOoOAQhkEeDxs2MKaksDpVRxF7EPpekly5Rl5HwJAhCAwIwEIn62kyi+8EKzlsRXuyySao+Zd/cjeHnvp+m5XW5GD0WdIQCBLAL85CvRu6bA7xF3EfiHp9q9nH5mGTpfggAEIDATAW6HQ9w1xV3OvfYwm1DE7n8m3/fLKFNKM/VT6goBCEAgiQAr5hF3XzhLv98r7lbs/XJxu1xSV+dgCEBgJgIsqkPcfdEs/b6UuIfS9LJmZKb+Sl0hAAEIRBNgUR0CX1rQ3fPlLqizEbu/5Xa56K7NgRCAwMwEmHdH3F0xLv26ZORuhZ7b5Wb2WNQdAhCIIsC8O+JeWtDt+WS1vIa4W5HndrmoLs5BEIDArARCP9lpHTRbxD/XBvbeCmdFfG3r3y7HPPysXox6QwACDwTkASG5DpzvIf5LNlBD3EX4JTvgleH6YOR8AAEIQGA2AqTmEWhPHH2xzHqf8/jZtSh9a59fBx5bO5sno74QgMADAVLzCLwvjnvfp/wq3JZwx+5nHv6ha/MBBCAwMwFWzSPue8Xc/b6IrOZiujWx9+fhZeA6c9+m7hCAwMQE+AlYxN0V572va823L4l8YB7+18Tdm6pDAAIzE+CHZBD4vaJuv39ESj4k9LY8dvvvy+lfM/dx6g4BCExI4LawLmvxlHWebBkgHJmSDwm8Pw//7XJ+mrB7U2UIQGBmAiysQ5z3DtBqr5IPCbr/GfPwM3s16g4BCHyStOVe58735x0gtBa1uyIfmIfnfnh8HgQgMA8Bovd5xXnvwKzFqN0VeHnt15H74efxbdQUAlMTIHpH3H0BjHl/9Ap5X8TX3vvz8PKUxqk7PZWHAATmIED0jsDHCLo9puV0/JLI+/PwPJd+Dt9GLSEwNQGid8TdCvfWVoS9lVvfloR86XN+H35qN0flITAnAaJ3BH5L2GV/D/PsS+Iun/P78HP6N2oNgWkJEL0j7lviLsIu4jjC38M8/Mv5r2k7PxWHAATGJiDzkFsOnv3zDQJsKn4UYbeDkweBv3z+PnYPp3YQgMCUBHhq3XzCvTVYs8JuBXG0rb/QTqanpuz8VBoCEBibAM+cR+Ct4IvwHfVrbzUHEYEH3vDDM2O7OWoHgTkJfHs5Xa2DZzuf2NtofbQ0/NqAgYV2c/o6ag2BqQjwe+/zCboM4mYUdV/wH+bhWWg3le+jshAYngC3xs0j8Ij6vcQ/CDwL7Yb3d1QQAtMQYHHd2OIuAjbLnPq9dMe9Y6HdNK6OikJgPgLyW9jMuY8h8lbM5SltMyySi5Pw9aNYaDefz6PGEJiGwNfXP/5B4PsQeBFwK+ISeSLk6+Ids5eFdtO4OioKgbkIkJ6vK+xWoN2tCLX7b0VbIkui8BiJ3n+MP8CVRadzeQJqCwEIDEeAe9/3CbwVaivQiPN+sT3iDNKOdyJ/OT8N19mpEAQgMBcB0vPbAu+KuBXwI0SIa+oRkAHancC/np7n8gTUFgIQGIoA6fmwuIugi8MXMZ/poS968tn+mX2Bl4HvUJ2dykAAAnMR+Prj/OUuankJC94MxyDo7YuwZgllMOfb+VzegNpCAAJDEZj94TZW1DWFg3P3QSB0q5xkuIbq8FQGAhCYh4AfsczwXtLvpN77EN3apfTt/9+X07/m8QbUFAIQGIaAOC/foY38XoSdW85qS2Zf13uwf1bSD+PvqAgEpiIwy9PrJA3PQrm+hHattJptKYNAV+TlFtKpnAKVhQAExiAw+vy7OGtNMVgTIfbpENDOwDwI/Mvp5xi9nVpAAAJTEXAjlZFek4rXEdcWziprJzT/uFVuKhdIZSEwJoFR59+1BUBTXDj3OgHJxogAa/75Ai8D3zE9ALWCAASGJTDa/e+k4zVlr41zy+BNewAXvFXucvptWEdAxSAAgfEIfHs9PY+Sltd2+m3IG6WQQZz2X0jguVVuPP9HjSAwNIERnj/PXLu23LVzfhnE1RB4mQbwB74I/NCukMpBYDwCvhPr7T0p+XbEt0ZJpL1rZWr8viDTWeN5AGoEAQgMSaD3H5jRXmhVQ7C4RjwBmzavdcujL/DyvIghHQGVggAExiPQ8wr6WlFcvPxwpDYBid5rpOdtPeRarsjzsJvxfCA1gsCwBHp9gh3ibiVonq20uYhtzbZ/EHgedjOsL6RiEBiOgEQkboTSw+uaDn4e+Wy/plZsa6XnhYi9pu0X8sTH4ZwAFYIABMYk0NsjahH39oVYo4Q2ehfBrfmHwI/p96gVBKYg0NMtcoh7TWlr51ru7Wq1bcAX+G8vp+sUjoFKQgAC/ROwqcfWt6yWb0dwa5fEfWRszfS81NO9tu0j/fd6agABCExBwDqtlre107K1BYzrLROwt8WJfR4xyEPgp3CDVBIC4xHo5R742lHbstywpzYBN0V+hB0g8OP5PWoEgSkI9HAPvERw/M1JwBXXo7I4bhlslmsK50AlIQCBvgm0LvDiXPmbk4C7sE6E9aiBHgLft4+j9BCYlkDLAn9UxDannLZXazc1f6QtIPDTukcqDoG+CbT8O/BHRWztSd18JfJFtfatcS5xvyySTei711N6CEBgCgKtPqZWnCp/cxJwV82LmB4ZvUsLIPBTuEIqCYHxCLQq8Eeslp5TTtuqtbS7m5oXgT8yekfgx/N51AgC0xBoUeCJ3tsS3Zql8cX96OgdgZ/GFVJRCIxHoDWBb8Gh1xQ0rvVBQCJ1idjd/6OjdwR+PJ9HjSAwDYHWBL4Fh/4hObyqRcCfd29h7t3WnTn4adwhFYXAWARaE3jrVNnOQ8C/391G8K3cRYHAj+XzqA0EpiHQksAz9z6PqNuahhbVtRS9Szn9dQFSvmkcBBWFAAT6JdCSwLNy3srePNtQdCwC2pItBASen4vt1+VRcgjMQ6AVgWdx3Tyibmu6JO6tZXJ8gf/6cvo5j4egphCAQLcEvr6c/7JznkduW5lvteLDVpdAaMW82F+LAz2/XyDw3bo7Cg6BuQi08ix6XTnh7C0RWBJ3EdIWB3q+wH97PT3P5SWoLQQg0CWBFgS+tZRsS2I4WllCt8NZAW3VDmz53reX81OXnZ1CQwACcxFoQeC59300GQ/XZ03cRTxbWlhnaxAsMwI/l5OkthDomcB7ZOI9RazW5y06duvg2ZYhEBRKx95aHeSFyi2/wNhzf6fsEIDARARqCXnoOi0uqiojaZzFEgiJpGsLrabmpfxSNres8lqyXhO5B6oKAQj0TODr6x//+E6s1vuWnbsVKLb5BLbEXQZ4LWdwEPiePRtlhwAEPsltP7UE3b9Oq6nZfEnjm5bAlriLLcgxLf/598BLmXEZEIAABLohILf9+MJb633L0VvLwtN62WLEvYfsDQLfjRujoBCAQIjAkU+za12oKF86gRhx72XthT/Q5SE3IQ/CZxCAQLMEjnqaXS9OPl3i5v3G2kNsXLHsIXMTHKjwkJtm/RgFgwAEAgSOuhe+hxTtvFKdXvNYcW993t3WPFgf7oEPeBA+ggAEmibgRle1XiPwVkr634ZWm4fsqKdFlaE6Sbar6Y5M4SAAAQj4BI64Va4nZ9+/BOvUQFLtISEMiXtvA7pQHZ7+/vN3v+/wHgIQgEDTBI5YSd9LqlZHGvs/q4h7aJV5SBh7W28hdQvVo+lOTOEgAAEIhAgcsZIege9X5IML0JxHz7riKOLew6I6tzVC8++soA95Dj6DAASaJ3DEQjsE3pWUfl6HxM8VdP91j+0cmnb4evn8vfmOTAEhAAEI+ASeLqfffMes/b5Hx9+PDJcvacp8u7WdXts4NPXAAjvfa/AeAhDohkDthXa9Ov/y0tn+GVPm262497qIcmn+nQV23bgyCgoBCPgEJAVpnXONLQLfvrBLCVNT8mI7vYr7Un1l8Ov3F95DAAIQ6IZA7SfaIfBtC3xOSr53cZcWCaXn5S6TbjoyBYUABCDgE6g9D4/Atyvw0jZBoVtYKW8zPr3d6+63wFJ6nvl331vwHgIQ6I5AzXl4BN6Xlzbeh1aQWwFf2/Yu7kJ/aTqC+ffuXBkFhgAEfAI174cfQRDakOQypciN2kX0R2nLUNaC+XffS/AeAhDokoBEKmtRWsl9o4hCGXk99izSFrltO0o7Lqbnuf+9S19GoSEAgQCBby+na66zT/meREv8HUtgT9QubT2KuEsrLA1ySM8HnAQfQQACfRKo9Vx6BP44cc9dIe8O4Hq+FS5E3q2b8/raZy+m1BCAAAQCBGreLhdytHymS2BpIZkjapvp+tHEfZEJt8cFPAQfQQACXROolaZnJb2umLtn35uOtwOA0cRdGIUW10l95Tcauu7IFB4CEICAT6DWU+1GmsN1xbSl15KOXxIwK9qx2xEHZFKnUP1ZPe97Bd5DAAJDEKi1mp55eL2hQIl5dit80k4jivta9M6vxw3hyqgEBCAQIlDroTd6EjfnmUsKuwi8iLucc8S/pehd6s3q+ZBX4DMIQGAIAl9/nL/YCE5zO+Kc7hFiWFrYpc1Hn0JZmrogPT+EC6MSEIDAEoFaz6YfXUS0xV6i0KV7uPcMzEYfeC2unH85/eLZ80tegc8hAIFhCNS6J37UFLCmuItALUWge4R95Pl22x5ibyuMrjK4HaYTUxEIQAACIQJym9CKI1xzkkn7Ro8WrbDs3YowaQm7tPPI8+0u+7WMB4vrQp6AzyAAgSEJfH05/dQWeREW/pYJiKiviVKJ9pllkLW2sE44srhuSDdGpSAAgRCBWk+2m0VglmX8fo+dW9dIw7sDghlS8i7ZVZ48uS7kAvgMAhAYmUCNW+aI4n+Ze80lUl8VoZdT0vSHK+b+a7nWTH9bWRCeXDeyF6NuEIBAkABRvJ4M1orUXXGfLWqX1ttKzctUVND4+RACEIDA6ARqRPEiQqOvqLcL5baiSVeQS76W647O2B+OSX23GBK9j+7BqB8EILBIoFYUP2KqXqJHzdXvW+Il+2eM2q3Qb015EL0vdnt2QAACsxCoFcWLIPb850bpW+ISI857j5l5AWNMpoTofRYPRj0hAIFFArWieBG03kReRFTEpAVBtwOCGdPx7sBQ2sSyWNoSvS92d3ZAAAKzEagVxYtQtjxXLAOQ1gTditjswi4iHyPuwov73mfzYNQXAhBYJFDr6XbifFsS+ZYF3Qq78Oot8+FG3KVex4q7PIp50dDZAQEIQGBGArWeUX+UyLc2h24FfGmLsH8MDaLF/eXEM+dndF7UGQIQWCcgac1vL6frkuCU/lxbwHoTdMuXVPyHsMurBHH/JT+HvG7l7IUABCAwKYFvl/OTFZpa21LpZzmPiIEMHGqVveR1EPZ7YZd3wiSWsawjmbTbUm0IQAACcQRqLbhzHbeIcsriu16jc7fO8lrqLYOSlLo/yuB4nwiPFHEXltwWF9e/OQoCEJiYQM0Fd77ghaJYcfY9LIbz67L2XupZKnMxmrwLl9QsDD8HO7HDouoQgEAaAXGYawKlvU8EUJx8qqPXLtee89tofTRBLlmflPl22xaScXq6nH5Ls3COhgAEIDApAXGYR6TqrdMeZWtFnRT8+jBA+OQO5kjNT+qkqDYEIJBP4MhUfc8Cj6ivi7m/Nydqt/ZBaj6/f/NNCEBgcgJHrKq3zruXrQi6TCmIUPEXTyBnrt21CVbNT+6cqD4EILCfAKn608OtWlbUWSgXL+j2yL3CfhP5K4+j3d+3OQMEIDA5gVIPwLGiKNGu/ZfP3Kis5ddSVm5pszKdvi0k7MZe5AeSJu+WVB8CEIBAGQJ7fnFOhHEt0s2557nWQMCm3lkkly7o9hsyKCo6kONZ82U6NWeBAAQgYAnkzMenzEuXjPByBwAiRFbUrUCxTScgbSkcc9th6XvcEmd7I1sIQAAChQmk/CBNirhbCZFIecm5a31uRX0ty2DLx3aZgPArHq2/3K1/YN69cH/mdBCAAATeCcTeHy+imfsnQqEl5va8Uj4RI1Lvua309j1hKJG68LRstbbc7/7eDXkBAQhAQIdAzKK7vcKpIRiI+j4xlza1qXeN9lkbGLCoTqcvc1YIQAACDwTWRF6c/94/iQzXHH7sPkQ9ryVcMa8VoS+1KQ+zeeh+fAABCEBAl8DSynoRhL1/IjBLDn/rcxF1KcPeLMLeOrT+fYnG7by5FfHakflWW8qaD10r5uwQgAAEIBAkEBJ5ib5L/G06//sFWEbURbDsny9groiJkNn/1OvY761t5Vpr/8LIlq/k1s6Ju9f2y5la36OO//py+hk0Oj6EAAQgAIE6BHyRd0XWim3ONkVYXPFO+R7H3q1Sz86alObI7XB1+i5XgQAEILBJwL1H/qgIvrTIcL5jxB9x3+xuHAABCECgLgF7j7xE03v/9szBI8zHCHMJ7oh73T7L1SAAAQhEE5BIXuZ89/5JFqCEYHCOfsQecY/uZhwIAQhA4BgCMie/N02PMPcjzCXaCnE/pq9yVQhAAALJBETkc29TkxR/CdHgHJ0MEl5Pz/KExGQj4wsQgAAEIHAMAXm0aKrIk5rvRJS9WxSzB1Pc535M5+SqEIAABPYSkCfexYo8kftk4n45P+21L74PAQhAAAIHEpD0q4h36P54EX+J2mVhXnYUWCqa5DzV2kCmcA40SS4NAQhAAAKlCJhfoXs5/RQRt09WQ9Ani9jfBlD85GupTsV5IAABCLREQH44BGGfUth/mZXyf//5e0v2SFkgAAEIQKAggdujba8I/URCz2K6gj2IU0EAAhBomIAsvpOIDpEfXuSvzLc33BEpGgQgAAEtAqTsxxV4UvJavYbzQgACEOiEgNwvTzQ/mNBzC1wnvY9iQgACEFAmYFbZswCv2m1qWlMjRO3KHYXTQwACEOiVANF8x5E8UXuv3Y5yQwACEKhDQKJ59/fltaJNzltmMPH15fRTFk3WsQ6uAgEIQAAC3RMwK+1vD8dBjMuIcUmOko5nhXz33YwKQAACEDiOAGn75sT9KhkWybQcZxVcGQIQgAAEhiHAA3IaEHr5aVfS8cP0KSoCAQhAoBkCzvw8T8Kr+eM4CHszfYCCQAACEBiagBV67p9XjuoR9qH7EZWDAAQg0DQBSd0j9EWF/ipPGCQV37TZUzgIQAAC8xCQxXjfXk/PJVeKz3Qusyr+x/kLi+fm6TPUFAIQgEBXBMztdZfP34nqI6P619Mzt7t1ZeIUFgIQgAAEzMp7ovqHR+ASrdM3IAABCEBgCAKSdp5d7N9FndvchrBpKgEBCEAAAgECVuyHT+NL+l3m1RH1gBXwEQQgAAEIDE3AzNn/OH+5LdDr+v56eS68PGVOFhwO3WhUDgIQgAAEIJBKwAi+3HonC/Uafha+yT7cInQEPbWVOR4CEIAABCDw6dMnEX1zG97l/CSRvgh/rfS+GWTIQsHL+UmmFhBzTBICEIAABCBQgYAs4BPRlX8zty+DAOffZgLMoEAGBpIVuAn23XE/zl/seZgzr9BwXAICEIAABCAAAQhAAAIQgAAEIAABCEAAAhCAAAQgAAEIQAACEIAABCAAAQhAAAIQgAAEIAABCEAAAhCAAAQgAAEIQAACEIAABCAAAQhAAAIQgAAEIAABCEAAAhCAAAQgAAEIQAACEIAABCAAAQhAAAIQgAAEIAABCEAAAhCAAAQgAAEIQAACEIAABCAAAQhAAAIQgAAEIAABCEAAAhCAAAQgAAEIQAACEIAABCAAAQhAAAIQgAAEIAABCEAAAhCAAAQgAAEIQAACEIAABCAAAQhAAAIQgAAEIAABCEAAAhCAAAQgAAEIFCfw9Pefv//7cvqX/H99Of/17XJ+sv9ff5y/2H2yLX5xTggBCEAggYD1R9ZHrW3Fn8nx4uMSLlHlUNfvtli+RQgCVIRBwH99Of2U/28vp+u3l9Ovtf/3Y19Pz2/ffWucxQs1uEMaSuoeqvPX1z/++fZ6ehajO6ro0jamQ0g5pDwbbbKw/2ra6vL5u9SlK+PcAG/4hNm81fnH+Uut+tq2MqzDbaVeJjPgC/CobcvC/N2fOCzccjxdTr9tNG/x3aa/20Gx6dunn1v9yvdz0s61bKo4AOUT2j5g/KbT7gt+aVVfRIOMX76cn+S8ykUPnt72p6Xyv9nG+a8jbDlYYPlQYH0VZ7+/ARYb6L0jV3SwixUO7JAGEQZLDed/LvWpIfSmXOKAZNAUMcjyyxn73tTnJvgBPM1/ZGw4xX5fT88anXDLAay2R8EySTkS+vNVBrUajfwmoCZAWPQNDpOr9EGNdrF10+xP7z5OBs0HDFZsHY/cavJ17MTa0rVWwJXYn37V0ofFtjYjK2XRCDSIbRjZvjfO0aNf44RSxMGNml9Pz4uQd+yQMmmL+kr7vDnaBtNiIaQpAzOvztcStmfaSqZFygzAdpfpZjduX4t6LU6ppDCZwU4GE1OOwra3a+Dl9veU1yYjcFy2L9RXtD5rQk8u56cS/dlntMO//JK+6J9P9X3qSMRziFGOIuc7ZsRzQHRvnHOGE7qrY8FGNJHo25SIGuu7sm84LJtyUjXKHSfPFTOHQbagihgWuH6onbPLJP3IqVvo3KuflRL5m7ivXmujnNkMrDmZ9ik38Mqui/FtB07rWR4a2yb1RDJhhQaIRfp3QX1YbMMmG2JJXCqNfE06aadDtE5KRnmL8CN2iEGa+aUlJgd/3qKTMutEynBJFhOzDmLvwHCl7MI7wmzuDtkVaThlybm2WxATzTnns30kY5vcLrYcN9vYXDeUUSaE/tOnTx3oyVX66J6MVEH/8kt4WdssujURYSERq9kZbtdSTRWXcoiWi7DOabybWGQ7Dnv9GlsZhOTWM4fN0neKZF4cEZJ6LV3L/dwMxGr1p8v5yb322uuCovpmhwnXdstVctAs9hzbLrYMVdvHsZ+Uvid1knLaMve0NXrSUIZxi7sMVnP8VWn/ItN3ewYbDzZiOlrCorEtUIfvL5h2EVi3BiwqqiM6o6V2l8FRUYN9sOD1D4qkzjwHveUISo7ol7i6n6dE0mJ77ncLvM5ySBqD1djoR+PaBTgu+ZhrbL3We0Kdvb3rSWqGtXTwZ+woc9D80MI9jGJzO06p0a+WM4gdmUvnLrQoa8mBqH+eOzp+MNjED8TZqLBbmCsz13tbkKrO1O8XW4MOQacxWJVyyIAmsWk+iU34ddj7fmvgbMSn/ACnTlsv2Fwqd83jTdSu0K577SL1+2Kbsf5Zw7+kDNgX23ME4YhquJ23FGk4IkKJ54UAACAASURBVFPuiFGayujQi0ajGBb6TuroeNF4I3fcbFzFAftFMOJxpHOLsCetwWqqQ9IaaIgtSzv4bSPv5ZpqfblQ/9jqiyZoWahfqM41P9OyrS0mivs313XIgEbr+rEDjGAbazo+rQrvOa907Fxge6679t21aOPISHCtzCX21XRSmk7HjZgPF3cRmIgIT9iXaMPQOYKOZuFDzSkMt13s5W8DiqYW0oUYxnxmfFlDIj+yr5LoXLTS2pG/1fQva9f1y3H3fjZxdzrN5ojsDpRiSlPKtCTwTYiFckSyZ8Dlt9Hae435d2tPrpBoCqe93tZ2yZ5cPprlTBlAazpGObdb55HE3dqA9B+3jke9nsFXCfMlsa1px1FtPLG4mzRtasfQTMGI4fiNNkuHuTmq5AGXz2vrvaagWSFR7eQJA62jBd4d8Gy1iyozR+BHFHcr8jEZm6122LN/aLaBfhcS+Vp2HNVOszXIe0fwGivUUEsAawu8qiB5HJb4VP5cVeRVed6ehlWZ1+J6AgT+9vsXN4GfYbCcs7hxydelfD6rlviD2GYEfgZjj3W0KVF8TYHXTCfHsjnoODWR1xZ41fMnDshiFjBqltd3fmuCUcMxatb1oH4SHNyJ2K6xLr1vVnG/tfmdr6phx1HtN9pq7L0dLLZT1BJ4VUNJFIq9bDO/f9dxoow64iBVJ3/Q7XBLfGMyU5o8WhL4mfxdSsAS0WVWDyFQNFmi9+c+qPptZ6ppvVHkx0j6cPLBEapG2WOdUQ2Bn31dhG1fcVTiQFaNOXGnpqDZcreyjRm0avKI7VPShJqOUbOOrbS1X44aqXrE/eMn0O2gStOO5dxR7m5Gg/c7gP8+tkNoC/zk6a6HAZ3tOFGGHXHQNLYfcYuc4NLk0YrA+319kvfvUWVEt8g6ZOIpxAc/JTZlskRvP1AU3L/b7mIEXlugdlfioMxCTDpTeoE2PxG0XhlqlTtmLjnWQ2kKmlb9c84bE70LM00eCPxHhJfThru/EyMIsR3HO44sY7htVf13THtWHnWZ322X1IJEyNLh3X9jJDLiMb8Ap/fAjZiOEuuM5LiY83FMuAPkcokdgHl+6OGtpqDl1q3091JYafKI7VPSSKqpzYOChtLtmnE+lSieLGNZ3xbdrlsCf2sYnfTBRyfa9StuUkYj/G8Llqo9aSp2rrd3gZcRpjh149hlcOUMsDSdfbQRf9iRb6dFnFXjdfTrnPw+NduhyQOBP0gI3D60JQoPQ+DtD1SjVLfsia+NLYtuWL/mbz8CyWq6UsDvffiArbaUKLroBb0GEOcSK5TbZvR2hBH8y+fvqkYVOV8pJepO4MWof5y/CMck5vKDNvLdlqYMEtppqa6agqbZtyLOvfoIzSN4IPDHC7z036W2z/m8pUyL8U23Z0+k1sXoiuhhY3e+rPbzTYHXc9bXlM6c2hj2eGmUW4MUHYGllL0HgRfDlyxIqcGWqXMjHSGlrazduNsBBf4qTje3rTV5pLRVS8LhO1nDSKYZpU8tDJSFv9RXjpFAp6WBsZTJ7QO5r43/fTkV9b0+64j3uzLEobpL20kQ1FKbBTmsCbxUIvglLwrPOWbJ6EMwS3xmGkQ6UoEBS2pK04hdAWY5nLe+I44oxammtoWxIUl7HdjJpc1Ty+0eryloW+1TYr+x+VsaskRba/JIKV9rAi9c9g6SjSDKwKCAn9plOwUyX9KHDo52dw1kXR+w9toM0I5uryV9WRN4KfguI1m4qIx81oBp7xMnku2kMgxfrqfBcc85xYGkONO9bWIc14ER/R6by7aVBfvf026x35X2TZ1miW1jTR4pNtmKwAuPlHJHc36bHj0q+r3GlnPpuEP9nvy890LmZKm8ez9vxR7vfMSawGsUWBzPXpClvi8GmOSs1mCtFOpQQw+ITGoGYqVqybtug8YjnFb2grskGwnwvutwuvuLpyJDDazJI0UoNfxTYltlrWEIMV36zGTADhoYp7RFqPyadrLSTuptEqqr/UwGFYdnX1wfs6ZZGumVI8XFNoK/daLLB+ExkZAsBNwxGmxI4Kuse/D5+u8P6wRrxu4X0nl/kKP6WAnrdtjw6yqpSItEk0eKqBwp8OIX9vgEyzJ2K9mYFVFLsZX4YzP7i9TpCJ9Xu03W2k5DO7Paf60NNTpySgdeA6i1TzqtlLFkOY8wdt8YWjJ+absjIhNhkGM3Gv3Ab5/s95KKLPxo3i1GmjxS+t1hAn8Ac2kTrSnTJduTdt6yhaX9tQXO+LfK/WCp7vbz2u0VbMc1gddYGJXSgS2o3rdHC3yLxm/btLojyFgdrClowU4ZjtL9yOuwbIwmjxT/cIjAZ6zBsbZeYls7ks8pswRJO+zat/PN9y37t8NFfkPgN+GmNmRKB84xrha/c6TAt2z8tq1qirzwsNeN3WoKWmr/keOlPLWjdpeVJo8U/1Bb4FvpSzX7S840hEzD5th1zndaaRO3f/ivDxV5BN5vjvLvDxT47IVl5Sksn1HESjpqTgfP+U6q09IUtOTyHxxBSitq8mhY4FV+ini5VyzvMdNblW47FXFaLkl4j0bmd6GfdOHfhFLtweg7r9oC3+Iiu7CZlvv0KIFPFbJyNU4/0y2t97DI8d1Q49LWURmnVBvUFLSU+uU42/SW2P6GJo9WBX7PbZbbRNOPqBYVrglEoNjVyvVy+tWTfxNUNTMv735lrf3eDyroXGV0d2R6MWCT6h8dIfCtOaQYyLWcQ2qaXlPQYvtYK+Iu7ajJo0WBT7WXGFsvcUyNrFfqYLiaiK0JVwm4Cueonak0vmWNU6zzST6ugTSjQvstnrK2wIsDXixM4ztqOYiU0b+moMX0nVQnq93EmjxaFPiUMmmzd89fY0Cc6ktqpOdbHXC5bbP0urYWyNTAUlk+xTif7GMmEvnajZoiXouNf9COWvOLKaKpKWib/afBfqLJI0VMa8xrtiwmNfpKisDXGHBIf0mxkYPc2OplawUxxresCbxmRzYXP+h+0lX6CjurCvxagyrUTeOUrTlu9X6wMAUm4tLidJYmjxTnXcVOMhaZafSJpXNqi0XKAEcGzZsD1gVbj/5egwPepbZZ+vy23ihqvVA0lyWua3qgbTxSeDGglE69BK3lzysK/BDrG2pEJmJ7seKpKWhrHbjVTIwmjxRfUEPgY23kKP9TI2qOrZv48jV7LrGv1T4Ry8geV8N2De9VgX/7FbA6I40DfhzAwtbeVhP4tcbUrmTh89foALEL1zQFbdHpNdyWmjyaEvgOosXbYFjVR8d07RrlELuLKUsPx1SL4tf8SDVhctMLr6fnlE7eQ2PW4th6tJHSVlUcxuXz95gyaQpaSOBT0qIx5S99jCaPlL6vPQjs5U4U7cg5xn5q+LjYAXlMeVs4pkaGXPrIal1DDqjGZ2K00sFGEK0axi/GstqQHe7U7gCxEYGmoIX6UuuOTJNHSwLfSzpYu5/EuA7twZaszo8pR0/HVNGFTYE/6KcK7xzf6+lZnF6vYl+jIVsXhZyOJ3W6swM301PodUy5NAXNr1/soCOm3FrHaPJoSeC1+JU+r7a4xpRXe5CRctdLTHlbOUY7+7IZwddwsr6TW3l/FUPqTewrCPxwo1vbAVdsoci8Y0yUpilofv1SBM4yqr3V5JFSf01ha32axG1zbR/tXmvptbZQSR2Xrt3z5+p3HmxF8AJPu/F8Jxf9vhOxVxf4AdPzttNqRwYxgqIpaK6t9yIqmjxi2uPdNhQXAUsd7XVa32r7l5j6u3as8TqmDD0eo912mxG8QNMeIRYxCCv2f//5e2sNrd2Io45upR01ozSxu5iFVJqC5tp+L+2oyaMZgY9cgNmCr9H2L1t11F4R3tNga4tVaL/rA4q/jongpVDNRvGBuVgpq1mg14jYa3fAmDRzyLB6+EybXcwIV1PQ3A7dyxoTTR6tCHyMXbTUf1w7Kv16q54t9NGtMra8X7M/RduxeiMGhLqIodrI/nL67ahG1mZ3VL1qXbeIHSzZV8T0hmoHtOWKKEct3lvX0eSBwG/RD+/X7CPhK358qp3h7SWz9UEk7ZXqPHxsBC9FVi2IdXR6W7NA74hoV1PgxdmmmVN/R2tmj2L4aQqadcw9OTFNHgh8Xv+0dqSx3SqR9jRaik1slbXF/ZJt1mg3c84UgRc4ms5WrZLeoMGk8CuuytQUeFmE1qLRliyTpqC0IvC9pOeND3g5/dTqqynOXFVYUh1jSYPPOJdWe8h5t4qj2g4R198qX+v7VfUh1Y7FEY0g8mK4tYS+qQZs3doD5dNcSS82ELjk3UeaAwxrh3cXbPyNJg8EPq/xEfg8bi18qzl9GEnkrYPVTJE214AtWHVCGY6OEDQFzdhfRyu2pdk0eSDwCR3DOXRUgY8ZgDsYun2p1n6pEbwlOJrIW6FPcTCWxdZWU+A1ByZb9aq1f3iBrzhdVKLNEPgSFMueQ00gIlLkqhm2CdYYiSWotV+uwEuhROQ1G1et0t6cvH8dWUwodSvVBTUFXmNAUqrepc4zusAfsfBzT9sg8Hvo6XzX92El32+VWNMe5Nxb1x9hf8n2ujvXHoG3YCWKlB8DuDvxhoi2fqykhko5XgTeWkrednSBz6Ny3Lc0HXrKgFXVLko4xopNpOlPt6qhaQ8I/GnfI7lL2bGIoWZDaxrw2rlLpMAR+C0Xsb5f1ZFHpCA17bpHB6bJA4Ff7wtLe9d82N59S9e0n2vaQ4/9w3JJ2e5to8XvlxJ4WxkRRIl+Fy/YY2S/81Y0TYEvMQCxbdfqFoFvq2U0HToCn9fWmv52q0Sa/ROBbySC941gOKHfIfKaAi+dy2c/2ntNByKOcYuXpqD12H6aPBD4LWsM7x9V4GP6Z5hIP59K9lut/bT1wQi94oMx1MCEMg2ZIo/A7+tsmgs5Y27D0RQ0BP4+QkHg8/qKph/cKtHRA/Ct8rW+fwh9MKOU19Nz74vxclLiqg2YOeho3ejd8mkKrJzbvVboteb1EXgEPmRzqZ+NLPAl72hK5VrjeNEUtfbTjuB9QOb+eanQm9jvWyEYirIrfJa6ul5T4GMEym+D3t5rrumI4YfA31uMJg8i+HvWse/UBCJmCkvzWeovp18pNhHLq6XjVDMgtQXeBdur2Mekdd16agq8dGz3WiO+1nReMtDcYqYpaETwRPBb9hezX7OPbF1f27/Jj7FslaHn/arB7pEC7zeKSVXIz7v2sAo/AZx2B0jNKPjcW36vzS5GYBH4ewvR5CHtfX+15XfDRj7LVV7cM7LAxwzCF8F0sENV7xJ0qioqES0ZualWfl86/xo7N6QtUjnrAqo25o6Lqf6UovzgUER0oCloMQOMHfhUvqrJA4HPa7IjBV5KrHn91IxpHsFjvmXWpu3TofVp7lYF3sVtxL7FeftIeNoCP/IIVzV9FTm/pyloCDwpetfX5b7WFNiYMmkvno4NpmLK2tIxqgvsZOAQqVHNMPHm7Q99PG7syFJd4F9O12YaqHBBWnAcCPx9o2ryIIK/Zx377miB17QJqduoWUrtAKY7gfcN3s7baxr42rljDK+CwA/ZAdRHt5EDI1Xn1dsIm5+L9V1QE+/XfNTefTEVlB/o2nud1e9HLIaNKWdLx0iwulrnEqn7Dv1LsI3MXMbl/KQd8fkNIoYdLJDzYQ2BHzFNrz26FeF2mmnxJQJ/j0aTBxH8PevYd75fKvk+pgwVBuO/RkvTa68vMjYwisC7Rngztirp+5g0fRWBfzn9kkGOy6Hn17fRrW4bRhq/pqD1mELT5IHA5/XakoLunyumROqLxQZM01dZQB7p42LauKljzFy9dtrolkLZqngtge9RLJbY1YgI5BpL13c/1xS0HttMkwcC71pe/GtflEu+jy2FdvY0JpiKLevRx9Xwb8YGRhV424A3cVWNBLecUjWBfzlF37pn+bS6rTG6jU35aQoaAs8q+hJ9sKSg++eKLZ/2lJqUa8vXxpb16ONq+LcpBF4a8pY+UhP5LaOrKPC/YtYEHG3cW9evMbpNiQYQ+PsW0+Sx1ZfcksjgyBejYu87i3yK1TuwsMtlvva6xpxySr9dK+uR+2r4t3d76MyOs9tFdY5oA2JNgZeG7Xku3kyt1HiS4UabuYamKWhE8ETwrq3lvn536AGB3rsvtkyqPtapV+zUWmy5ax5XZW2Rw6pH/5LdHmoj/g2xqC3wPY9y1drINfrEQRACf9/lNHkQwd+zjn23V8TXvh9bBjmuUuq526lI9dsJPT83lcCrjTAbE3jTWTfKlNJpax2r1j6e0acOgDQFrccOqMkDgc/rbWsCvXdfSolqpOlNfTq8L75qat76vA51IMXeHo5VGWFuQKwdwdsOneIsH0BV/qBaal5ut4l4doFbfU1BQ+BJ0bu2lvva9nmNbUqZag3SpZ49pepvXNTWgS22+4Y2pbRtF8eqOOsNiEcJvNy2IobVQ8PUWIFrO0EqExWb6XiErckjZVCqOp2z0adb61PWtjW2qXXVtA+/fql9ObUuJY6vGbz4fFYDCJNSeD09+/c3mij49fSc0hlLgCpxDg3j2xpJHijwv6StxMBKsNM6R01xl/ZPrYeGzbx3xM6ERNhp8kjxKQj8hyW/25MdOBbcflwl7lXlVHTTQcyh4i42EPIvMiqK7cRyXA+jKGuasfVK6TBbTulIgZd6GJFvNJKvKe6GReTDbay9yFbDZt7tK9QB3Ys3+FqTx1ZfcnEg8B803u2poLDbc35cJf6VylToct2aFPnDxT0k8CLWfsRuG3plew2OFOLtodqRK3VY/13dZePafPjC0QJ/q3NznaC6uL/+8U+OoWkKWi/9xuWmyQOBd0nHv9bwa/ac8aX4OFJ18BX2xU35NxMk17jdN8ziQ8vcACJT3N9PJqO2lA76YQ51XmmljrZK34jASztdt6YTtupSYr8Z2b6cfloHUmubW3dNQUPgWWRXok9p9qGc8kkfzwgU37Uktz6yij+nvCW/c9OZ+gvqQmLvCnwpRybnaVHoS9XPNT4Z1GwZR0MC/9aBXk/P0gG3yq2x/8aiuvHHtNNSfTXs5t2G3A64VIDGPtfkkeI3VKPEztrl3Z5CTn7nZ7nmp9o+a3U6yL+ZwKXS759Et7e141v0vnsE5V64JaHXit4lzbzVAZoT+LfOUTWaNyP6twWbRW3Mtbe117nRu7StpqARwRPBb/mPmP1rtr93X8z1Q8cYwTsuTX2tGc03FbW7gx8r8JpP2BEHucfBhown5bO9Uw9rHSTGiBoVeCO0Etlqto0R9rdnhleP2m277Ynexc4Q+PvepsmDCP6edew7a+sa29gyhI67Cd8hg3phoe3fpH5yDQ3uRc75LvAV5kQN7B/nLyK4IWPQ+OwmrmriElOXlgXeGlHptjEd+8CI3dZLtimiEbJBTUEjgieCD9lc6meuvZd+nVoW/3jV/uNGq+uvrxLExvhrv/z+eznHLSBW05VibWgFvvaCCGl0iX5LAPcbQN7XSAmLKIau7X/Wg8C7BmXE/vL5u4i0cPTrE3pvjP7l/NdtZXwzhp/61LpQ3VQdlO2AoQs3+pkmj5TBmOocb2ft4vbf0q/3mqH4htJl2nm+q/FTl/OT2NuaBon/k2NEq1rzbVEMrB1HHbw+QspOw+QIypLR1YwcY9LzUs7eBD5kC2ZAZqZaZLrF+W84PSV2FTtAWbIn+VxT0IjgieDXbC92X6jPlvostgxrx6kOxpR0qRS/Q89jBV6c4aEFuW+kqxERWZF4OT+JaItIhv7NyMocY267qho5ro38XGMfQeAbso3ogaRwd9sh9zUCf09Ok0dKm6mKhnWM91Vv9p1m/yxVaU270ax/1+e2dgz8+0his1EjVs/bjoHAJ7K9H+xFC/pdm1nDto2wY6vaNwqWc0cVk76qyQOBT2qK94PvbL9E/3HO8X6RnS/MtOnLqWoQpsmlh3O/9ycTCTuN2kPhjyxjbPQufUJb4BvLvuQJcknbSxh8xfgsTUEjRX8/+Ht3SBENQwT/AUnTF35cZf8rbV+oyUHp3FdN//3en26jq+Odc0lHr3WuRAHRNurbIhZGxva5+5ELA2PdFQJ/T0qTx7tDur9k8B0C/4FFSXyMHnxcpcwrs05Kyzd3dl7x3VUEXppOtcN0Bn6lw1xTF25pC7y03U3kZx+gqTyPWlPQiOCJ4EvI5oq/2u0TSpTPP4fmc1c0WZQ8twx0hEvJc/rnesg0a44m/Iv3+N42im+wa+9rCLxcf/KRsYq4v3FVfG4+c/B3AkQEv+ZJlvdp+tLlq+7bc7vt7K79NevR0rntHVjagdlDC5lUfSMPKGmpQUxZElPzFm4tgZfrTSryauL+xhSBt7aszQOBd0nHv9b0lfGlSD9ySpF3dERZG66LLXITCuZ1b1MLktlYhLWxQ7kRf/mXn0zkVcVd2JKiv7cwTR4I/D3r2He9CrzUb6qpYUfctesu/XTVfojm3+YHRdxT591dsLUFXq49g8jvbRe3jdZea0YZ0k5r125xHwLfXqv0LPBCcwZ/FVpvo9mXxG9FWaoI1Kxz8yVE5AiBdzrNmFmYij8JqRlhpESsUZ21wkGaTiml+Jrt0tvAS0vgxf+ltMmeY2/z0UP6qyV70mo3c97U9T23e+WHbIAQaHFkeyJ3a+xHCbxcf8ROYxeoWL7aW83oooR9adffP7/WCuhUMdHsVw+rj30Ijb1XG3TFRoGFeEh/UKvLMXdyXZcG8Zp+RfRs6bqrTSUNcBs5Dy30JX6kxILUdETSkPY6S9tROo3JplT8JULL09i8gnNIFTRbnqO3Wo4pp89p/EhWj+2i9aCypchT2wZHCCa3AkTNqT/RhV2D1FGFXjp31shnxeKPFnhbtK47TWq6yVa60FajMx7lPEsgkX4Synrt+SzHIWm0S2iutAQzzXPcMnWlbzlLfuZHyTpKnbqN5jf81S1o0AySl1fQpzTSW3TY+I/eR0ZfEkFIfVLqH3NsKwIvZe2u08hc+wFRu9+upR1oj1Giy6R4FJ+ZCr61S0lHeaiouYxTXxefOtkQqdTy5R4vtqYxoNwzGF36ronaI/xV8f7ja1xmf1ptIyNkPd5DrywiLQm8bcDWO410FOFmy9vCtuSirhYGLXuZFoyudolqyfS09Iu9XI76vgm2CmVWRFA1gp09bFr2WcIrxV9pD1ikT+xhvfpdG9WrpM/8kUr++6uUr4ajbVHgbQM212leT88pHcXWo9a2hE33LCIu50KCUuQ5BrTLW8sUymgUaRPXVkq+Nj7rRfHhUwmaIoPc1P5cckC6lEmooWumTV2x1x61LFX27vPX07M0SM3RacsCbzueKeNB2RexCzH6akZpK5253SEm11RnkFnEal9769/ZzraokOxJUY/ULtKPcn2tfK+Xfmjqefn8Pbeud7qQIOpmYWdmcCj9RWNhqFsX4VHNAfgXMo3ycv5LnGSNhjHXOEDU3Xr3IPC2vO6ATNMQzci3I1G3fOxWBCHJfjMdgr1e69vkO2uEh9J6l5R2ETvsRdBSbMAIyeX85Dr+rddaa5BSyp17rNGVH+cvBaeN7hYsik0Jn70DwR3BwV151tpSypnLUeV7IoACzjgJI8annymdVCr7lio5/TSN8OP8Rc6p4UByAPQk8H79bMcxA7LMtJjpdJIduJyfhIV/jZ7fG7t9y3w8LPSyTmFEAQm1mRkcrjhZ00crDepsu4T8iPms8amgEN+cz1pqk5zy537H+K2bplhtWBNFu8/0WfFzjr8qpSPGJtMyBdGibssv21n8Ta5tFP9ezwK/BEOMSOq19r/0XT6HAAQgMBMB8ZeaGVEr8DJAmYlrE3UdUeCbAEshIACBbgiYqDowZ26iZrlFOeL2sm4q6xS0lrgbkW/k1kan+uO/RODHb2NqCAEIhAlIijt67nmwtSpVxZ30fNgAtT9F4LUJc34IQKBFAtkCN4DQ3+bcH9bm2HR68a3Gw21aNKrWyoTAt9YilAcCENAmkC3u7kK0DoXeLGy8fP5eXMBdLoHXwlu7TTl/gAACH4DCRxCAwNAEzN0KASHKEb63lfDtP2VQovaS9Y5mRfR+XF9C4I9jz5UhAIH6BBRvCTNPIJXz16/V8hWNsGfeRhwt4iuDJaL35bZR34PAqyPmAhCAQEMEKkWx72Jf6l71FIQiqvIEzkp1XbwnvrkH26RAHOFYBH6EVqQOEIBADIHb3PuiIJWIWEPnMEJrn1qqNB9tfPnl/HS0qDv13/VDTTHtyTEbBBD4DUDshgAEhiGg7e8ccdscRIgQm/l7WfQmwvxy/kvKF/NvnqxqvpP+ZNWUMu45trWpimGMOKUi2gafUhaOhQAEIKBJQNvf7RHEob7LwjpNM44/t7bBx5eEIyEAAQjoEtD2d0OJ9MrCubV6SmbiiHUHupbT6dm1Db5TLBQbAhAYkMBRc/BrgjjYvqI/szygCdatEgJflzdXgwAEjiVQ44dVBhPtzfUEtr6iJ8e2Lle/I4DA3+HgDQQgMDgBuXXLChLbU7R4b7FiUV2DHQeBb7BRKBIEIKBG4Jamr/cc9sy57C1BbWk/4q5mrvtOjMDv48e3IQCB/giIILUkkB2X5Yq4N2z/CHzDjUPRIAABNQKI/O70PAvq1Kyz0Ik1BV5ulyhUTE4DAQhAoDgBEfmGnvxWbD5cOyMgD+jhVrji5qhzQi1jECPQKTFnhQAEIFCGgPkJ1Qae267lh4uf93J+KkOes1QhoDaC5WlGVdqPi0AAAmUIENEvp+1N1K70HP0yrcdZggS+vZ6ei4/yXk6/WHwRxM2HEIBA4wTM1KWSX9TwtZrnlAAQX964wa4VT2kenl8SWoPOPghAoHkC5pa6tn6hrdo8PcLevHnGF1DSL0VHgczTxMPnSAhAoHkCEsXesp1D30OPsDdviukFLPmMZjGQ9BLwDQhAAAJ9EBhQ7K8yeBEd6KMFKGUyAWO0+5+6xL2RyeT5AgQg0CsBM8XZYRrfROqXz9+ZWkrrcwAAAKZJREFUX+/V8jLKvUfkxWAYAWZA5ysQgMAQBOSWu3fBf5v2bCadL/5ZonTx8fjpIcwtrxLS+MYYUqJ5Se9cTr/lXZFvQQACEBiTgPhTK/pvAnv6mexfE3yxnFvWVMmP6nz9cf4i1x6TLLXaRcBE8+u3ijBvs4swX4YABGYmYCN+EeH3QcDl/PQt4t+Kt/3uzByp+04C1ojslhTPTqB8HQIQgMDkBP4/bxuKGowyZtAAAAAASUVORK5CYII=;" vertex="1" parent="1">
          <mxGeometry x="1249" y="500" width="100.24" height="72" as="geometry" />
        </mxCell>
        <mxCell id="DLxVxTOSVOhKb8zi7Rkx-162" style="edgeStyle=orthogonalEdgeStyle;rounded=0;orthogonalLoop=1;jettySize=auto;html=1;entryX=0.5;entryY=0;entryDx=0;entryDy=0;fontSize=20;fontColor=#FFFFFF;startArrow=none;startFill=0;endArrow=classic;endFill=1;strokeColor=default;strokeWidth=2;" edge="1" parent="1" target="DLxVxTOSVOhKb8zi7Rkx-157">
          <mxGeometry relative="1" as="geometry">
            <mxPoint x="559" y="386" as="sourcePoint" />
            <mxPoint x="880.3699999999999" y="423.42" as="targetPoint" />
            <Array as="points">
              <mxPoint x="1217" y="386" />
            </Array>
          </mxGeometry>
        </mxCell>
        <mxCell id="DLxVxTOSVOhKb8zi7Rkx-163" style="edgeStyle=orthogonalEdgeStyle;rounded=0;orthogonalLoop=1;jettySize=auto;html=1;entryX=0.5;entryY=0;entryDx=0;entryDy=0;fontSize=20;fontColor=#FFFFFF;startArrow=none;startFill=0;endArrow=classic;endFill=1;strokeColor=default;strokeWidth=2;exitX=1;exitY=0.5;exitDx=0;exitDy=0;" edge="1" parent="1" source="DLxVxTOSVOhKb8zi7Rkx-142" target="DLxVxTOSVOhKb8zi7Rkx-154">
          <mxGeometry relative="1" as="geometry">
            <mxPoint x="599" y="501.5" as="sourcePoint" />
            <mxPoint x="1256.5" y="538.5" as="targetPoint" />
            <Array as="points">
              <mxPoint x="559" y="386" />
              <mxPoint x="836" y="386" />
            </Array>
          </mxGeometry>
        </mxCell>
        <mxCell id="DLxVxTOSVOhKb8zi7Rkx-164" style="edgeStyle=orthogonalEdgeStyle;rounded=0;orthogonalLoop=1;jettySize=auto;html=1;fontSize=20;fontColor=#FFFFFF;startArrow=none;startFill=0;endArrow=classic;endFill=1;strokeColor=default;strokeWidth=2;" edge="1" parent="1">
          <mxGeometry relative="1" as="geometry">
            <mxPoint x="559" y="386" as="sourcePoint" />
            <mxPoint x="1599" y="424" as="targetPoint" />
            <Array as="points">
              <mxPoint x="1599" y="386" />
            </Array>
          </mxGeometry>
        </mxCell>
        <mxCell id="DLxVxTOSVOhKb8zi7Rkx-165" value="TCP : 443, 80" style="text;html=1;align=center;verticalAlign=middle;resizable=0;points=[];autosize=1;strokeColor=none;fillColor=none;fontSize=20;fontColor=#333333;" vertex="1" parent="1">
          <mxGeometry x="669" y="560" width="140" height="30" as="geometry" />
        </mxCell>
        <mxCell id="DLxVxTOSVOhKb8zi7Rkx-166" value="TCP : 22" style="text;html=1;align=center;verticalAlign=middle;resizable=0;points=[];autosize=1;strokeColor=none;fillColor=none;fontSize=20;fontColor=#333333;" vertex="1" parent="1">
          <mxGeometry x="776" y="349" width="90" height="30" as="geometry" />
        </mxCell>
        <mxCell id="DLxVxTOSVOhKb8zi7Rkx-167" value="TCP : 22" style="text;html=1;align=center;verticalAlign=middle;resizable=0;points=[];autosize=1;strokeColor=none;fillColor=none;fontSize=20;fontColor=#333333;" vertex="1" parent="1">
          <mxGeometry x="1159" y="356" width="90" height="30" as="geometry" />
        </mxCell>
        <mxCell id="DLxVxTOSVOhKb8zi7Rkx-168" value="TCP : 22" style="text;html=1;align=center;verticalAlign=middle;resizable=0;points=[];autosize=1;strokeColor=none;fillColor=none;fontSize=20;fontColor=#333333;" vertex="1" parent="1">
          <mxGeometry x="1549" y="356" width="90" height="30" as="geometry" />
        </mxCell>
        <mxCell id="DLxVxTOSVOhKb8zi7Rkx-169" value="Private IP&lt;br&gt;TCP : 8080" style="text;html=1;align=center;verticalAlign=middle;resizable=0;points=[];autosize=1;strokeColor=none;fillColor=none;fontSize=20;fontColor=#333333;" vertex="1" parent="1">
          <mxGeometry x="952.62" y="419" width="120" height="50" as="geometry" />
        </mxCell>
        <mxCell id="DLxVxTOSVOhKb8zi7Rkx-170" value="Private IP&lt;br&gt;TCP : 33066" style="text;html=1;align=center;verticalAlign=middle;resizable=0;points=[];autosize=1;strokeColor=none;fillColor=none;fontSize=20;fontColor=#333333;" vertex="1" parent="1">
          <mxGeometry x="1349" y="423" width="130" height="50" as="geometry" />
        </mxCell>
        <mxCell id="DLxVxTOSVOhKb8zi7Rkx-171" value="" style="sketch=0;outlineConnect=0;fontColor=#232F3E;gradientColor=none;fillColor=#F58534;strokeColor=none;dashed=0;verticalLabelPosition=bottom;verticalAlign=top;align=center;html=1;fontSize=12;fontStyle=0;aspect=fixed;pointerEvents=1;shape=mxgraph.aws4.rds_mariadb_instance;rounded=0;shadow=0;glass=0;labelBackgroundColor=none;labelBorderColor=none;" vertex="1" parent="1">
          <mxGeometry x="1649" y="491" width="78" height="78" as="geometry" />
        </mxCell>
        <mxCell id="DLxVxTOSVOhKb8zi7Rkx-172" style="edgeStyle=orthogonalEdgeStyle;rounded=0;orthogonalLoop=1;jettySize=auto;html=1;fontSize=20;fontColor=#000000;startArrow=none;startFill=0;endArrow=classic;endFill=1;strokeColor=default;strokeWidth=2;" edge="1" parent="1">
          <mxGeometry relative="1" as="geometry">
            <mxPoint x="169" y="941" as="targetPoint" />
            <mxPoint x="389" y="941" as="sourcePoint" />
          </mxGeometry>
        </mxCell>
        <mxCell id="DLxVxTOSVOhKb8zi7Rkx-173" value="" style="fontStyle=0;verticalAlign=top;align=center;spacingTop=-2;fillColor=none;rounded=0;whiteSpace=wrap;html=1;strokeColor=#FF0000;strokeWidth=4;dashed=1;container=1;collapsible=0;expand=0;recursiveResize=0;shadow=0;glass=0;labelBackgroundColor=none;labelBorderColor=none;sketch=0;fontSize=20;fontColor=#333333;" vertex="1" parent="1">
          <mxGeometry x="714.5" y="876" width="1007.5" height="130" as="geometry" />
        </mxCell>
        <mxCell id="DLxVxTOSVOhKb8zi7Rkx-174" value="Amazon EC2&lt;br&gt;Security Group" style="text;html=1;align=center;verticalAlign=middle;resizable=0;points=[];autosize=1;strokeColor=none;fillColor=none;fontSize=20;fontColor=#333333;" vertex="1" parent="DLxVxTOSVOhKb8zi7Rkx-173">
          <mxGeometry x="422.5" y="40" width="150" height="50" as="geometry" />
        </mxCell>
        <mxCell id="DLxVxTOSVOhKb8zi7Rkx-175" value="OutBound" style="text;html=1;strokeColor=none;fillColor=none;align=center;verticalAlign=middle;whiteSpace=wrap;rounded=0;shadow=0;glass=0;labelBackgroundColor=none;labelBorderColor=none;sketch=0;fontSize=20;fontColor=#000000;" vertex="1" parent="1">
          <mxGeometry x="806.5" y="736" width="60" height="30" as="geometry" />
        </mxCell>
        <mxCell id="DLxVxTOSVOhKb8zi7Rkx-176" value="" style="edgeStyle=orthogonalEdgeStyle;rounded=0;orthogonalLoop=1;jettySize=auto;html=1;fontSize=20;fontColor=#000000;startArrow=none;startFill=0;endArrow=none;endFill=1;strokeColor=default;strokeWidth=2;entryX=0.5;entryY=0;entryDx=0;entryDy=0;" edge="1" parent="1" source="DLxVxTOSVOhKb8zi7Rkx-154" target="DLxVxTOSVOhKb8zi7Rkx-175">
          <mxGeometry relative="1" as="geometry">
            <mxPoint x="836.5999999999999" y="534.5" as="sourcePoint" />
            <mxPoint x="835.4000000000001" y="802" as="targetPoint" />
          </mxGeometry>
        </mxCell>
        <mxCell id="DLxVxTOSVOhKb8zi7Rkx-177" value="OutBound" style="text;html=1;strokeColor=none;fillColor=none;align=center;verticalAlign=middle;whiteSpace=wrap;rounded=0;shadow=0;glass=0;labelBackgroundColor=none;labelBorderColor=none;sketch=0;fontSize=20;fontColor=#000000;" vertex="1" parent="1">
          <mxGeometry x="1186.5" y="736" width="60" height="30" as="geometry" />
        </mxCell>
        <mxCell id="DLxVxTOSVOhKb8zi7Rkx-178" value="" style="edgeStyle=orthogonalEdgeStyle;rounded=0;orthogonalLoop=1;jettySize=auto;html=1;entryX=0.5;entryY=0;entryDx=0;entryDy=0;fontSize=20;fontColor=#000000;startArrow=none;startFill=0;endArrow=none;endFill=1;strokeColor=default;strokeWidth=2;" edge="1" parent="1" source="DLxVxTOSVOhKb8zi7Rkx-157" target="DLxVxTOSVOhKb8zi7Rkx-177">
          <mxGeometry relative="1" as="geometry">
            <mxPoint x="1216.6" y="535.5" as="sourcePoint" />
            <mxPoint x="1218.25" y="806" as="targetPoint" />
          </mxGeometry>
        </mxCell>
        <mxCell id="DLxVxTOSVOhKb8zi7Rkx-179" value="" style="edgeStyle=orthogonalEdgeStyle;rounded=0;orthogonalLoop=1;jettySize=auto;html=1;fontSize=20;fontColor=#000000;startArrow=none;startFill=0;endArrow=none;endFill=1;strokeColor=default;strokeWidth=2;" edge="1" parent="1" source="DLxVxTOSVOhKb8zi7Rkx-173" target="DLxVxTOSVOhKb8zi7Rkx-180">
          <mxGeometry relative="1" as="geometry">
            <mxPoint x="499" y="941" as="targetPoint" />
            <mxPoint x="714.5" y="941" as="sourcePoint" />
          </mxGeometry>
        </mxCell>
        <mxCell id="DLxVxTOSVOhKb8zi7Rkx-180" value="OutBound" style="text;html=1;align=center;verticalAlign=middle;whiteSpace=wrap;rounded=0;shadow=0;glass=0;labelBackgroundColor=default;labelBorderColor=none;sketch=0;fontSize=20;" vertex="1" parent="1">
          <mxGeometry x="408.5" y="926" width="60" height="30" as="geometry" />
        </mxCell>
        <mxCell id="DLxVxTOSVOhKb8zi7Rkx-181" value="" style="fontStyle=0;verticalAlign=top;align=center;spacingTop=-2;fillColor=none;rounded=0;whiteSpace=wrap;html=1;strokeColor=#FF0000;strokeWidth=4;dashed=1;container=1;collapsible=0;expand=0;recursiveResize=0;shadow=0;glass=0;labelBackgroundColor=none;labelBorderColor=none;sketch=0;fontSize=20;fontColor=#333333;" vertex="1" parent="1">
          <mxGeometry x="428.5" y="515" width="190" height="91" as="geometry" />
        </mxCell>
        <mxCell id="DLxVxTOSVOhKb8zi7Rkx-182" value="&lt;font style=&quot;font-size: 42px&quot;&gt;AWS Network Diagram&lt;/font&gt;" style="text;html=1;align=center;verticalAlign=middle;resizable=0;points=[];autosize=1;fontSize=22;rounded=0;" vertex="1" parent="1">
          <mxGeometry x="40" y="40" width="450" height="40" as="geometry" />
        </mxCell>
        <mxCell id="DLxVxTOSVOhKb8zi7Rkx-183" value="&lt;span style=&quot;font-size: 20px&quot;&gt;Copyright 2021. &lt;br&gt;rojae all rights reserved.&lt;/span&gt;" style="text;html=1;align=left;verticalAlign=middle;resizable=0;points=[];autosize=1;fontSize=22;rounded=0;" vertex="1" parent="1">
          <mxGeometry x="1890" y="1120" width="230" height="60" as="geometry" />
        </mxCell>
      </root>
    </mxGraphModel>
  </diagram>
  <diagram id="RFpxWMll1NxLI9-8sRFb" name="시퀀스다이어그램 - 회원가입">
    <mxGraphModel dx="1142" dy="1828" grid="1" gridSize="10" guides="1" tooltips="1" connect="1" arrows="1" fold="1" page="1" pageScale="1" pageWidth="827" pageHeight="1169" math="0" shadow="0">
      <root>
        <mxCell id="0" />
        <mxCell id="1" parent="0" />
        <mxCell id="O6-n9lzt3qMUrGLmD-RV-2" value="" style="shape=ext;double=1;rounded=0;whiteSpace=wrap;html=1;fillColor=#f8cecc;strokeColor=#b85450;sketch=0;opacity=45;" vertex="1" parent="1">
          <mxGeometry x="276" y="6" width="275" height="1162" as="geometry" />
        </mxCell>
        <mxCell id="O6-n9lzt3qMUrGLmD-RV-20" value="union-api" style="shape=umlLifeline;perimeter=lifelinePerimeter;whiteSpace=wrap;html=1;container=1;collapsible=0;recursiveResize=0;outlineConnect=0;fontSize=10;" vertex="1" parent="1">
          <mxGeometry x="295" y="47" width="50" height="1120" as="geometry" />
        </mxCell>
        <mxCell id="O6-n9lzt3qMUrGLmD-RV-112" value="가입 세션 검증&lt;span style=&quot;color: rgba(0, 0, 0, 0); font-family: monospace; font-size: 0px; text-align: start; background-color: rgb(236, 236, 236);&quot;&gt;%3CmxGraphModel%3E%3Croot%3E%3CmxCell%20id%3D%220%22%2F%3E%3CmxCell%20id%3D%221%22%20parent%3D%220%22%2F%3E%3CmxCell%20id%3D%222%22%20value%3D%22%EA%B0%80%EC%9E%85%20%EC%84%B8%EC%85%98%20%EA%B2%80%EC%A6%9D%22%20style%3D%22html%3D1%3BverticalAlign%3Dbottom%3BendArrow%3Dopen%3BfontSize%3D9%3BexitX%3D0.96%3BexitY%3D0.477%3BexitDx%3D0%3BexitDy%3D0%3BexitPerimeter%3D0%3Bdashed%3D1%3BendFill%3D0%3B%22%20edge%3D%221%22%20parent%3D%221%22%3E%3CmxGeometry%20relative%3D%221%22%20as%3D%22geometry%22%3E%3CmxPoint%20x%3D%22141%22%20y%3D%221030%22%20as%3D%22sourcePoint%22%2F%3E%3CmxPoint%20x%3D%22320%22%20y%3D%221030%22%20as%3D%22targetPoint%22%2F%3E%3C%2FmxGeometry%3E%3C%2FmxCell%3E%3C%2Froot%3E%3C%2FmxGraphModel%3E&lt;/span&gt;" style="html=1;verticalAlign=bottom;endArrow=open;fontSize=9;exitX=0.96;exitY=0.477;exitDx=0;exitDy=0;exitPerimeter=0;dashed=1;endFill=0;" edge="1" parent="O6-n9lzt3qMUrGLmD-RV-20" target="O6-n9lzt3qMUrGLmD-RV-15">
          <mxGeometry relative="1" as="geometry">
            <mxPoint x="-155" y="973" as="sourcePoint" />
            <mxPoint x="395" y="973" as="targetPoint" />
          </mxGeometry>
        </mxCell>
        <mxCell id="O6-n9lzt3qMUrGLmD-RV-1" value="" style="shape=ext;double=1;rounded=0;whiteSpace=wrap;html=1;fillColor=#e1d5e7;strokeColor=#9673a6;glass=0;shadow=0;sketch=0;opacity=45;" vertex="1" parent="1">
          <mxGeometry x="552" y="8" width="275" height="1160" as="geometry" />
        </mxCell>
        <mxCell id="O6-n9lzt3qMUrGLmD-RV-3" value="" style="shape=ext;double=1;rounded=0;whiteSpace=wrap;html=1;fillColor=#fff2cc;strokeColor=#d6b656;sketch=0;opacity=45;" vertex="1" parent="1">
          <mxGeometry y="6" width="275" height="1162" as="geometry" />
        </mxCell>
        <mxCell id="O6-n9lzt3qMUrGLmD-RV-4" value="유저" style="shape=umlLifeline;perimeter=lifelinePerimeter;whiteSpace=wrap;html=1;container=1;collapsible=0;recursiveResize=0;outlineConnect=0;fontSize=10;" vertex="1" parent="1">
          <mxGeometry x="10" y="46" width="60" height="1118" as="geometry" />
        </mxCell>
        <mxCell id="O6-n9lzt3qMUrGLmD-RV-5" value="" style="html=1;points=[];perimeter=orthogonalPerimeter;fontSize=9;" vertex="1" parent="O6-n9lzt3qMUrGLmD-RV-4">
          <mxGeometry x="25" y="134" width="10" height="50" as="geometry" />
        </mxCell>
        <mxCell id="O6-n9lzt3qMUrGLmD-RV-6" value="" style="html=1;points=[];perimeter=orthogonalPerimeter;fontSize=9;" vertex="1" parent="O6-n9lzt3qMUrGLmD-RV-4">
          <mxGeometry x="25" y="234" width="10" height="236" as="geometry" />
        </mxCell>
        <mxCell id="O6-n9lzt3qMUrGLmD-RV-10" value="" style="html=1;points=[];perimeter=orthogonalPerimeter;fontSize=9;" vertex="1" parent="O6-n9lzt3qMUrGLmD-RV-4">
          <mxGeometry x="25" y="49" width="10" height="20" as="geometry" />
        </mxCell>
        <mxCell id="O6-n9lzt3qMUrGLmD-RV-11" value="" style="html=1;points=[];perimeter=orthogonalPerimeter;fontSize=9;" vertex="1" parent="O6-n9lzt3qMUrGLmD-RV-4">
          <mxGeometry x="25" y="860" width="10" height="240" as="geometry" />
        </mxCell>
        <mxCell id="O6-n9lzt3qMUrGLmD-RV-84" value="가입 기본정보 등룍" style="html=1;verticalAlign=bottom;endArrow=open;dashed=1;endSize=8;fontSize=9;" edge="1" parent="O6-n9lzt3qMUrGLmD-RV-4">
          <mxGeometry x="-0.186" y="4" relative="1" as="geometry">
            <mxPoint x="121" y="568" as="targetPoint" />
            <mxPoint x="35" y="568" as="sourcePoint" />
            <mxPoint as="offset" />
          </mxGeometry>
        </mxCell>
        <mxCell id="O6-n9lzt3qMUrGLmD-RV-94" value="" style="html=1;points=[];perimeter=orthogonalPerimeter;fontSize=9;" vertex="1" parent="O6-n9lzt3qMUrGLmD-RV-4">
          <mxGeometry x="25" y="654" width="10" height="156" as="geometry" />
        </mxCell>
        <mxCell id="O6-n9lzt3qMUrGLmD-RV-12" value="APP" style="shape=umlLifeline;perimeter=lifelinePerimeter;whiteSpace=wrap;html=1;container=1;collapsible=0;recursiveResize=0;outlineConnect=0;fontSize=10;" vertex="1" parent="1">
          <mxGeometry x="195" y="47" width="55" height="1116" as="geometry" />
        </mxCell>
        <mxCell id="O6-n9lzt3qMUrGLmD-RV-82" value="" style="endArrow=none;dashed=1;html=1;fontSize=10;entryX=0;entryY=0.5;entryDx=0;entryDy=0;entryPerimeter=0;" edge="1" parent="O6-n9lzt3qMUrGLmD-RV-12" target="O6-n9lzt3qMUrGLmD-RV-80">
          <mxGeometry width="50" height="50" relative="1" as="geometry">
            <mxPoint x="-95" y="504" as="sourcePoint" />
            <mxPoint x="35" y="590" as="targetPoint" />
          </mxGeometry>
        </mxCell>
        <mxCell id="O6-n9lzt3qMUrGLmD-RV-110" value="가입 세션에 마켓팅 동의여부 관련 데이터 추가" style="html=1;verticalAlign=bottom;endArrow=open;fontSize=9;exitX=0.96;exitY=0.477;exitDx=0;exitDy=0;exitPerimeter=0;dashed=1;endFill=0;" edge="1" parent="O6-n9lzt3qMUrGLmD-RV-12" target="O6-n9lzt3qMUrGLmD-RV-15">
          <mxGeometry relative="1" as="geometry">
            <mxPoint x="-55" y="954" as="sourcePoint" />
            <mxPoint x="493" y="954" as="targetPoint" />
          </mxGeometry>
        </mxCell>
        <mxCell id="O6-n9lzt3qMUrGLmD-RV-106" value="서비스와 관련된 신상품 소식, 이벤트 안내, 고객 혜택 등 다양한 정보를 제공합니다&lt;div&gt;- SMS 동의&lt;/div&gt;&lt;div&gt;- Email 동의&lt;/div&gt;" style="shape=note2;boundedLbl=1;whiteSpace=wrap;html=1;size=16;verticalAlign=top;align=left;fontSize=7;spacingLeft=5;" vertex="1" parent="O6-n9lzt3qMUrGLmD-RV-12">
          <mxGeometry x="-19" y="860" width="236" height="60" as="geometry" />
        </mxCell>
        <mxCell id="O6-n9lzt3qMUrGLmD-RV-107" value="마켓팅 동의여부 정보 (선택)" style="resizeWidth=1;part=1;strokeColor=none;fillColor=none;align=left;spacingLeft=5;fontSize=10;" vertex="1" parent="O6-n9lzt3qMUrGLmD-RV-106">
          <mxGeometry width="236.00000000000003" height="20" relative="1" as="geometry" />
        </mxCell>
        <mxCell id="O6-n9lzt3qMUrGLmD-RV-13" value="WEB" style="shape=umlLifeline;perimeter=lifelinePerimeter;whiteSpace=wrap;html=1;container=1;collapsible=0;recursiveResize=0;outlineConnect=0;fontSize=10;" vertex="1" parent="1">
          <mxGeometry x="110" y="46" width="50" height="1120" as="geometry" />
        </mxCell>
        <mxCell id="O6-n9lzt3qMUrGLmD-RV-14" value="" style="html=1;points=[];perimeter=orthogonalPerimeter;fontSize=10;" vertex="1" parent="O6-n9lzt3qMUrGLmD-RV-13">
          <mxGeometry x="20" y="60" width="10" height="1040" as="geometry" />
        </mxCell>
        <mxCell id="O6-n9lzt3qMUrGLmD-RV-91" value="가입 기본정보 검증" style="edgeStyle=orthogonalEdgeStyle;html=1;align=left;spacingLeft=2;endArrow=block;rounded=0;" edge="1" parent="O6-n9lzt3qMUrGLmD-RV-13">
          <mxGeometry relative="1" as="geometry">
            <mxPoint x="30" y="574" as="sourcePoint" />
            <Array as="points">
              <mxPoint x="60" y="574" />
              <mxPoint x="60" y="594" />
            </Array>
            <mxPoint x="35" y="594" as="targetPoint" />
          </mxGeometry>
        </mxCell>
        <mxCell id="O6-n9lzt3qMUrGLmD-RV-92" value="" style="html=1;points=[];perimeter=orthogonalPerimeter;" vertex="1" parent="O6-n9lzt3qMUrGLmD-RV-13">
          <mxGeometry x="25" y="585" width="10" height="20" as="geometry" />
        </mxCell>
        <mxCell id="O6-n9lzt3qMUrGLmD-RV-98" value="" style="endArrow=none;dashed=1;html=1;fontSize=10;entryX=0;entryY=0.5;entryDx=0;entryDy=0;entryPerimeter=0;" edge="1" parent="O6-n9lzt3qMUrGLmD-RV-13">
          <mxGeometry width="50" height="50" relative="1" as="geometry">
            <mxPoint x="-20" y="674" as="sourcePoint" />
            <mxPoint x="67.5" y="709" as="targetPoint" />
          </mxGeometry>
        </mxCell>
        <mxCell id="O6-n9lzt3qMUrGLmD-RV-15" value="Redis" style="shape=umlLifeline;perimeter=lifelinePerimeter;whiteSpace=wrap;html=1;container=1;collapsible=0;recursiveResize=0;outlineConnect=0;fontSize=10;size=40;" vertex="1" parent="1">
          <mxGeometry x="667" y="49" width="50" height="1120" as="geometry" />
        </mxCell>
        <mxCell id="O6-n9lzt3qMUrGLmD-RV-71" value="&lt;font style=&quot;font-size: 8px;&quot;&gt;이메일 인증코드 생성 및 기록&lt;/font&gt;" style="endArrow=open;html=1;rounded=0;dashed=1;endFill=0;" edge="1" parent="O6-n9lzt3qMUrGLmD-RV-15">
          <mxGeometry x="-0.1074" y="10" width="50" height="50" relative="1" as="geometry">
            <mxPoint x="-58.64999999999998" y="351" as="sourcePoint" />
            <mxPoint x="112" y="351" as="targetPoint" />
            <mxPoint as="offset" />
          </mxGeometry>
        </mxCell>
        <mxCell id="O6-n9lzt3qMUrGLmD-RV-16" value="Mariadb" style="shape=umlLifeline;perimeter=lifelinePerimeter;whiteSpace=wrap;html=1;container=1;collapsible=0;recursiveResize=0;outlineConnect=0;fontSize=10;" vertex="1" parent="1">
          <mxGeometry x="754" y="47" width="50" height="1120" as="geometry" />
        </mxCell>
        <mxCell id="O6-n9lzt3qMUrGLmD-RV-17" value="이용자&amp;nbsp;" style="html=1;fontSize=10;" vertex="1" parent="1">
          <mxGeometry x="10" y="11" width="60" height="30" as="geometry" />
        </mxCell>
        <mxCell id="O6-n9lzt3qMUrGLmD-RV-19" value="인증 백엔드 서비스" style="html=1;fontSize=10;" vertex="1" parent="1">
          <mxGeometry x="295" y="12" width="240" height="30" as="geometry" />
        </mxCell>
        <mxCell id="O6-n9lzt3qMUrGLmD-RV-21" value="메시징 서비스" style="html=1;fontSize=10;" vertex="1" parent="1">
          <mxGeometry x="576.5" y="12" width="63" height="30" as="geometry" />
        </mxCell>
        <mxCell id="O6-n9lzt3qMUrGLmD-RV-22" value="DataSource" style="html=1;fontSize=10;" vertex="1" parent="1">
          <mxGeometry x="660" y="12" width="144" height="30" as="geometry" />
        </mxCell>
        <mxCell id="O6-n9lzt3qMUrGLmD-RV-24" value="서비스 가입 신청" style="html=1;verticalAlign=bottom;endArrow=block;entryX=0;entryY=0;fontSize=9;exitX=0.943;exitY=0.569;exitDx=0;exitDy=0;exitPerimeter=0;" edge="1" parent="1" source="O6-n9lzt3qMUrGLmD-RV-10" target="O6-n9lzt3qMUrGLmD-RV-14">
          <mxGeometry relative="1" as="geometry">
            <mxPoint x="50" y="192" as="sourcePoint" />
          </mxGeometry>
        </mxCell>
        <mxCell id="O6-n9lzt3qMUrGLmD-RV-25" value="서비스 이용 약관&lt;br&gt;및 개인정보수집&lt;br&gt;동의 요청" style="html=1;verticalAlign=bottom;endArrow=block;entryX=1;entryY=0;fontSize=9;" edge="1" parent="1" target="O6-n9lzt3qMUrGLmD-RV-5">
          <mxGeometry relative="1" as="geometry">
            <mxPoint x="130" y="180" as="sourcePoint" />
          </mxGeometry>
        </mxCell>
        <mxCell id="O6-n9lzt3qMUrGLmD-RV-26" value="동의&lt;br&gt;(미동의 시 서비스&lt;br&gt;이용 불가)" style="html=1;verticalAlign=bottom;endArrow=open;dashed=1;endSize=8;exitX=1;exitY=0.95;fontSize=9;" edge="1" parent="1" source="O6-n9lzt3qMUrGLmD-RV-5">
          <mxGeometry relative="1" as="geometry">
            <mxPoint x="130" y="227.5" as="targetPoint" />
          </mxGeometry>
        </mxCell>
        <mxCell id="O6-n9lzt3qMUrGLmD-RV-27" value="이메일 인증 요청" style="html=1;verticalAlign=bottom;endArrow=block;entryX=1;entryY=0;fontSize=9;" edge="1" parent="1" target="O6-n9lzt3qMUrGLmD-RV-6">
          <mxGeometry relative="1" as="geometry">
            <mxPoint x="130" y="280" as="sourcePoint" />
          </mxGeometry>
        </mxCell>
        <mxCell id="O6-n9lzt3qMUrGLmD-RV-28" value="이메일 기입 및 인증 발송" style="html=1;verticalAlign=bottom;endArrow=open;dashed=1;endSize=8;exitX=0.86;exitY=0.51;fontSize=9;exitDx=0;exitDy=0;exitPerimeter=0;entryX=0.16;entryY=0.273;entryDx=0;entryDy=0;entryPerimeter=0;" edge="1" parent="1">
          <mxGeometry relative="1" as="geometry">
            <mxPoint x="131.5999999999999" y="327.9580000000001" as="targetPoint" />
            <mxPoint x="43.59999999999991" y="327.15999999999985" as="sourcePoint" />
          </mxGeometry>
        </mxCell>
        <mxCell id="O6-n9lzt3qMUrGLmD-RV-29" value="Message&amp;nbsp;&lt;div&gt;API&lt;/div&gt;" style="shape=umlLifeline;perimeter=lifelinePerimeter;whiteSpace=wrap;html=1;container=1;collapsible=0;recursiveResize=0;outlineConnect=0;fontSize=10;" vertex="1" parent="1">
          <mxGeometry x="583" y="47" width="50" height="1120" as="geometry" />
        </mxCell>
        <mxCell id="O6-n9lzt3qMUrGLmD-RV-32" value="" style="endArrow=none;dashed=1;html=1;fontSize=10;" edge="1" parent="1" target="O6-n9lzt3qMUrGLmD-RV-44">
          <mxGeometry width="50" height="50" relative="1" as="geometry">
            <mxPoint x="100" y="180" as="sourcePoint" />
            <mxPoint x="310" y="298" as="targetPoint" />
          </mxGeometry>
        </mxCell>
        <mxCell id="O6-n9lzt3qMUrGLmD-RV-33" value="1.0.0. 회원가입 서비스" style="html=1;fontSize=20;dashed=1;" vertex="1" parent="1">
          <mxGeometry x="2" y="-690" width="820" height="90" as="geometry" />
        </mxCell>
        <mxCell id="O6-n9lzt3qMUrGLmD-RV-37" value="&lt;font style=&quot;font-size: 8px;&quot;&gt;기가입 확인&lt;/font&gt;" style="html=1;verticalAlign=bottom;endArrow=block;dashed=1;" edge="1" parent="1">
          <mxGeometry x="0.0044" relative="1" as="geometry">
            <mxPoint x="140" y="802" as="sourcePoint" />
            <mxPoint x="320" y="802" as="targetPoint" />
            <Array as="points">
              <mxPoint x="240" y="802" />
            </Array>
            <mxPoint as="offset" />
          </mxGeometry>
        </mxCell>
        <mxCell id="O6-n9lzt3qMUrGLmD-RV-39" value="core-api" style="shape=umlLifeline;perimeter=lifelinePerimeter;whiteSpace=wrap;html=1;container=1;collapsible=0;recursiveResize=0;outlineConnect=0;fontSize=10;" vertex="1" parent="1">
          <mxGeometry x="390" y="47" width="50" height="1120" as="geometry" />
        </mxCell>
        <mxCell id="O6-n9lzt3qMUrGLmD-RV-67" value="이메일 인증코드 발송" style="html=1;verticalAlign=bottom;endArrow=open;dashed=1;endSize=8;exitX=1.04;exitY=0.294;fontSize=9;exitDx=0;exitDy=0;exitPerimeter=0;" edge="1" parent="O6-n9lzt3qMUrGLmD-RV-39">
          <mxGeometry relative="1" as="geometry">
            <mxPoint x="220" y="333" as="targetPoint" />
            <mxPoint x="-249.99999999999991" y="333.0039999999997" as="sourcePoint" />
          </mxGeometry>
        </mxCell>
        <mxCell id="O6-n9lzt3qMUrGLmD-RV-113" value="회원가입 프로세스 진행" style="html=1;verticalAlign=bottom;endArrow=open;fontSize=9;exitX=0.96;exitY=0.477;exitDx=0;exitDy=0;exitPerimeter=0;dashed=1;endFill=0;" edge="1" parent="O6-n9lzt3qMUrGLmD-RV-39">
          <mxGeometry relative="1" as="geometry">
            <mxPoint x="-249" y="993" as="sourcePoint" />
            <mxPoint x="-70" y="993" as="targetPoint" />
          </mxGeometry>
        </mxCell>
        <mxCell id="O6-n9lzt3qMUrGLmD-RV-114" value="계정 생성 요청" style="html=1;verticalAlign=bottom;endArrow=open;fontSize=9;exitX=0.96;exitY=0.477;exitDx=0;exitDy=0;exitPerimeter=0;dashed=1;endFill=0;" edge="1" parent="O6-n9lzt3qMUrGLmD-RV-39">
          <mxGeometry x="-0.0044" relative="1" as="geometry">
            <mxPoint x="-70" y="1003" as="sourcePoint" />
            <mxPoint x="20" y="1003" as="targetPoint" />
            <mxPoint as="offset" />
          </mxGeometry>
        </mxCell>
        <mxCell id="O6-n9lzt3qMUrGLmD-RV-118" value="가입 환영 메일 발송" style="html=1;verticalAlign=bottom;endArrow=open;fontSize=9;dashed=1;endFill=0;" edge="1" parent="O6-n9lzt3qMUrGLmD-RV-39">
          <mxGeometry relative="1" as="geometry">
            <mxPoint x="-69.99999999999994" y="1033" as="sourcePoint" />
            <mxPoint x="220" y="1033" as="targetPoint" />
          </mxGeometry>
        </mxCell>
        <mxCell id="O6-n9lzt3qMUrGLmD-RV-119" value="가입완료로 인한 가입 세션 만료 처리" style="html=1;verticalAlign=bottom;endArrow=open;fontSize=9;dashed=1;endFill=0;" edge="1" parent="O6-n9lzt3qMUrGLmD-RV-39">
          <mxGeometry relative="1" as="geometry">
            <mxPoint x="-250.74999999999994" y="1083" as="sourcePoint" />
            <mxPoint x="300.75" y="1083" as="targetPoint" />
          </mxGeometry>
        </mxCell>
        <mxCell id="O6-n9lzt3qMUrGLmD-RV-51" value="인증 프론트엔드 서비스" style="html=1;fontSize=10;" vertex="1" parent="1">
          <mxGeometry x="110" y="12" width="140" height="30" as="geometry" />
        </mxCell>
        <mxCell id="O6-n9lzt3qMUrGLmD-RV-58" value="&lt;font style=&quot;font-size: 8px;&quot;&gt;닉네임 사용 가능 여부 확인&lt;/font&gt;" style="html=1;verticalAlign=bottom;endArrow=block;dashed=1;" edge="1" parent="1" target="O6-n9lzt3qMUrGLmD-RV-39">
          <mxGeometry x="0.0582" relative="1" as="geometry">
            <mxPoint x="320" y="810" as="sourcePoint" />
            <mxPoint x="410" y="810" as="targetPoint" />
            <Array as="points" />
            <mxPoint as="offset" />
          </mxGeometry>
        </mxCell>
        <mxCell id="O6-n9lzt3qMUrGLmD-RV-62" value="가입 세션 생성 TTL 30min" style="html=1;verticalAlign=bottom;endArrow=open;fontSize=9;exitX=0.96;exitY=0.018;exitDx=0;exitDy=0;exitPerimeter=0;dashed=1;endFill=0;" edge="1" parent="1" source="O6-n9lzt3qMUrGLmD-RV-14" target="O6-n9lzt3qMUrGLmD-RV-15">
          <mxGeometry relative="1" as="geometry">
            <mxPoint x="170" y="140" as="sourcePoint" />
            <mxPoint x="263" y="130" as="targetPoint" />
          </mxGeometry>
        </mxCell>
        <mxCell id="O6-n9lzt3qMUrGLmD-RV-64" value="세션에 동의 정보 저장" style="endArrow=open;html=1;rounded=0;exitX=1.2;exitY=0.147;exitDx=0;exitDy=0;exitPerimeter=0;dashed=1;endFill=0;" edge="1" parent="1" source="O6-n9lzt3qMUrGLmD-RV-14" target="O6-n9lzt3qMUrGLmD-RV-15">
          <mxGeometry x="0.6306" y="10" width="50" height="50" relative="1" as="geometry">
            <mxPoint x="150" y="280" as="sourcePoint" />
            <mxPoint x="200" y="230" as="targetPoint" />
            <mxPoint as="offset" />
          </mxGeometry>
        </mxCell>
        <mxCell id="O6-n9lzt3qMUrGLmD-RV-44" value="&lt;span style=&quot;background-color: rgb(255, 255, 255);&quot;&gt;&lt;font style=&quot;font-size: 6px;&quot;&gt;&lt;span style=&quot;font-family: &amp;quot;Nanum Gothic&amp;quot;, sans-serif;&quot;&gt;① 개인정보 수집 항목 및 수집·이용 목적&lt;/span&gt;&lt;br style=&quot;box-sizing: border-box; font-family: &amp;quot;Nanum Gothic&amp;quot;, sans-serif;&quot;&gt;&lt;span style=&quot;font-family: &amp;quot;Nanum Gothic&amp;quot;, sans-serif;&quot;&gt;가) 수집 항목 (필수항목)&lt;/span&gt;&lt;br style=&quot;box-sizing: border-box; font-family: &amp;quot;Nanum Gothic&amp;quot;, sans-serif;&quot;&gt;&lt;span style=&quot;font-family: &amp;quot;Nanum Gothic&amp;quot;, sans-serif;&quot;&gt;- 성명(국문), 주민등록번호(생일/성별), 주소, 전화번호(휴대전화), 사진, 이메일, 나이 기재된 정보 또는 신청자가 제공한 정보&lt;/span&gt;&lt;br style=&quot;box-sizing: border-box; font-family: &amp;quot;Nanum Gothic&amp;quot;, sans-serif;&quot;&gt;&lt;span style=&quot;font-family: &amp;quot;Nanum Gothic&amp;quot;, sans-serif;&quot;&gt;나) 수집 및 이용 목적&lt;/span&gt;&lt;br style=&quot;box-sizing: border-box; font-family: &amp;quot;Nanum Gothic&amp;quot;, sans-serif;&quot;&gt;&lt;span style=&quot;font-family: &amp;quot;Nanum Gothic&amp;quot;, sans-serif;&quot;&gt;- 서비스 제공 및 자격확인&lt;/span&gt;&lt;br style=&quot;box-sizing: border-box; font-family: &amp;quot;Nanum Gothic&amp;quot;, sans-serif;&quot;&gt;&lt;span style=&quot;font-family: &amp;quot;Nanum Gothic&amp;quot;, sans-serif;&quot;&gt;- 서비사 사용자 자원관리&lt;/span&gt;&lt;br style=&quot;box-sizing: border-box; font-family: &amp;quot;Nanum Gothic&amp;quot;, sans-serif;&quot;&gt;&lt;br style=&quot;box-sizing: border-box; font-family: &amp;quot;Nanum Gothic&amp;quot;, sans-serif;&quot;&gt;&lt;span style=&quot;font-family: &amp;quot;Nanum Gothic&amp;quot;, sans-serif;&quot;&gt;② 개인정보 보유 및 이용기간&lt;/span&gt;&lt;br style=&quot;box-sizing: border-box; font-family: &amp;quot;Nanum Gothic&amp;quot;, sans-serif;&quot;&gt;&lt;span style=&quot;font-family: &amp;quot;Nanum Gothic&amp;quot;, sans-serif;&quot;&gt;- 수집·이용 동의일로부터 탈퇴 이후 2년까지 보관&lt;/span&gt;&lt;br style=&quot;box-sizing: border-box; font-family: &amp;quot;Nanum Gothic&amp;quot;, sans-serif;&quot;&gt;&lt;br style=&quot;box-sizing: border-box; font-family: &amp;quot;Nanum Gothic&amp;quot;, sans-serif;&quot;&gt;&lt;span style=&quot;font-family: &amp;quot;Nanum Gothic&amp;quot;, sans-serif;&quot;&gt;③ 동의거부관리&lt;/span&gt;&lt;br style=&quot;box-sizing: border-box; font-family: &amp;quot;Nanum Gothic&amp;quot;, sans-serif;&quot;&gt;&lt;span style=&quot;font-family: &amp;quot;Nanum Gothic&amp;quot;, sans-serif;&quot;&gt;- 귀하께서는 본 안내에 따른 개인정보 수집, 이용에 대하여 동의를 거부하실 권리가 있습니다.&lt;/span&gt;&lt;br style=&quot;box-sizing: border-box; font-family: &amp;quot;Nanum Gothic&amp;quot;, sans-serif;&quot;&gt;&lt;span style=&quot;font-family: &amp;quot;Nanum Gothic&amp;quot;, sans-serif;&quot;&gt;다만, 필수 약관의 경우 서비스에 제약이 있을 수 있습니다.&lt;/span&gt;&lt;/font&gt;&lt;/span&gt;" style="shape=note2;boundedLbl=1;whiteSpace=wrap;html=1;size=16;verticalAlign=top;align=left;fontSize=7;spacingLeft=5;" vertex="1" parent="1">
          <mxGeometry x="170" y="130" width="360" height="140" as="geometry" />
        </mxCell>
        <mxCell id="O6-n9lzt3qMUrGLmD-RV-45" value="가입 동의 정보 (필수)" style="resizeWidth=1;part=1;strokeColor=none;fillColor=none;align=left;spacingLeft=5;fontSize=10;" vertex="1" parent="O6-n9lzt3qMUrGLmD-RV-44">
          <mxGeometry width="360.00000000000006" height="20" relative="1" as="geometry" />
        </mxCell>
        <mxCell id="O6-n9lzt3qMUrGLmD-RV-66" value="&lt;font style=&quot;font-size: 8px;&quot;&gt;기가입 확인&lt;/font&gt;" style="endArrow=classic;html=1;rounded=0;exitX=1;exitY=0.277;exitDx=0;exitDy=0;exitPerimeter=0;entryX=0.5;entryY=0.262;entryDx=0;entryDy=0;entryPerimeter=0;dashed=1;" edge="1" parent="1">
          <mxGeometry x="-0.0001" y="10" width="50" height="50" relative="1" as="geometry">
            <mxPoint x="140" y="345.34199999999964" as="sourcePoint" />
            <mxPoint x="320" y="345.44000000000005" as="targetPoint" />
            <mxPoint as="offset" />
          </mxGeometry>
        </mxCell>
        <mxCell id="O6-n9lzt3qMUrGLmD-RV-69" value="&lt;font style=&quot;font-size: 8px;&quot;&gt;이메일 중복 체크&lt;/font&gt;" style="endArrow=classic;html=1;rounded=0;exitX=1;exitY=0.277;exitDx=0;exitDy=0;exitPerimeter=0;dashed=1;" edge="1" parent="1" target="O6-n9lzt3qMUrGLmD-RV-39">
          <mxGeometry x="0.0582" y="10" width="50" height="50" relative="1" as="geometry">
            <mxPoint x="320" y="350" as="sourcePoint" />
            <mxPoint x="410" y="350" as="targetPoint" />
            <mxPoint as="offset" />
          </mxGeometry>
        </mxCell>
        <mxCell id="O6-n9lzt3qMUrGLmD-RV-70" value="&lt;font style=&quot;font-size: 8px;&quot;&gt;이메일 중복 체크&lt;/font&gt;" style="endArrow=open;html=1;rounded=0;exitX=0.48;exitY=0.278;exitDx=0;exitDy=0;exitPerimeter=0;dashed=1;endFill=0;" edge="1" parent="1" source="O6-n9lzt3qMUrGLmD-RV-39" target="O6-n9lzt3qMUrGLmD-RV-16">
          <mxGeometry x="-0.1074" y="10" width="50" height="50" relative="1" as="geometry">
            <mxPoint x="420" y="360" as="sourcePoint" />
            <mxPoint x="425" y="360" as="targetPoint" />
            <mxPoint as="offset" />
          </mxGeometry>
        </mxCell>
        <mxCell id="O6-n9lzt3qMUrGLmD-RV-65" value="이메일 인증코드 요청" style="html=1;verticalAlign=bottom;endArrow=block;fontSize=9;entryX=1.02;entryY=0.58;entryDx=0;entryDy=0;entryPerimeter=0;" edge="1" parent="1" target="O6-n9lzt3qMUrGLmD-RV-6">
          <mxGeometry relative="1" as="geometry">
            <mxPoint x="129" y="416" as="sourcePoint" />
            <mxPoint x="45" y="390.00199999999984" as="targetPoint" />
          </mxGeometry>
        </mxCell>
        <mxCell id="O6-n9lzt3qMUrGLmD-RV-72" value="이메일 인증코드 검증" style="html=1;verticalAlign=bottom;endArrow=open;dashed=1;endSize=8;fontSize=9;" edge="1" parent="1">
          <mxGeometry x="0.0047" relative="1" as="geometry">
            <mxPoint x="130" y="450" as="targetPoint" />
            <mxPoint x="44" y="450" as="sourcePoint" />
            <mxPoint as="offset" />
          </mxGeometry>
        </mxCell>
        <mxCell id="O6-n9lzt3qMUrGLmD-RV-73" value="소유인증 검증요청" style="html=1;verticalAlign=bottom;endArrow=open;dashed=1;endSize=8;fontSize=9;exitX=1.28;exitY=0.42;exitDx=0;exitDy=0;exitPerimeter=0;" edge="1" parent="1" source="O6-n9lzt3qMUrGLmD-RV-14" target="O6-n9lzt3qMUrGLmD-RV-29">
          <mxGeometry relative="1" as="geometry">
            <mxPoint x="295" y="516" as="targetPoint" />
            <mxPoint x="209" y="516" as="sourcePoint" />
          </mxGeometry>
        </mxCell>
        <mxCell id="O6-n9lzt3qMUrGLmD-RV-74" value="&lt;span style=&quot;font-size: 8px;&quot;&gt;소유인증 검증진행&lt;/span&gt;" style="endArrow=open;html=1;rounded=0;dashed=1;endFill=0;" edge="1" parent="1">
          <mxGeometry x="-0.1074" y="10" width="50" height="50" relative="1" as="geometry">
            <mxPoint x="613.35" y="480" as="sourcePoint" />
            <mxPoint x="784" y="480" as="targetPoint" />
            <mxPoint as="offset" />
          </mxGeometry>
        </mxCell>
        <mxCell id="O6-n9lzt3qMUrGLmD-RV-75" value="가입 세션에 인증 관련 데이터 추가" style="html=1;verticalAlign=bottom;endArrow=open;fontSize=9;exitX=0.96;exitY=0.387;exitDx=0;exitDy=0;exitPerimeter=0;dashed=1;endFill=0;" edge="1" parent="1" source="O6-n9lzt3qMUrGLmD-RV-14">
          <mxGeometry relative="1" as="geometry">
            <mxPoint x="144" y="510" as="sourcePoint" />
            <mxPoint x="690" y="510" as="targetPoint" />
          </mxGeometry>
        </mxCell>
        <mxCell id="O6-n9lzt3qMUrGLmD-RV-78" value="" style="html=1;points=[];perimeter=orthogonalPerimeter;fontSize=9;" vertex="1" parent="1">
          <mxGeometry x="35" y="540" width="10" height="140" as="geometry" />
        </mxCell>
        <mxCell id="O6-n9lzt3qMUrGLmD-RV-79" value="가입 기본정보 등록 요청" style="html=1;verticalAlign=bottom;endArrow=block;fontSize=9;entryX=0.94;entryY=0.053;entryDx=0;entryDy=0;entryPerimeter=0;" edge="1" parent="1" target="O6-n9lzt3qMUrGLmD-RV-78">
          <mxGeometry x="-0.063" y="-7" relative="1" as="geometry">
            <mxPoint x="130" y="547" as="sourcePoint" />
            <mxPoint x="42" y="548.3159999999998" as="targetPoint" />
            <mxPoint as="offset" />
          </mxGeometry>
        </mxCell>
        <mxCell id="O6-n9lzt3qMUrGLmD-RV-80" value="&lt;span style=&quot;font-family: &amp;quot;Nanum Gothic&amp;quot;, sans-serif; background-color: rgb(255, 255, 255);&quot;&gt;&lt;font style=&quot;font-size: 6px; color: rgb(7, 7, 8);&quot;&gt;패스워드는 영어, 숫자, 특수문자의 조합으로 8자 이상 15자 이하만 가능합니다&lt;/font&gt;&lt;/span&gt;" style="shape=note2;boundedLbl=1;whiteSpace=wrap;html=1;size=16;verticalAlign=top;align=left;fontSize=7;spacingLeft=5;" vertex="1" parent="1">
          <mxGeometry x="174" y="560" width="240" height="50" as="geometry" />
        </mxCell>
        <mxCell id="O6-n9lzt3qMUrGLmD-RV-81" value="가입 기본 정보" style="resizeWidth=1;part=1;strokeColor=none;fillColor=none;align=left;spacingLeft=5;fontSize=10;" vertex="1" parent="O6-n9lzt3qMUrGLmD-RV-80">
          <mxGeometry width="240.00000000000003" height="20" relative="1" as="geometry" />
        </mxCell>
        <mxCell id="O6-n9lzt3qMUrGLmD-RV-93" value="가입 세션에 기본정보 관련 데이터 추가" style="html=1;verticalAlign=bottom;endArrow=open;fontSize=9;exitX=0.96;exitY=0.477;exitDx=0;exitDy=0;exitPerimeter=0;dashed=1;endFill=0;" edge="1" parent="1">
          <mxGeometry relative="1" as="geometry">
            <mxPoint x="142" y="670" as="sourcePoint" />
            <mxPoint x="690" y="670" as="targetPoint" />
          </mxGeometry>
        </mxCell>
        <mxCell id="O6-n9lzt3qMUrGLmD-RV-95" value="가입 고객정보 등록 요청" style="html=1;verticalAlign=bottom;endArrow=block;fontSize=9;entryX=0.94;entryY=0.053;entryDx=0;entryDy=0;entryPerimeter=0;exitX=0;exitY=0.522;exitDx=0;exitDy=0;exitPerimeter=0;" edge="1" parent="1">
          <mxGeometry x="-0.063" y="-7" relative="1" as="geometry">
            <mxPoint x="131" y="721" as="sourcePoint" />
            <mxPoint x="45" y="720" as="targetPoint" />
            <mxPoint as="offset" />
          </mxGeometry>
        </mxCell>
        <mxCell id="O6-n9lzt3qMUrGLmD-RV-96" value="1. 성함을 입력해주세요&lt;div&gt;2. 닉네임은 10자 이하로만 가능합니다.&lt;/div&gt;&lt;div&gt;3. 주민등록번호 앞자리와 성별코드를 입력해주세요.&lt;/div&gt;&lt;div&gt;4. 휴대폰 번호를 입력해주세요&lt;/div&gt;" style="shape=note2;boundedLbl=1;whiteSpace=wrap;html=1;size=16;verticalAlign=top;align=left;fontSize=7;spacingLeft=5;" vertex="1" parent="1">
          <mxGeometry x="174" y="720" width="236" height="60" as="geometry" />
        </mxCell>
        <mxCell id="O6-n9lzt3qMUrGLmD-RV-97" value="가입 고객 정보" style="resizeWidth=1;part=1;strokeColor=none;fillColor=none;align=left;spacingLeft=5;fontSize=10;" vertex="1" parent="O6-n9lzt3qMUrGLmD-RV-96">
          <mxGeometry width="236.00000000000003" height="20" relative="1" as="geometry" />
        </mxCell>
        <mxCell id="O6-n9lzt3qMUrGLmD-RV-99" value="&lt;font style=&quot;font-size: 8px;&quot;&gt;닉네임 중복 체크&lt;/font&gt;" style="endArrow=open;html=1;rounded=0;exitX=0.48;exitY=0.278;exitDx=0;exitDy=0;exitPerimeter=0;dashed=1;endFill=0;" edge="1" parent="1">
          <mxGeometry x="-0.1074" y="10" width="50" height="50" relative="1" as="geometry">
            <mxPoint x="415" y="820" as="sourcePoint" />
            <mxPoint x="780" y="820" as="targetPoint" />
            <mxPoint as="offset" />
          </mxGeometry>
        </mxCell>
        <mxCell id="O6-n9lzt3qMUrGLmD-RV-100" value="가입 세션에 고객정보 관련 데이터 추가" style="html=1;verticalAlign=bottom;endArrow=open;fontSize=9;exitX=0.96;exitY=0.477;exitDx=0;exitDy=0;exitPerimeter=0;dashed=1;endFill=0;" edge="1" parent="1" target="O6-n9lzt3qMUrGLmD-RV-15">
          <mxGeometry relative="1" as="geometry">
            <mxPoint x="142" y="840" as="sourcePoint" />
            <mxPoint x="690" y="840" as="targetPoint" />
          </mxGeometry>
        </mxCell>
        <mxCell id="O6-n9lzt3qMUrGLmD-RV-103" value="가입 고객정보 등록" style="html=1;verticalAlign=bottom;endArrow=open;dashed=1;endSize=8;fontSize=9;" edge="1" parent="1">
          <mxGeometry x="0.0465" relative="1" as="geometry">
            <mxPoint x="131" y="790" as="targetPoint" />
            <mxPoint x="45" y="790" as="sourcePoint" />
            <mxPoint as="offset" />
          </mxGeometry>
        </mxCell>
        <mxCell id="O6-n9lzt3qMUrGLmD-RV-105" value="가입 마켓팅 동의여부 요청" style="html=1;verticalAlign=bottom;endArrow=block;fontSize=9;entryX=0.94;entryY=0.053;entryDx=0;entryDy=0;entryPerimeter=0;exitX=0;exitY=0.522;exitDx=0;exitDy=0;exitPerimeter=0;" edge="1" parent="1">
          <mxGeometry x="-0.063" y="-7" relative="1" as="geometry">
            <mxPoint x="131" y="921" as="sourcePoint" />
            <mxPoint x="45" y="920" as="targetPoint" />
            <mxPoint as="offset" />
          </mxGeometry>
        </mxCell>
        <mxCell id="O6-n9lzt3qMUrGLmD-RV-108" value="" style="endArrow=none;dashed=1;html=1;fontSize=10;entryX=0;entryY=0.5;entryDx=0;entryDy=0;entryPerimeter=0;" edge="1" parent="1">
          <mxGeometry width="50" height="50" relative="1" as="geometry">
            <mxPoint x="88.5" y="920" as="sourcePoint" />
            <mxPoint x="176" y="955" as="targetPoint" />
          </mxGeometry>
        </mxCell>
        <mxCell id="O6-n9lzt3qMUrGLmD-RV-109" value="가입 마켓팅 정보 등록" style="html=1;verticalAlign=bottom;endArrow=open;dashed=1;endSize=8;fontSize=9;" edge="1" parent="1">
          <mxGeometry x="0.0465" relative="1" as="geometry">
            <mxPoint x="131" y="980" as="targetPoint" />
            <mxPoint x="45" y="980" as="sourcePoint" />
            <mxPoint as="offset" />
          </mxGeometry>
        </mxCell>
        <mxCell id="O6-n9lzt3qMUrGLmD-RV-117" value="회원 생성" style="html=1;verticalAlign=bottom;endArrow=open;fontSize=9;dashed=1;endFill=0;" edge="1" parent="1" target="O6-n9lzt3qMUrGLmD-RV-16">
          <mxGeometry relative="1" as="geometry">
            <mxPoint x="414.00000000000006" y="1060" as="sourcePoint" />
            <mxPoint x="779.3" y="1060" as="targetPoint" />
          </mxGeometry>
        </mxCell>
        <mxCell id="O6-n9lzt3qMUrGLmD-RV-120" value="회원가입 완료 메시지&lt;div&gt;로그인 페이지로 이동&lt;/div&gt;" style="html=1;verticalAlign=bottom;endArrow=block;fontSize=9;entryX=0.94;entryY=0.053;entryDx=0;entryDy=0;entryPerimeter=0;exitX=0;exitY=0.522;exitDx=0;exitDy=0;exitPerimeter=0;" edge="1" parent="1">
          <mxGeometry x="-0.0437" y="-11" relative="1" as="geometry">
            <mxPoint x="131" y="1091" as="sourcePoint" />
            <mxPoint x="45" y="1090" as="targetPoint" />
            <mxPoint as="offset" />
          </mxGeometry>
        </mxCell>
      </root>
    </mxGraphModel>
  </diagram>
  <diagram name="시퀀스다이어그램 - 아이디 로그인" id="vGjxYJuoH6DXgFhuESUk">
    <mxGraphModel dx="1242" dy="1886" grid="1" gridSize="10" guides="1" tooltips="1" connect="1" arrows="1" fold="1" page="1" pageScale="1" pageWidth="827" pageHeight="1169" math="0" shadow="0">
      <root>
        <mxCell id="fSWA0mUwY7w83EWW_8-O-0" />
        <mxCell id="fSWA0mUwY7w83EWW_8-O-1" parent="fSWA0mUwY7w83EWW_8-O-0" />
        <mxCell id="WkIkm3c8hvOIFAQIjHUU-0" value="" style="shape=ext;double=1;rounded=0;whiteSpace=wrap;html=1;fillColor=#f8cecc;strokeColor=#b85450;sketch=0;opacity=45;" vertex="1" parent="fSWA0mUwY7w83EWW_8-O-1">
          <mxGeometry x="261" width="274" height="1160" as="geometry" />
        </mxCell>
        <mxCell id="WkIkm3c8hvOIFAQIjHUU-35" value="core-api" style="shape=umlLifeline;perimeter=lifelinePerimeter;whiteSpace=wrap;html=1;container=1;collapsible=0;recursiveResize=0;outlineConnect=0;fontSize=10;" vertex="1" parent="fSWA0mUwY7w83EWW_8-O-1">
          <mxGeometry x="344" y="50" width="50" height="1110" as="geometry" />
        </mxCell>
        <mxCell id="tjbspQbd_-3lL2qCU8FZ-2" value="" style="html=1;points=[];perimeter=orthogonalPerimeter;" vertex="1" parent="fSWA0mUwY7w83EWW_8-O-1">
          <mxGeometry x="364" y="330" width="10" height="20" as="geometry" />
        </mxCell>
        <mxCell id="WkIkm3c8hvOIFAQIjHUU-7" value="" style="shape=ext;double=1;rounded=0;whiteSpace=wrap;html=1;fillColor=#e1d5e7;strokeColor=#9673a6;glass=0;shadow=0;sketch=0;opacity=45;" vertex="1" parent="fSWA0mUwY7w83EWW_8-O-1">
          <mxGeometry x="535" width="170" height="1160" as="geometry" />
        </mxCell>
        <mxCell id="WkIkm3c8hvOIFAQIjHUU-1" value="union-api" style="shape=umlLifeline;perimeter=lifelinePerimeter;whiteSpace=wrap;html=1;container=1;collapsible=0;recursiveResize=0;outlineConnect=0;fontSize=10;" vertex="1" parent="fSWA0mUwY7w83EWW_8-O-1">
          <mxGeometry x="280" y="51" width="50" height="1109" as="geometry" />
        </mxCell>
        <mxCell id="GSrhuAJ2a71GyoprP4VR-0" value="데이터 확인" style="html=1;verticalAlign=bottom;endArrow=open;fontSize=9;dashed=1;endFill=0;" edge="1" parent="WkIkm3c8hvOIFAQIjHUU-1" target="WkIkm3c8hvOIFAQIjHUU-19">
          <mxGeometry x="-0.0967" relative="1" as="geometry">
            <mxPoint x="92.50000000000006" y="299" as="sourcePoint" />
            <mxPoint x="407.9999999999998" y="299" as="targetPoint" />
            <mxPoint as="offset" />
          </mxGeometry>
        </mxCell>
        <mxCell id="WkIkm3c8hvOIFAQIjHUU-2" value="아이디, 패스워드 확인" style="html=1;verticalAlign=bottom;endArrow=open;fontSize=9;dashed=1;endFill=0;entryX=0.42;entryY=0.251;entryDx=0;entryDy=0;entryPerimeter=0;" edge="1" parent="WkIkm3c8hvOIFAQIjHUU-1" target="WkIkm3c8hvOIFAQIjHUU-35">
          <mxGeometry x="0.5385" relative="1" as="geometry">
            <mxPoint x="30.000000000000057" y="279" as="sourcePoint" />
            <mxPoint x="80" y="279" as="targetPoint" />
            <mxPoint as="offset" />
          </mxGeometry>
        </mxCell>
        <mxCell id="NV2TKinRMWepKhK4l1LL-2" value="로그인 히스토리 추가" style="html=1;verticalAlign=bottom;endArrow=open;fontSize=9;dashed=1;endFill=0;" edge="1" parent="WkIkm3c8hvOIFAQIjHUU-1" target="WkIkm3c8hvOIFAQIjHUU-19">
          <mxGeometry x="-0.0811" y="-19" relative="1" as="geometry">
            <mxPoint x="30.000000000000057" y="420" as="sourcePoint" />
            <mxPoint x="85" y="419" as="targetPoint" />
            <mxPoint as="offset" />
          </mxGeometry>
        </mxCell>
        <mxCell id="WkIkm3c8hvOIFAQIjHUU-33" value="social-api" style="shape=umlLifeline;perimeter=lifelinePerimeter;whiteSpace=wrap;html=1;container=1;collapsible=0;recursiveResize=0;outlineConnect=0;fontSize=10;" vertex="1" parent="fSWA0mUwY7w83EWW_8-O-1">
          <mxGeometry x="464" y="51" width="56" height="1109" as="geometry" />
        </mxCell>
        <mxCell id="WkIkm3c8hvOIFAQIjHUU-38" value="oauth2-api" style="shape=umlLifeline;perimeter=lifelinePerimeter;whiteSpace=wrap;html=1;container=1;collapsible=0;recursiveResize=0;outlineConnect=0;fontSize=10;" vertex="1" parent="fSWA0mUwY7w83EWW_8-O-1">
          <mxGeometry x="401.5" y="50" width="53.5" height="1109.5" as="geometry" />
        </mxCell>
        <mxCell id="WkIkm3c8hvOIFAQIjHUU-27" value="" style="shape=ext;double=1;rounded=0;whiteSpace=wrap;html=1;glass=0;shadow=0;sketch=0;opacity=45;fillColor=#d5e8d4;strokeColor=#82b366;" vertex="1" parent="fSWA0mUwY7w83EWW_8-O-1">
          <mxGeometry x="702" width="125" height="1160" as="geometry" />
        </mxCell>
        <mxCell id="WkIkm3c8hvOIFAQIjHUU-8" value="" style="shape=ext;double=1;rounded=0;whiteSpace=wrap;html=1;fillColor=#fff2cc;strokeColor=#d6b656;sketch=0;opacity=45;" vertex="1" parent="fSWA0mUwY7w83EWW_8-O-1">
          <mxGeometry width="260" height="1160" as="geometry" />
        </mxCell>
        <mxCell id="GSrhuAJ2a71GyoprP4VR-1" value="" style="html=1;points=[];perimeter=orthogonalPerimeter;" vertex="1" parent="fSWA0mUwY7w83EWW_8-O-1">
          <mxGeometry x="136" y="130" width="10" height="100" as="geometry" />
        </mxCell>
        <mxCell id="WkIkm3c8hvOIFAQIjHUU-9" value="유저" style="shape=umlLifeline;perimeter=lifelinePerimeter;whiteSpace=wrap;html=1;container=1;collapsible=0;recursiveResize=0;outlineConnect=0;fontSize=10;" vertex="1" parent="fSWA0mUwY7w83EWW_8-O-1">
          <mxGeometry x="10" y="46" width="60" height="1118" as="geometry" />
        </mxCell>
        <mxCell id="WkIkm3c8hvOIFAQIjHUU-12" value="" style="html=1;points=[];perimeter=orthogonalPerimeter;fontSize=9;" vertex="1" parent="WkIkm3c8hvOIFAQIjHUU-9">
          <mxGeometry x="25" y="60" width="10" height="480" as="geometry" />
        </mxCell>
        <mxCell id="WkIkm3c8hvOIFAQIjHUU-13" value="APP" style="shape=umlLifeline;perimeter=lifelinePerimeter;whiteSpace=wrap;html=1;container=1;collapsible=0;recursiveResize=0;outlineConnect=0;fontSize=10;" vertex="1" parent="fSWA0mUwY7w83EWW_8-O-1">
          <mxGeometry x="170" y="46" width="55" height="1113" as="geometry" />
        </mxCell>
        <mxCell id="xrZr02d5ckhw-IosaHMJ-1" value="captcha 대상이였다면&lt;div&gt;Google Recaptcha에 검증 통신&lt;/div&gt;" style="html=1;verticalAlign=bottom;endArrow=block;fontSize=9;dashed=1;exitX=1;exitY=0.042;exitDx=0;exitDy=0;exitPerimeter=0;" edge="1" parent="WkIkm3c8hvOIFAQIjHUU-13" target="WkIkm3c8hvOIFAQIjHUU-53">
          <mxGeometry x="-0.0139" relative="1" as="geometry">
            <mxPoint x="-30" y="223.99999999999966" as="sourcePoint" />
            <mxPoint x="134.5" y="223.99999999999966" as="targetPoint" />
            <mxPoint as="offset" />
          </mxGeometry>
        </mxCell>
        <mxCell id="WkIkm3c8hvOIFAQIjHUU-49" value="로그인 프로세스" style="html=1;verticalAlign=bottom;endArrow=block;fontSize=9;dashed=1;exitX=1;exitY=0.042;exitDx=0;exitDy=0;exitPerimeter=0;" edge="1" parent="WkIkm3c8hvOIFAQIjHUU-13" target="WkIkm3c8hvOIFAQIjHUU-1">
          <mxGeometry relative="1" as="geometry">
            <mxPoint x="-24" y="263.63999999999965" as="sourcePoint" />
            <mxPoint x="130" y="264" as="targetPoint" />
          </mxGeometry>
        </mxCell>
        <mxCell id="NV2TKinRMWepKhK4l1LL-0" value="로그인 성공 알림, 홈으로 이동" style="html=1;verticalAlign=bottom;endArrow=open;fontSize=9;dashed=1;endFill=0;entryX=0.62;entryY=0.902;entryDx=0;entryDy=0;entryPerimeter=0;" edge="1" parent="WkIkm3c8hvOIFAQIjHUU-13">
          <mxGeometry x="0.3483" y="28" relative="1" as="geometry">
            <mxPoint x="-40" y="436" as="sourcePoint" />
            <mxPoint x="-129" y="436" as="targetPoint" />
            <mxPoint as="offset" />
          </mxGeometry>
        </mxCell>
        <mxCell id="NV2TKinRMWepKhK4l1LL-1" value="쿠키 스토리지에 토큰 키 값 저장" style="html=1;verticalAlign=bottom;endArrow=open;fontSize=9;dashed=1;endFill=0;entryX=0.909;entryY=0.801;entryDx=0;entryDy=0;entryPerimeter=0;" edge="1" parent="WkIkm3c8hvOIFAQIjHUU-13" target="xrZr02d5ckhw-IosaHMJ-3">
          <mxGeometry x="0.0776" relative="1" as="geometry">
            <mxPoint x="130" y="404" as="sourcePoint" />
            <mxPoint x="-20" y="404" as="targetPoint" />
            <mxPoint as="offset" />
          </mxGeometry>
        </mxCell>
        <mxCell id="WkIkm3c8hvOIFAQIjHUU-14" value="WEB" style="shape=umlLifeline;perimeter=lifelinePerimeter;whiteSpace=wrap;html=1;container=1;collapsible=0;recursiveResize=0;outlineConnect=0;fontSize=10;" vertex="1" parent="fSWA0mUwY7w83EWW_8-O-1">
          <mxGeometry x="110" y="46" width="50" height="1120" as="geometry" />
        </mxCell>
        <mxCell id="xrZr02d5ckhw-IosaHMJ-3" value="" style="html=1;points=[];perimeter=orthogonalPerimeter;" vertex="1" parent="WkIkm3c8hvOIFAQIjHUU-14">
          <mxGeometry x="26" y="214" width="10" height="236" as="geometry" />
        </mxCell>
        <mxCell id="WkIkm3c8hvOIFAQIjHUU-15" value="" style="html=1;points=[];perimeter=orthogonalPerimeter;fontSize=10;" vertex="1" parent="WkIkm3c8hvOIFAQIjHUU-14">
          <mxGeometry x="20" y="60" width="10" height="450" as="geometry" />
        </mxCell>
        <mxCell id="WkIkm3c8hvOIFAQIjHUU-18" value="Redis" style="shape=umlLifeline;perimeter=lifelinePerimeter;whiteSpace=wrap;html=1;container=1;collapsible=0;recursiveResize=0;outlineConnect=0;fontSize=10;size=40;" vertex="1" parent="fSWA0mUwY7w83EWW_8-O-1">
          <mxGeometry x="605" y="50" width="40" height="1109" as="geometry" />
        </mxCell>
        <mxCell id="WkIkm3c8hvOIFAQIjHUU-19" value="Mariadb" style="shape=umlLifeline;perimeter=lifelinePerimeter;whiteSpace=wrap;html=1;container=1;collapsible=0;recursiveResize=0;outlineConnect=0;fontSize=10;" vertex="1" parent="fSWA0mUwY7w83EWW_8-O-1">
          <mxGeometry x="659" y="49.5" width="43" height="1110" as="geometry" />
        </mxCell>
        <mxCell id="WkIkm3c8hvOIFAQIjHUU-20" value="이용자&amp;nbsp;" style="html=1;fontSize=10;" vertex="1" parent="fSWA0mUwY7w83EWW_8-O-1">
          <mxGeometry x="10" y="11" width="60" height="30" as="geometry" />
        </mxCell>
        <mxCell id="WkIkm3c8hvOIFAQIjHUU-21" value="인증 백엔드 서비스" style="html=1;fontSize=10;" vertex="1" parent="fSWA0mUwY7w83EWW_8-O-1">
          <mxGeometry x="280" y="12" width="240" height="30" as="geometry" />
        </mxCell>
        <mxCell id="WkIkm3c8hvOIFAQIjHUU-22" value="DataSource" style="html=1;fontSize=10;" vertex="1" parent="fSWA0mUwY7w83EWW_8-O-1">
          <mxGeometry x="605" y="10" width="95" height="35" as="geometry" />
        </mxCell>
        <mxCell id="WkIkm3c8hvOIFAQIjHUU-23" value="아이디/패스워드&lt;div&gt;&amp;nbsp;로그인 요청&lt;/div&gt;" style="html=1;verticalAlign=bottom;endArrow=block;entryX=0;entryY=0;fontSize=9;dashed=1;" edge="1" parent="fSWA0mUwY7w83EWW_8-O-1">
          <mxGeometry relative="1" as="geometry">
            <mxPoint x="45" y="260" as="sourcePoint" />
            <mxPoint x="130" y="260.0000000000007" as="targetPoint" />
          </mxGeometry>
        </mxCell>
        <mxCell id="WkIkm3c8hvOIFAQIjHUU-24" value="2.0.1. 아이디/패스워드 기반 로그인 서비스" style="html=1;fontSize=20;dashed=1;" vertex="1" parent="fSWA0mUwY7w83EWW_8-O-1">
          <mxGeometry x="2" y="-690" width="820" height="90" as="geometry" />
        </mxCell>
        <mxCell id="WkIkm3c8hvOIFAQIjHUU-25" value="인증 프론트엔드 서비스" style="html=1;fontSize=10;" vertex="1" parent="fSWA0mUwY7w83EWW_8-O-1">
          <mxGeometry x="110" y="12" width="140" height="30" as="geometry" />
        </mxCell>
        <mxCell id="WkIkm3c8hvOIFAQIjHUU-28" value="외부 연동사" style="html=1;fontSize=10;" vertex="1" parent="fSWA0mUwY7w83EWW_8-O-1">
          <mxGeometry x="712" y="16" width="108" height="30" as="geometry" />
        </mxCell>
        <mxCell id="WkIkm3c8hvOIFAQIjHUU-29" value="Kakao Social" style="shape=umlLifeline;perimeter=lifelinePerimeter;whiteSpace=wrap;html=1;container=1;collapsible=0;recursiveResize=0;outlineConnect=0;fontSize=10;" vertex="1" parent="fSWA0mUwY7w83EWW_8-O-1">
          <mxGeometry x="712" y="50" width="43" height="1112" as="geometry" />
        </mxCell>
        <mxCell id="WkIkm3c8hvOIFAQIjHUU-44" value="메시징 서비스" style="html=1;fontSize=10;" vertex="1" parent="fSWA0mUwY7w83EWW_8-O-1">
          <mxGeometry x="539.5" y="10" width="60.5" height="36" as="geometry" />
        </mxCell>
        <mxCell id="WkIkm3c8hvOIFAQIjHUU-45" value="Message&amp;nbsp;&lt;div&gt;API&lt;/div&gt;" style="shape=umlLifeline;perimeter=lifelinePerimeter;whiteSpace=wrap;html=1;container=1;collapsible=0;recursiveResize=0;outlineConnect=0;fontSize=10;" vertex="1" parent="fSWA0mUwY7w83EWW_8-O-1">
          <mxGeometry x="543.5" y="51" width="50" height="1109" as="geometry" />
        </mxCell>
        <mxCell id="WkIkm3c8hvOIFAQIjHUU-53" value="Google&lt;div&gt;Recaptcha&lt;/div&gt;" style="shape=umlLifeline;perimeter=lifelinePerimeter;whiteSpace=wrap;html=1;container=1;collapsible=0;recursiveResize=0;outlineConnect=0;fontSize=10;" vertex="1" parent="fSWA0mUwY7w83EWW_8-O-1">
          <mxGeometry x="759" y="50" width="61" height="1111.5" as="geometry" />
        </mxCell>
        <mxCell id="GSrhuAJ2a71GyoprP4VR-2" value="- 브라우저 기준으로 7회 이상 로그인에 실패했다면&lt;div&gt;- Google Recaptcha 노출&lt;/div&gt;&lt;div&gt;- 추후 IP 기준으로 변경 검토&lt;/div&gt;" style="shape=note2;boundedLbl=1;whiteSpace=wrap;html=1;size=16;verticalAlign=top;align=left;fontSize=7;spacingLeft=5;" vertex="1" parent="fSWA0mUwY7w83EWW_8-O-1">
          <mxGeometry x="204" y="100" width="210" height="57" as="geometry" />
        </mxCell>
        <mxCell id="GSrhuAJ2a71GyoprP4VR-3" value="로그인 실패 N회 이상 감지" style="resizeWidth=1;part=1;strokeColor=none;fillColor=none;align=left;spacingLeft=5;fontSize=10;" vertex="1" parent="GSrhuAJ2a71GyoprP4VR-2">
          <mxGeometry width="210.00000000000003" height="20" relative="1" as="geometry" />
        </mxCell>
        <mxCell id="GSrhuAJ2a71GyoprP4VR-4" value="" style="endArrow=none;dashed=1;html=1;dashPattern=1 3;strokeWidth=2;rounded=0;exitX=0.873;exitY=0.213;exitDx=0;exitDy=0;exitPerimeter=0;entryX=0;entryY=0.5;entryDx=0;entryDy=0;entryPerimeter=0;" edge="1" parent="fSWA0mUwY7w83EWW_8-O-1" source="GSrhuAJ2a71GyoprP4VR-1" target="GSrhuAJ2a71GyoprP4VR-2">
          <mxGeometry width="50" height="50" relative="1" as="geometry">
            <mxPoint x="170" y="270" as="sourcePoint" />
            <mxPoint x="220" y="220" as="targetPoint" />
          </mxGeometry>
        </mxCell>
        <mxCell id="GSrhuAJ2a71GyoprP4VR-5" value="captcha 시도" style="html=1;verticalAlign=bottom;endArrow=block;entryX=0;entryY=0;fontSize=9;dashed=1;" edge="1" parent="fSWA0mUwY7w83EWW_8-O-1">
          <mxGeometry x="0.0029" relative="1" as="geometry">
            <mxPoint x="45" y="160" as="sourcePoint" />
            <mxPoint x="130" y="160.00000000000068" as="targetPoint" />
            <mxPoint as="offset" />
          </mxGeometry>
        </mxCell>
        <mxCell id="xrZr02d5ckhw-IosaHMJ-0" value="captcha 성공 시&amp;nbsp;&lt;div&gt;- 토큰 생성&lt;/div&gt;&lt;div&gt;- 로그인 버튼 활성화&lt;/div&gt;" style="edgeStyle=orthogonalEdgeStyle;html=1;align=left;spacingLeft=2;endArrow=block;rounded=0;exitX=0.98;exitY=0.386;exitDx=0;exitDy=0;exitPerimeter=0;" edge="1" parent="fSWA0mUwY7w83EWW_8-O-1">
          <mxGeometry relative="1" as="geometry">
            <mxPoint x="145.79999999999995" y="179.99999999999991" as="sourcePoint" />
            <Array as="points">
              <mxPoint x="146" y="181.4" />
              <mxPoint x="170" y="181.4" />
              <mxPoint x="170" y="201.4" />
            </Array>
            <mxPoint x="145" y="201.4" as="targetPoint" />
          </mxGeometry>
        </mxCell>
        <mxCell id="Fm-caw-wCU7YqGTAU7m2-2" value="" style="html=1;points=[];perimeter=orthogonalPerimeter;" vertex="1" parent="fSWA0mUwY7w83EWW_8-O-1">
          <mxGeometry x="300" y="310" width="10" height="170" as="geometry" />
        </mxCell>
        <mxCell id="Fm-caw-wCU7YqGTAU7m2-1" value="토큰 저장 결과 응답" style="html=1;verticalAlign=bottom;endArrow=open;fontSize=9;dashed=1;endFill=0;entryX=0.94;entryY=0.921;entryDx=0;entryDy=0;entryPerimeter=0;" edge="1" parent="fSWA0mUwY7w83EWW_8-O-1">
          <mxGeometry x="0.0758" y="20" relative="1" as="geometry">
            <mxPoint x="625" y="441" as="sourcePoint" />
            <mxPoint x="309" y="441" as="targetPoint" />
            <mxPoint as="offset" />
          </mxGeometry>
        </mxCell>
        <mxCell id="tjbspQbd_-3lL2qCU8FZ-1" value="" style="html=1;points=[];perimeter=orthogonalPerimeter;" vertex="1" parent="fSWA0mUwY7w83EWW_8-O-1">
          <mxGeometry x="423.25" y="400" width="10" height="20" as="geometry" />
        </mxCell>
        <mxCell id="tjbspQbd_-3lL2qCU8FZ-0" value="발급된 로그인 토큰 저장 (With TTL)" style="html=1;verticalAlign=bottom;endArrow=open;fontSize=9;dashed=1;endFill=0;" edge="1" parent="fSWA0mUwY7w83EWW_8-O-1">
          <mxGeometry x="-0.0863" y="5" relative="1" as="geometry">
            <mxPoint x="432.1" y="420" as="sourcePoint" />
            <mxPoint x="624.5" y="420" as="targetPoint" />
            <mxPoint as="offset" />
          </mxGeometry>
        </mxCell>
        <mxCell id="Fm-caw-wCU7YqGTAU7m2-0" value="로그인 토큰 발급 처리 API" style="html=1;verticalAlign=bottom;endArrow=open;fontSize=9;dashed=1;endFill=0;exitX=1.02;exitY=0.812;exitDx=0;exitDy=0;exitPerimeter=0;" edge="1" parent="fSWA0mUwY7w83EWW_8-O-1">
          <mxGeometry x="0.0807" relative="1" as="geometry">
            <mxPoint x="310" y="400" as="sourcePoint" />
            <mxPoint x="429" y="401" as="targetPoint" />
            <mxPoint as="offset" />
          </mxGeometry>
        </mxCell>
      </root>
    </mxGraphModel>
  </diagram>
  <diagram name="시퀀스다이어그램 - 소셜 로그인" id="KBj1UokY1dNZKiMz4lb4">
    <mxGraphModel dx="1098" dy="1803" grid="1" gridSize="10" guides="1" tooltips="1" connect="1" arrows="1" fold="1" page="1" pageScale="1" pageWidth="827" pageHeight="1169" math="0" shadow="0">
      <root>
        <mxCell id="_iu34fpMnpx-4qmmtiWx-0" />
        <mxCell id="_iu34fpMnpx-4qmmtiWx-1" parent="_iu34fpMnpx-4qmmtiWx-0" />
        <mxCell id="_iu34fpMnpx-4qmmtiWx-2" value="" style="shape=ext;double=1;rounded=0;whiteSpace=wrap;html=1;fillColor=#f8cecc;strokeColor=#b85450;sketch=0;opacity=45;" vertex="1" parent="_iu34fpMnpx-4qmmtiWx-1">
          <mxGeometry x="261" width="274" height="1160" as="geometry" />
        </mxCell>
        <mxCell id="_iu34fpMnpx-4qmmtiWx-3" value="union-api" style="shape=umlLifeline;perimeter=lifelinePerimeter;whiteSpace=wrap;html=1;container=1;collapsible=0;recursiveResize=0;outlineConnect=0;fontSize=10;" vertex="1" parent="_iu34fpMnpx-4qmmtiWx-1">
          <mxGeometry x="280" y="51" width="50" height="1109" as="geometry" />
        </mxCell>
        <mxCell id="Fbj_ggcmLhNNEOPfLmu5-34" value="카카오 로그인 처리 API" style="html=1;verticalAlign=bottom;endArrow=open;fontSize=9;dashed=1;endFill=0;" edge="1" parent="_iu34fpMnpx-4qmmtiWx-3" target="_iu34fpMnpx-4qmmtiWx-40">
          <mxGeometry x="0.0123" relative="1" as="geometry">
            <mxPoint x="24.700000000000045" y="213" as="sourcePoint" />
            <mxPoint x="89.5" y="213" as="targetPoint" />
            <mxPoint as="offset" />
          </mxGeometry>
        </mxCell>
        <mxCell id="Fbj_ggcmLhNNEOPfLmu5-37" value="기가입된 소셜 계정인지 확인" style="html=1;verticalAlign=bottom;endArrow=open;fontSize=9;dashed=1;endFill=0;" edge="1" parent="_iu34fpMnpx-4qmmtiWx-3">
          <mxGeometry x="0.8519" relative="1" as="geometry">
            <mxPoint x="25.000000000000057" y="283" as="sourcePoint" />
            <mxPoint x="89.80000000000001" y="283" as="targetPoint" />
            <mxPoint as="offset" />
          </mxGeometry>
        </mxCell>
        <mxCell id="Fbj_ggcmLhNNEOPfLmu5-42" value="" style="html=1;points=[];perimeter=orthogonalPerimeter;" vertex="1" parent="_iu34fpMnpx-4qmmtiWx-3">
          <mxGeometry x="25" y="411" width="10" height="69" as="geometry" />
        </mxCell>
        <mxCell id="Fbj_ggcmLhNNEOPfLmu5-38" value="" style="html=1;points=[];perimeter=orthogonalPerimeter;" vertex="1" parent="_iu34fpMnpx-4qmmtiWx-1">
          <mxGeometry x="300" y="250" width="10" height="400" as="geometry" />
        </mxCell>
        <mxCell id="_iu34fpMnpx-4qmmtiWx-5" value="" style="shape=ext;double=1;rounded=0;whiteSpace=wrap;html=1;fillColor=#e1d5e7;strokeColor=#9673a6;glass=0;shadow=0;sketch=0;opacity=45;" vertex="1" parent="_iu34fpMnpx-4qmmtiWx-1">
          <mxGeometry x="535" width="170" height="1160" as="geometry" />
        </mxCell>
        <mxCell id="_iu34fpMnpx-4qmmtiWx-6" value="" style="shape=ext;double=1;rounded=0;whiteSpace=wrap;html=1;fillColor=#fff2cc;strokeColor=#d6b656;sketch=0;opacity=45;" vertex="1" parent="_iu34fpMnpx-4qmmtiWx-1">
          <mxGeometry width="260" height="1160" as="geometry" />
        </mxCell>
        <mxCell id="_iu34fpMnpx-4qmmtiWx-7" value="유저" style="shape=umlLifeline;perimeter=lifelinePerimeter;whiteSpace=wrap;html=1;container=1;collapsible=0;recursiveResize=0;outlineConnect=0;fontSize=10;" vertex="1" parent="_iu34fpMnpx-4qmmtiWx-1">
          <mxGeometry x="10" y="46" width="60" height="1118" as="geometry" />
        </mxCell>
        <mxCell id="Fbj_ggcmLhNNEOPfLmu5-29" value="" style="html=1;points=[];perimeter=orthogonalPerimeter;" vertex="1" parent="_iu34fpMnpx-4qmmtiWx-7">
          <mxGeometry x="31" y="155" width="10" height="20" as="geometry" />
        </mxCell>
        <mxCell id="Fbj_ggcmLhNNEOPfLmu5-28" value="code 발급" style="edgeStyle=orthogonalEdgeStyle;html=1;align=left;spacingLeft=2;endArrow=block;rounded=0;" edge="1" parent="_iu34fpMnpx-4qmmtiWx-7">
          <mxGeometry relative="1" as="geometry">
            <mxPoint x="35" y="145.48" as="sourcePoint" />
            <Array as="points">
              <mxPoint x="65" y="145.48" />
              <mxPoint x="65" y="165.48" />
            </Array>
            <mxPoint x="40" y="165.48" as="targetPoint" />
          </mxGeometry>
        </mxCell>
        <mxCell id="_iu34fpMnpx-4qmmtiWx-10" value="" style="html=1;points=[];perimeter=orthogonalPerimeter;fontSize=9;" vertex="1" parent="_iu34fpMnpx-4qmmtiWx-7">
          <mxGeometry x="25" y="80" width="10" height="570" as="geometry" />
        </mxCell>
        <mxCell id="_iu34fpMnpx-4qmmtiWx-14" value="APP" style="shape=umlLifeline;perimeter=lifelinePerimeter;whiteSpace=wrap;html=1;container=1;collapsible=0;recursiveResize=0;outlineConnect=0;fontSize=10;" vertex="1" parent="_iu34fpMnpx-4qmmtiWx-1">
          <mxGeometry x="170" y="46" width="55" height="1113" as="geometry" />
        </mxCell>
        <mxCell id="_iu34fpMnpx-4qmmtiWx-19" value="WEB" style="shape=umlLifeline;perimeter=lifelinePerimeter;whiteSpace=wrap;html=1;container=1;collapsible=0;recursiveResize=0;outlineConnect=0;fontSize=10;" vertex="1" parent="_iu34fpMnpx-4qmmtiWx-1">
          <mxGeometry x="110" y="46" width="50" height="1120" as="geometry" />
        </mxCell>
        <mxCell id="_iu34fpMnpx-4qmmtiWx-20" value="" style="html=1;points=[];perimeter=orthogonalPerimeter;fontSize=10;" vertex="1" parent="_iu34fpMnpx-4qmmtiWx-19">
          <mxGeometry x="20" y="60" width="10" height="550" as="geometry" />
        </mxCell>
        <mxCell id="Fbj_ggcmLhNNEOPfLmu5-33" value="카카오 로그인 프로세스" style="html=1;verticalAlign=bottom;endArrow=open;fontSize=9;exitX=1.02;exitY=0.69;exitDx=0;exitDy=0;exitPerimeter=0;dashed=1;endFill=0;" edge="1" parent="_iu34fpMnpx-4qmmtiWx-19" target="_iu34fpMnpx-4qmmtiWx-3">
          <mxGeometry relative="1" as="geometry">
            <mxPoint x="30" y="204" as="sourcePoint" />
            <mxPoint x="114" y="205" as="targetPoint" />
          </mxGeometry>
        </mxCell>
        <mxCell id="T5j0OlWUgQ8lYqj4Ungy-13" value="로그인 성공 알림, 홈으로 이동" style="html=1;verticalAlign=bottom;endArrow=open;fontSize=9;dashed=1;endFill=0;entryX=0.62;entryY=0.902;entryDx=0;entryDy=0;entryPerimeter=0;" edge="1" parent="_iu34fpMnpx-4qmmtiWx-19" target="_iu34fpMnpx-4qmmtiWx-10">
          <mxGeometry x="-0.0792" y="-9" relative="1" as="geometry">
            <mxPoint x="20" y="594" as="sourcePoint" />
            <mxPoint x="-61.5" y="594" as="targetPoint" />
            <mxPoint as="offset" />
          </mxGeometry>
        </mxCell>
        <mxCell id="_iu34fpMnpx-4qmmtiWx-24" value="Redis" style="shape=umlLifeline;perimeter=lifelinePerimeter;whiteSpace=wrap;html=1;container=1;collapsible=0;recursiveResize=0;outlineConnect=0;fontSize=10;size=40;" vertex="1" parent="_iu34fpMnpx-4qmmtiWx-1">
          <mxGeometry x="605" y="50" width="40" height="1109" as="geometry" />
        </mxCell>
        <mxCell id="_iu34fpMnpx-4qmmtiWx-26" value="Mariadb" style="shape=umlLifeline;perimeter=lifelinePerimeter;whiteSpace=wrap;html=1;container=1;collapsible=0;recursiveResize=0;outlineConnect=0;fontSize=10;" vertex="1" parent="_iu34fpMnpx-4qmmtiWx-1">
          <mxGeometry x="662" y="50" width="43" height="1110" as="geometry" />
        </mxCell>
        <mxCell id="_iu34fpMnpx-4qmmtiWx-27" value="이용자&amp;nbsp;" style="html=1;fontSize=10;" vertex="1" parent="_iu34fpMnpx-4qmmtiWx-1">
          <mxGeometry x="10" y="11" width="60" height="30" as="geometry" />
        </mxCell>
        <mxCell id="_iu34fpMnpx-4qmmtiWx-28" value="인증 백엔드 서비스" style="html=1;fontSize=10;" vertex="1" parent="_iu34fpMnpx-4qmmtiWx-1">
          <mxGeometry x="280" y="12" width="240" height="30" as="geometry" />
        </mxCell>
        <mxCell id="_iu34fpMnpx-4qmmtiWx-30" value="DataSource" style="html=1;fontSize=10;" vertex="1" parent="_iu34fpMnpx-4qmmtiWx-1">
          <mxGeometry x="605" y="16" width="100" height="30" as="geometry" />
        </mxCell>
        <mxCell id="_iu34fpMnpx-4qmmtiWx-31" value="소셜 로그인 요청" style="html=1;verticalAlign=bottom;endArrow=block;entryX=0;entryY=0;fontSize=9;dashed=1;" edge="1" parent="_iu34fpMnpx-4qmmtiWx-1">
          <mxGeometry relative="1" as="geometry">
            <mxPoint x="45" y="137" as="sourcePoint" />
            <mxPoint x="130" y="137.00000000000068" as="targetPoint" />
          </mxGeometry>
        </mxCell>
        <mxCell id="_iu34fpMnpx-4qmmtiWx-38" value="2.0.1. 소셜 기반 로그인 서비스" style="html=1;fontSize=20;dashed=1;" vertex="1" parent="_iu34fpMnpx-4qmmtiWx-1">
          <mxGeometry x="2" y="-690" width="820" height="90" as="geometry" />
        </mxCell>
        <mxCell id="_iu34fpMnpx-4qmmtiWx-46" value="인증 프론트엔드 서비스" style="html=1;fontSize=10;" vertex="1" parent="_iu34fpMnpx-4qmmtiWx-1">
          <mxGeometry x="110" y="12" width="140" height="30" as="geometry" />
        </mxCell>
        <mxCell id="_iu34fpMnpx-4qmmtiWx-48" value="기설정된 redirect 처리" style="html=1;verticalAlign=bottom;endArrow=open;fontSize=9;exitX=1.02;exitY=0.69;exitDx=0;exitDy=0;exitPerimeter=0;dashed=1;endFill=0;" edge="1" parent="_iu34fpMnpx-4qmmtiWx-1">
          <mxGeometry relative="1" as="geometry">
            <mxPoint x="45.200000000000045" y="240.00000000000006" as="sourcePoint" />
            <mxPoint x="129" y="240.81" as="targetPoint" />
          </mxGeometry>
        </mxCell>
        <mxCell id="Fbj_ggcmLhNNEOPfLmu5-18" value="" style="shape=ext;double=1;rounded=0;whiteSpace=wrap;html=1;glass=0;shadow=0;sketch=0;opacity=45;fillColor=#d5e8d4;strokeColor=#82b366;" vertex="1" parent="_iu34fpMnpx-4qmmtiWx-1">
          <mxGeometry x="702" width="125" height="1160" as="geometry" />
        </mxCell>
        <mxCell id="Fbj_ggcmLhNNEOPfLmu5-17" value="외부 연동사" style="html=1;fontSize=10;" vertex="1" parent="_iu34fpMnpx-4qmmtiWx-1">
          <mxGeometry x="712" y="16" width="108" height="30" as="geometry" />
        </mxCell>
        <mxCell id="Fbj_ggcmLhNNEOPfLmu5-21" value="Kakao Social" style="shape=umlLifeline;perimeter=lifelinePerimeter;whiteSpace=wrap;html=1;container=1;collapsible=0;recursiveResize=0;outlineConnect=0;fontSize=10;" vertex="1" parent="_iu34fpMnpx-4qmmtiWx-1">
          <mxGeometry x="712" y="50" width="43" height="1112" as="geometry" />
        </mxCell>
        <mxCell id="Fbj_ggcmLhNNEOPfLmu5-24" value="카카오 로그인 페이지" style="html=1;verticalAlign=bottom;endArrow=block;fontSize=9;entryX=0.94;entryY=0.229;entryDx=0;entryDy=0;entryPerimeter=0;" edge="1" parent="_iu34fpMnpx-4qmmtiWx-1">
          <mxGeometry relative="1" as="geometry">
            <mxPoint x="130" y="181.42" as="sourcePoint" />
            <mxPoint x="44.40000000000009" y="179.99900000000017" as="targetPoint" />
          </mxGeometry>
        </mxCell>
        <mxCell id="Fbj_ggcmLhNNEOPfLmu5-35" value="code를 통한 카카오 계정 토큰 정보 요청" style="html=1;verticalAlign=bottom;endArrow=open;fontSize=9;dashed=1;endFill=0;" edge="1" parent="_iu34fpMnpx-4qmmtiWx-1" target="Fbj_ggcmLhNNEOPfLmu5-21">
          <mxGeometry x="0.0123" relative="1" as="geometry">
            <mxPoint x="495.00000000000006" y="270" as="sourcePoint" />
            <mxPoint x="685.3" y="270" as="targetPoint" />
            <mxPoint as="offset" />
          </mxGeometry>
        </mxCell>
        <mxCell id="Fbj_ggcmLhNNEOPfLmu5-36" value="카카오 계정 토큰 정보 수신" style="html=1;verticalAlign=bottom;endArrow=open;fontSize=9;dashed=1;endFill=0;" edge="1" parent="_iu34fpMnpx-4qmmtiWx-1">
          <mxGeometry x="0.0123" relative="1" as="geometry">
            <mxPoint x="735" y="300" as="sourcePoint" />
            <mxPoint x="315" y="300" as="targetPoint" />
            <mxPoint as="offset" />
          </mxGeometry>
        </mxCell>
        <mxCell id="_iu34fpMnpx-4qmmtiWx-40" value="social-api" style="shape=umlLifeline;perimeter=lifelinePerimeter;whiteSpace=wrap;html=1;container=1;collapsible=0;recursiveResize=0;outlineConnect=0;fontSize=10;" vertex="1" parent="_iu34fpMnpx-4qmmtiWx-1">
          <mxGeometry x="464" y="51" width="56" height="1109" as="geometry" />
        </mxCell>
        <mxCell id="0hD0-tehty7zzJ-W6dsk-4" value="발급된 로그인 토큰 저장 (With TTL)" style="html=1;verticalAlign=bottom;endArrow=open;fontSize=9;dashed=1;endFill=0;" edge="1" parent="_iu34fpMnpx-4qmmtiWx-40">
          <mxGeometry x="-0.0863" y="5" relative="1" as="geometry">
            <mxPoint x="-31.899999999999956" y="534" as="sourcePoint" />
            <mxPoint x="160.5" y="534" as="targetPoint" />
            <mxPoint as="offset" />
          </mxGeometry>
        </mxCell>
        <mxCell id="Fbj_ggcmLhNNEOPfLmu5-1" value="core-api" style="shape=umlLifeline;perimeter=lifelinePerimeter;whiteSpace=wrap;html=1;container=0;collapsible=0;recursiveResize=0;outlineConnect=0;fontSize=10;" vertex="1" parent="_iu34fpMnpx-4qmmtiWx-1">
          <mxGeometry x="344" y="50" width="50" height="1110" as="geometry" />
        </mxCell>
        <mxCell id="Fbj_ggcmLhNNEOPfLmu5-7" value="oauth2-api" style="shape=umlLifeline;perimeter=lifelinePerimeter;whiteSpace=wrap;html=1;container=1;collapsible=0;recursiveResize=0;outlineConnect=0;fontSize=10;" vertex="1" parent="_iu34fpMnpx-4qmmtiWx-1">
          <mxGeometry x="401.5" y="50" width="53.5" height="1109.5" as="geometry" />
        </mxCell>
        <mxCell id="4nU6cuM9QKSeC_x0mr7P-0" value="" style="html=1;points=[];perimeter=orthogonalPerimeter;" vertex="1" parent="Fbj_ggcmLhNNEOPfLmu5-7">
          <mxGeometry x="21.75" y="510" width="10" height="50" as="geometry" />
        </mxCell>
        <mxCell id="Fbj_ggcmLhNNEOPfLmu5-39" value="데이터 조회" style="html=1;verticalAlign=bottom;endArrow=open;fontSize=9;dashed=1;endFill=0;" edge="1" parent="Fbj_ggcmLhNNEOPfLmu5-7" target="_iu34fpMnpx-4qmmtiWx-26">
          <mxGeometry x="-0.004" relative="1" as="geometry">
            <mxPoint x="-26.5" y="293" as="sourcePoint" />
            <mxPoint x="27.400000000000034" y="293" as="targetPoint" />
            <mxPoint as="offset" />
          </mxGeometry>
        </mxCell>
        <mxCell id="0hD0-tehty7zzJ-W6dsk-5" value="회원 데이터 추출" style="html=1;verticalAlign=bottom;endArrow=open;fontSize=9;dashed=1;endFill=0;" edge="1" parent="Fbj_ggcmLhNNEOPfLmu5-7">
          <mxGeometry x="-0.004" relative="1" as="geometry">
            <mxPoint x="281.5" y="323" as="sourcePoint" />
            <mxPoint x="-31.5" y="323" as="targetPoint" />
            <mxPoint as="offset" />
          </mxGeometry>
        </mxCell>
        <mxCell id="Fbj_ggcmLhNNEOPfLmu5-40" value="회원가입 진행" style="html=1;verticalAlign=bottom;endArrow=open;fontSize=9;dashed=1;endFill=0;exitX=1;exitY=0.32;exitDx=0;exitDy=0;exitPerimeter=0;" edge="1" parent="_iu34fpMnpx-4qmmtiWx-1">
          <mxGeometry x="0.0802" relative="1" as="geometry">
            <mxPoint x="315" y="478.00000000000006" as="sourcePoint" />
            <mxPoint x="369.5" y="478.00000000000006" as="targetPoint" />
            <mxPoint as="offset" />
          </mxGeometry>
        </mxCell>
        <mxCell id="Fbj_ggcmLhNNEOPfLmu5-43" value="회원 데이터 생성" style="html=1;verticalAlign=bottom;endArrow=open;fontSize=9;dashed=1;endFill=0;" edge="1" parent="_iu34fpMnpx-4qmmtiWx-1">
          <mxGeometry x="0.0802" relative="1" as="geometry">
            <mxPoint x="369.70000000000005" y="488" as="sourcePoint" />
            <mxPoint x="683" y="488" as="targetPoint" />
            <mxPoint as="offset" />
          </mxGeometry>
        </mxCell>
        <mxCell id="zM60bkzjdnavVZUoiG3J-2" value="" style="endArrow=none;dashed=1;html=1;dashPattern=1 3;strokeWidth=2;rounded=0;exitX=1;exitY=0;exitDx=0;exitDy=0;exitPerimeter=0;entryX=0;entryY=0.5;entryDx=0;entryDy=0;entryPerimeter=0;" edge="1" parent="_iu34fpMnpx-4qmmtiWx-1" source="Fbj_ggcmLhNNEOPfLmu5-42" target="zM60bkzjdnavVZUoiG3J-3">
          <mxGeometry width="50" height="50" relative="1" as="geometry">
            <mxPoint x="325" y="600" as="sourcePoint" />
            <mxPoint x="365" y="570" as="targetPoint" />
          </mxGeometry>
        </mxCell>
        <mxCell id="0hD0-tehty7zzJ-W6dsk-0" value="메시징 서비스" style="html=1;fontSize=10;" vertex="1" parent="_iu34fpMnpx-4qmmtiWx-1">
          <mxGeometry x="539.5" y="16" width="58" height="30" as="geometry" />
        </mxCell>
        <mxCell id="0hD0-tehty7zzJ-W6dsk-1" value="Message&amp;nbsp;&lt;div&gt;API&lt;/div&gt;" style="shape=umlLifeline;perimeter=lifelinePerimeter;whiteSpace=wrap;html=1;container=1;collapsible=0;recursiveResize=0;outlineConnect=0;fontSize=10;" vertex="1" parent="_iu34fpMnpx-4qmmtiWx-1">
          <mxGeometry x="543.5" y="51" width="50" height="1109" as="geometry" />
        </mxCell>
        <mxCell id="0hD0-tehty7zzJ-W6dsk-2" value="가입완료 환영 메일 발송" style="html=1;verticalAlign=bottom;endArrow=open;fontSize=9;dashed=1;endFill=0;" edge="1" parent="_iu34fpMnpx-4qmmtiWx-1">
          <mxGeometry x="0.0802" relative="1" as="geometry">
            <mxPoint x="315.00000000000006" y="508" as="sourcePoint" />
            <mxPoint x="565" y="508" as="targetPoint" />
            <mxPoint as="offset" />
          </mxGeometry>
        </mxCell>
        <mxCell id="zM60bkzjdnavVZUoiG3J-3" value="소셜정보를 토대로 가입 진행&lt;div&gt;- 이메일, 성함, 닉네밍, 전화번호, 성별, 생년월일&lt;/div&gt;&lt;div&gt;- 동의 정보는 소셜 동의 페이지에서 받음&lt;/div&gt;" style="shape=note2;boundedLbl=1;whiteSpace=wrap;html=1;size=16;verticalAlign=top;align=left;fontSize=7;spacingLeft=5;" vertex="1" parent="_iu34fpMnpx-4qmmtiWx-1">
          <mxGeometry x="435" y="411.5" width="210" height="57" as="geometry" />
        </mxCell>
        <mxCell id="zM60bkzjdnavVZUoiG3J-4" value="최초 소셜 로그인 (회원 데이터가 없었다면)" style="resizeWidth=1;part=1;strokeColor=none;fillColor=none;align=left;spacingLeft=5;fontSize=10;" vertex="1" parent="zM60bkzjdnavVZUoiG3J-3">
          <mxGeometry width="210.00000000000003" height="20" relative="1" as="geometry" />
        </mxCell>
        <mxCell id="T5j0OlWUgQ8lYqj4Ungy-2" value="소셜 클라이언트 정보 요청" style="html=1;verticalAlign=bottom;endArrow=block;fontSize=9;dashed=1;exitX=1;exitY=0.042;exitDx=0;exitDy=0;exitPerimeter=0;" edge="1" parent="_iu34fpMnpx-4qmmtiWx-1" source="_iu34fpMnpx-4qmmtiWx-20" target="_iu34fpMnpx-4qmmtiWx-3">
          <mxGeometry relative="1" as="geometry">
            <mxPoint x="150" y="147" as="sourcePoint" />
            <mxPoint x="235" y="147.00000000000068" as="targetPoint" />
          </mxGeometry>
        </mxCell>
        <mxCell id="T5j0OlWUgQ8lYqj4Ungy-8" value="소셜 인증 URI 전달" style="html=1;verticalAlign=bottom;endArrow=block;fontSize=9;dashed=1;entryX=0.96;entryY=0.09;entryDx=0;entryDy=0;entryPerimeter=0;" edge="1" parent="_iu34fpMnpx-4qmmtiWx-1">
          <mxGeometry x="0.0166" y="20" relative="1" as="geometry">
            <mxPoint x="506.5" y="169.99999999999991" as="sourcePoint" />
            <mxPoint x="139.5999999999999" y="169.99999999999991" as="targetPoint" />
            <mxPoint as="offset" />
          </mxGeometry>
        </mxCell>
        <mxCell id="T5j0OlWUgQ8lYqj4Ungy-10" value="쿠키 스토리지에 토큰 키 값 저장" style="html=1;verticalAlign=bottom;endArrow=open;fontSize=9;dashed=1;endFill=0;" edge="1" parent="_iu34fpMnpx-4qmmtiWx-1">
          <mxGeometry x="0.0776" relative="1" as="geometry">
            <mxPoint x="300" y="608" as="sourcePoint" />
            <mxPoint x="140" y="608" as="targetPoint" />
            <mxPoint as="offset" />
          </mxGeometry>
        </mxCell>
        <mxCell id="RE-0bYmz393Tp797HTwD-0" value="Google&lt;div&gt;Rechapcha&lt;/div&gt;" style="shape=umlLifeline;perimeter=lifelinePerimeter;whiteSpace=wrap;html=1;container=1;collapsible=0;recursiveResize=0;outlineConnect=0;fontSize=10;" vertex="1" parent="_iu34fpMnpx-4qmmtiWx-1">
          <mxGeometry x="759" y="50" width="61" height="1111.5" as="geometry" />
        </mxCell>
        <mxCell id="T5j0OlWUgQ8lYqj4Ungy-12" value="토큰 저장 결과 응답" style="html=1;verticalAlign=bottom;endArrow=open;fontSize=9;dashed=1;endFill=0;entryX=0.948;entryY=0.876;entryDx=0;entryDy=0;entryPerimeter=0;" edge="1" parent="_iu34fpMnpx-4qmmtiWx-1" target="Fbj_ggcmLhNNEOPfLmu5-38">
          <mxGeometry x="0.0758" y="20" relative="1" as="geometry">
            <mxPoint x="420" y="600" as="sourcePoint" />
            <mxPoint x="634.5" y="630" as="targetPoint" />
            <mxPoint as="offset" />
          </mxGeometry>
        </mxCell>
        <mxCell id="pbiv2Vmc8lqz_jgLmg1E-1" value="" style="html=1;points=[];perimeter=orthogonalPerimeter;movable=0;resizable=0;rotatable=0;deletable=0;editable=0;locked=1;connectable=0;" vertex="1" parent="_iu34fpMnpx-4qmmtiWx-1">
          <mxGeometry x="364" y="340" width="10" height="80" as="geometry" />
        </mxCell>
        <mxCell id="T5j0OlWUgQ8lYqj4Ungy-3" value="소셜 클라이언트 정보 요청" style="html=1;verticalAlign=bottom;endArrow=block;fontSize=9;dashed=1;" edge="1" parent="_iu34fpMnpx-4qmmtiWx-1">
          <mxGeometry relative="1" as="geometry">
            <mxPoint x="306.00000000000006" y="155" as="sourcePoint" />
            <mxPoint x="491.3" y="155" as="targetPoint" />
          </mxGeometry>
        </mxCell>
        <mxCell id="0hD0-tehty7zzJ-W6dsk-3" value="로그인 토큰 발급 처리 API" style="html=1;verticalAlign=bottom;endArrow=open;fontSize=9;dashed=1;endFill=0;exitX=0.81;exitY=0.769;exitDx=0;exitDy=0;exitPerimeter=0;" edge="1" parent="_iu34fpMnpx-4qmmtiWx-1" source="Fbj_ggcmLhNNEOPfLmu5-38">
          <mxGeometry x="0.0807" relative="1" as="geometry">
            <mxPoint x="315" y="560" as="sourcePoint" />
            <mxPoint x="429" y="560" as="targetPoint" />
            <mxPoint as="offset" />
          </mxGeometry>
        </mxCell>
        <mxCell id="0hD0-tehty7zzJ-W6dsk-6" value="&lt;meta charset=&quot;utf-8&quot;&gt;&lt;span style=&quot;color: rgb(0, 0, 0); font-family: Helvetica; font-size: 9px; font-style: normal; font-variant-ligatures: normal; font-variant-caps: normal; font-weight: 400; letter-spacing: normal; orphans: 2; text-align: center; text-indent: 0px; text-transform: none; widows: 2; word-spacing: 0px; -webkit-text-stroke-width: 0px; white-space: nowrap; background-color: rgb(255, 255, 255); text-decoration-thickness: initial; text-decoration-style: initial; text-decoration-color: initial; display: inline !important; float: none;&quot;&gt;회원 데이터 유무 및 실체 확인&lt;/span&gt;" style="html=1;verticalAlign=bottom;endArrow=open;fontSize=9;dashed=1;endFill=0;entryX=0.94;entryY=0.356;entryDx=0;entryDy=0;entryPerimeter=0;" edge="1" parent="_iu34fpMnpx-4qmmtiWx-1">
          <mxGeometry x="-1" y="21" relative="1" as="geometry">
            <mxPoint x="364.1" y="420.00000000000017" as="sourcePoint" />
            <mxPoint x="305.0000000000001" y="420.00000000000017" as="targetPoint" />
            <mxPoint x="6" y="-1" as="offset" />
          </mxGeometry>
        </mxCell>
        <mxCell id="eB890_t_UGsGkz4qDGNt-0" value="로그인 히스토리 추가" style="html=1;verticalAlign=bottom;endArrow=open;fontSize=9;dashed=1;endFill=0;" edge="1" parent="_iu34fpMnpx-4qmmtiWx-1" target="_iu34fpMnpx-4qmmtiWx-26">
          <mxGeometry x="-0.0885" y="-20" relative="1" as="geometry">
            <mxPoint x="310" y="640" as="sourcePoint" />
            <mxPoint x="502.4" y="640" as="targetPoint" />
            <mxPoint as="offset" />
          </mxGeometry>
        </mxCell>
      </root>
    </mxGraphModel>
  </diagram>
</mxfile>
